<svg width="170" height="72" viewBox="0 0 170 72" fill="none" xmlns="http://www.w3.org/2000/svg">
<g clip-path="url(#clip0_1_2872)">
<rect width="105" height="20" transform="translate(27 10)" fill="white"/>
<path d="M27.0542 10.111H34.7443C36.2091 10.111 37.3077 10.4857 38.1215 11.1102C39.0166 11.8596 39.5049 12.9421 39.5049 14.2744C39.5049 15.8149 38.8946 16.7725 37.6739 17.3554V17.4387C39.3015 17.9799 40.2373 19.4788 40.2373 21.2691C40.2373 22.9761 39.5863 24.3084 38.5284 25.1411C37.6332 25.8073 36.4939 26.0987 34.9478 26.0987H27.0542V10.111ZM33.9713 16.3562C34.785 16.3562 35.3954 15.8982 35.3954 14.9406C35.3954 14.0246 34.785 13.5667 33.9306 13.5667H31.2858V16.3145H33.9713V16.3562ZM34.3374 22.5598C35.2733 22.5598 35.965 21.9769 35.965 20.936C35.965 19.8119 35.2326 19.3123 34.3374 19.3123H31.3265V22.6014H34.3374V22.5598ZM40.929 10.111H44.9572V26.1404H40.929V10.111ZM45.7709 20.4364C45.7709 16.8142 48.0495 14.3993 51.5894 14.3993C55.1293 14.3993 57.3672 16.8558 57.3672 20.4364C57.3672 24.0586 55.1293 26.4734 51.5894 26.4734C48.0495 26.4734 45.7709 24.0586 45.7709 20.4364ZM53.339 20.4364C53.339 18.4379 52.7287 17.1889 51.508 17.1889C50.2874 17.1889 49.7177 18.4379 49.7177 20.4364C49.7177 22.4349 50.2874 23.7255 51.508 23.7255C52.7287 23.6839 53.339 22.4349 53.339 20.4364ZM57.8147 20.4364C57.8147 16.8142 60.0933 14.3993 63.6332 14.3993C67.1731 14.3993 69.3703 16.8142 69.3703 20.4364C69.3703 24.0586 67.1324 26.4734 63.5925 26.4734C60.0933 26.4734 57.8147 24.0586 57.8147 20.4364ZM65.3828 20.4364C65.3828 18.4379 64.7725 17.1889 63.5518 17.1889C62.3312 17.1889 61.7615 18.4379 61.7615 20.4364C61.7615 22.4349 62.3312 23.7255 63.5518 23.7255C64.7725 23.6839 65.3828 22.4349 65.3828 20.4364ZM70.1841 14.6908H73.9274V16.3978H74.0088C74.7412 15.0655 75.7584 14.3577 77.3859 14.3577C78.81 14.3577 79.8679 15.0655 80.3969 16.3145H80.4783C81.3734 14.8157 82.5534 14.3577 83.9368 14.3577C86.5409 14.3577 87.6394 16.3145 87.6394 18.9375V26.0987H83.7333V19.6453C83.7333 18.4796 83.3671 17.7301 82.3906 17.7301C81.4141 17.7301 80.9258 18.6461 80.9258 19.8951V26.0987H77.0197V19.6453C77.0197 18.4796 76.6535 17.7301 75.677 17.7301C74.7005 17.7301 74.2122 18.6461 74.2122 19.8951V26.0987H70.1841V14.6908ZM92.5628 24.5999H92.5221V26.0987H88.7787V10.111H92.6848V15.8566H92.7662C93.4986 14.8573 94.5158 14.3161 95.9399 14.3161C98.7474 14.3161 100.375 16.8974 100.375 20.3531C100.375 24.2252 98.6254 26.4734 95.6958 26.4734C94.4751 26.4734 93.2138 25.8906 92.5628 24.5999ZM96.3468 20.3115C96.3468 18.4796 95.6958 17.2721 94.5158 17.2721C93.2952 17.2721 92.5628 18.4796 92.5628 20.3115C92.5628 22.1434 93.3358 23.3508 94.5158 23.3508C95.6958 23.3508 96.3468 22.1851 96.3468 20.3115ZM100.823 20.3948C100.823 16.8142 103.142 14.3577 106.478 14.3577C108.146 14.3577 109.408 14.899 110.384 15.8566C111.686 17.1472 112.256 19.1457 112.215 21.4773H104.729C104.891 22.8928 105.542 23.6423 106.722 23.6423C107.414 23.6423 108.024 23.3092 108.269 22.5598H112.053C111.402 25.1828 109.408 26.4734 106.6 26.4734C103.142 26.4318 100.823 24.017 100.823 20.3948ZM104.729 19.1873H108.309C108.228 17.8134 107.495 17.1056 106.56 17.1056C105.461 17.064 104.851 17.855 104.729 19.1873ZM116.65 16.6476H116.732C117.546 15.0655 118.603 14.441 119.946 14.441C120.272 14.441 120.475 14.4826 120.597 14.5659V18.0632H120.516C118.197 17.6469 116.854 18.771 116.854 21.3524V26.1404H112.907V14.6908H116.65V16.6476ZM121.004 26.1404H124.788C124.951 26.64 125.439 27.098 126.375 27.098C127.636 27.098 128.084 26.3069 128.084 25.0995V24.2668H128.002C127.392 25.0162 126.538 25.5575 125.317 25.5575C122.916 25.5575 120.801 23.7255 120.801 20.145C120.801 16.8558 122.51 14.3161 125.114 14.3161C126.619 14.3161 127.514 14.9406 128.125 15.8982H128.206V14.6492H131.949V24.5582C131.949 26.3902 131.339 27.8058 130.403 28.6385C129.427 29.5128 128.043 29.8875 126.456 29.8875C123.445 29.9291 121.37 28.6801 121.004 26.1404ZM128.247 19.9784C128.247 18.5628 127.596 17.3971 126.456 17.3971C125.358 17.3971 124.666 18.3963 124.666 19.9784C124.666 21.5189 125.358 22.6014 126.456 22.6014C127.555 22.6014 128.247 21.4773 128.247 19.9784Z" fill="black"/>
</g>
<defs>
<clipPath id="clip0_1_2872">
<rect width="105" height="20" fill="white" transform="translate(27 10)"/>
</clipPath>
</defs>
</svg>
