<svg width="32" height="32" viewBox="0 0 32 32" fill="none" xmlns="http://www.w3.org/2000/svg">
<path d="M13.8667 3.20001H18.1334V4.26668H13.8667V3.20001Z" fill="#0070F0" fill-opacity="0.9"/>
<path d="M19.2 1.59998C19.2 1.45853 19.1439 1.32288 19.0438 1.22286C18.9438 1.12284 18.8082 1.06665 18.6667 1.06665H13.3334C13.1919 1.06665 13.0563 1.12284 12.9563 1.22286C12.8562 1.32288 12.8 1.45853 12.8 1.59998V2.13332H19.2V1.59998Z" fill="#0070F0" fill-opacity="0.9"/>
<path d="M29.3787 3.55146L25.7958 1.23787C25.6782 1.16167 25.5467 1.1094 25.4088 1.08405C25.2709 1.05871 25.1294 1.06078 24.9924 1.09015C24.8553 1.11952 24.7254 1.17562 24.6101 1.25523C24.4947 1.33484 24.3962 1.43641 24.3201 1.55413L29.6961 5.02773C29.8492 4.78972 29.9017 4.50075 29.8423 4.22406C29.7828 3.94738 29.6161 3.70553 29.3787 3.55146Z" fill="#0070F0" fill-opacity="0.9"/>
<path d="M3.47846 6.84428L8.86246 3.38295L8.2598 2.45068L2.88379 5.92428L3.47846 6.84428Z" fill="#0070F0" fill-opacity="0.9"/>
<path d="M4.08224 22.7232C4.1516 22.9386 4.28734 23.1266 4.47004 23.2601C4.65273 23.3937 4.87301 23.466 5.09931 23.4667H6.83531L3.14678 11.3872L1.65824 12.1301C1.43145 12.2453 1.25273 12.437 1.15375 12.6712C1.05476 12.9055 1.0419 13.1673 1.11744 13.4101L4.08224 22.7232Z" fill="#0070F0" fill-opacity="0.9"/>
<path d="M20.8 29.8666H11.2V30.4C11.2 30.5414 11.2561 30.6771 11.3562 30.7771C11.4562 30.8771 11.5918 30.9333 11.7333 30.9333H20.2666C20.4081 30.9333 20.5437 30.8771 20.6438 30.7771C20.7438 30.6771 20.8 30.5414 20.8 30.4V29.8666Z" fill="#0070F0" fill-opacity="0.9"/>
<path d="M30.3419 12.1301L28.856 11.3872L25.1648 23.4667H26.9008C27.1268 23.4661 27.3468 23.3941 27.5293 23.2609C27.7119 23.1278 27.8477 22.9403 27.9173 22.7253L30.8827 13.4112C30.9585 13.1682 30.9458 12.9062 30.8468 12.6717C30.7478 12.4372 30.5689 12.2453 30.3419 12.1301Z" fill="#0070F0" fill-opacity="0.9"/>
<path d="M9.34285 26.6299C9.56744 26.6906 9.76611 26.8229 9.90874 27.0068C10.0514 27.1906 10.1302 27.4159 10.1333 27.6485V28.2667C10.1333 28.4081 10.1894 28.5438 10.2895 28.6438C10.3895 28.7438 10.5251 28.8 10.6666 28.8H21.3333C21.4747 28.8 21.6104 28.7438 21.7104 28.6438C21.8104 28.5438 21.8666 28.4081 21.8666 28.2667V27.6485C21.8696 27.4159 21.9485 27.1906 22.0911 27.0068C22.2337 26.8229 22.4324 26.6906 22.657 26.6299C22.8008 26.5877 22.9319 26.5105 23.0385 26.4052C23.1452 26.3 23.2241 26.1699 23.2682 26.0267L28.5989 8.58081C28.6289 8.48062 28.6256 8.37341 28.5895 8.27523C28.5535 8.17706 28.4866 8.09322 28.3989 8.03627L22.1055 3.99147C22.0577 3.96063 22.0008 3.94718 21.9443 3.9534C21.8877 3.95962 21.8351 3.98512 21.7951 4.02561L20.6437 5.17707C20.5437 5.2771 20.408 5.33331 20.2666 5.33334H11.7333C11.5918 5.33331 11.4562 5.2771 11.3562 5.17707L10.2021 4.02241C10.1555 3.97581 10.0924 3.94954 10.0266 3.94934C9.97896 3.94955 9.93236 3.96323 9.89219 3.98881L3.59885 8.03361C3.51106 8.09049 3.44411 8.17433 3.40804 8.27252C3.37198 8.37071 3.36875 8.47796 3.39885 8.57814L8.73218 26.024C8.77585 26.1677 8.8545 26.2982 8.96109 26.404C9.06768 26.5097 9.19886 26.5873 9.34285 26.6299ZM6.93325 10.6667C6.93239 9.89266 7.17237 9.13755 7.61991 8.50604C8.06745 7.87452 8.70039 7.3979 9.43096 7.14224C10.1615 6.88659 10.9536 6.86456 11.6972 7.07923C12.4409 7.29389 13.0993 7.73461 13.5813 8.34027L19.6079 9.49281C20.4721 9.03968 21.4795 8.94329 22.4139 9.22432C23.3484 9.50535 24.1355 10.1414 24.6064 10.996C25.0773 11.8507 25.1945 12.8559 24.9329 13.7959C24.6712 14.736 24.0516 15.5361 23.2069 16.0245L20.7434 20.64C20.7791 20.8694 20.798 21.1012 20.7999 21.3333C20.8021 22.0375 20.6493 22.7334 20.3524 23.3719C20.0555 24.0104 19.6217 24.5757 19.0819 25.0278C18.5421 25.4799 17.9095 25.8077 17.2288 25.988C16.5481 26.1683 15.8361 26.1966 15.1433 26.0709C14.4505 25.9453 13.7938 25.6687 13.2198 25.2609C12.6458 24.853 12.1686 24.3239 11.8219 23.711C11.4753 23.0982 11.2677 22.4165 11.214 21.7144C11.1602 21.0124 11.2616 20.3071 11.5109 19.6485L9.16419 14.0827C8.50127 13.7907 7.93749 13.3125 7.54141 12.706C7.14534 12.0995 6.93405 11.391 6.93325 10.6667Z" fill="#0070F0" fill-opacity="0.9"/>
<path d="M15.9999 17.6C15.2616 17.6 14.5398 17.8189 13.9258 18.2292C13.3119 18.6394 12.8334 19.2224 12.5508 19.9046C12.2682 20.5868 12.1943 21.3374 12.3383 22.0616C12.4824 22.7858 12.838 23.4511 13.3601 23.9732C13.8822 24.4953 14.5474 24.8508 15.2716 24.9949C15.9958 25.139 16.7464 25.065 17.4286 24.7825C18.1108 24.4999 18.6939 24.0214 19.1041 23.4074C19.5143 22.7935 19.7333 22.0717 19.7333 21.3333C19.732 20.3436 19.3383 19.3947 18.6384 18.6948C17.9385 17.995 16.9897 17.6012 15.9999 17.6ZM15.9999 23.4666C15.578 23.4666 15.1655 23.3415 14.8147 23.1071C14.4639 22.8727 14.1905 22.5395 14.029 22.1497C13.8675 21.7599 13.8253 21.3309 13.9076 20.9171C13.9899 20.5033 14.1931 20.1232 14.4914 19.8248C14.7898 19.5265 15.1699 19.3233 15.5837 19.241C15.9976 19.1587 16.4265 19.2009 16.8163 19.3624C17.2061 19.5238 17.5393 19.7973 17.7737 20.1481C18.0082 20.4989 18.1333 20.9114 18.1333 21.3333C18.1333 21.8991 17.9085 22.4417 17.5084 22.8418C17.1084 23.2419 16.5657 23.4666 15.9999 23.4666Z" fill="#0070F0" fill-opacity="0.9"/>
<path d="M16 22.4C16.5891 22.4 17.0667 21.9224 17.0667 21.3333C17.0667 20.7442 16.5891 20.2667 16 20.2667C15.4109 20.2667 14.9333 20.7442 14.9333 21.3333C14.9333 21.9224 15.4109 22.4 16 22.4Z" fill="#0070F0" fill-opacity="0.9"/>
<path d="M2.30515 5.02824L7.68008 1.55464C7.52652 1.3171 7.28489 1.15028 7.00835 1.09088C6.73181 1.03147 6.44299 1.08433 6.20542 1.23784L2.62035 3.55197C2.50267 3.6281 2.40115 3.72667 2.32159 3.84205C2.24203 3.95743 2.18598 4.08736 2.15666 4.22441C2.12734 4.36146 2.12531 4.50294 2.1507 4.64078C2.17609 4.77861 2.22839 4.91009 2.30461 5.0277L2.30515 5.02824Z" fill="#0070F0" fill-opacity="0.9"/>
<path d="M29.1164 5.92428L23.7404 2.45068L23.1377 3.38295L28.5217 6.84428L29.1164 5.92428Z" fill="#0070F0" fill-opacity="0.9"/>
<path d="M10.6666 11.2C10.9612 11.2 11.2 10.9612 11.2 10.6667C11.2 10.3721 10.9612 10.1334 10.6666 10.1334C10.3721 10.1334 10.1333 10.3721 10.1333 10.6667C10.1333 10.9612 10.3721 11.2 10.6666 11.2Z" fill="#0070F0" fill-opacity="0.9"/>
<path d="M13.3333 10.6667C13.3333 10.1393 13.1769 9.62368 12.8839 9.18515C12.5909 8.74662 12.1744 8.40482 11.6872 8.20299C11.1999 8.00116 10.6637 7.94835 10.1464 8.05124C9.62914 8.15413 9.15399 8.40811 8.78105 8.78105C8.40811 9.15399 8.15413 9.62914 8.05124 10.1464C7.94835 10.6637 8.00116 11.1999 8.20299 11.6872C8.40482 12.1744 8.74662 12.5909 9.18515 12.8839C9.62368 13.1769 10.1393 13.3333 10.6667 13.3333C11.3737 13.3325 12.0514 13.0513 12.5514 12.5514C13.0513 12.0514 13.3325 11.3737 13.3333 10.6667ZM9.06667 10.6667C9.06667 10.3502 9.16051 10.0409 9.33632 9.77776C9.51213 9.51464 9.76201 9.30956 10.0544 9.18846C10.3467 9.06736 10.6684 9.03568 10.9788 9.09741C11.2892 9.15915 11.5743 9.31153 11.798 9.5353C12.0218 9.75906 12.1742 10.0442 12.2359 10.3545C12.2977 10.6649 12.266 10.9866 12.1449 11.279C12.0238 11.5713 11.8187 11.8212 11.5556 11.997C11.2925 12.1728 10.9831 12.2667 10.6667 12.2667C10.2423 12.2667 9.83536 12.0981 9.5353 11.798C9.23524 11.498 9.06667 11.091 9.06667 10.6667Z" fill="#0070F0" fill-opacity="0.9"/>
<path d="M10.6667 14.4C10.5947 14.4 10.5243 14.3931 10.4534 14.3893L12.167 18.4565C12.6572 17.7998 13.3079 17.28 14.0566 16.9469C14.8053 16.6137 15.627 16.4784 16.4431 16.5539C17.2591 16.6294 18.0421 16.9131 18.717 17.3779C19.3919 17.8427 19.9362 18.4731 20.2976 19.2085L21.7376 16.5104C20.9931 16.5926 20.2411 16.4487 19.5796 16.0973C18.9181 15.7459 18.3778 15.2035 18.0291 14.5406C17.6803 13.8777 17.5394 13.1251 17.6246 12.3809C17.7098 11.6367 18.0172 10.9355 18.5067 10.3685L14.2294 9.55042C14.4045 10.1095 14.4457 10.7019 14.3495 11.2798C14.2533 11.8577 14.0224 12.4048 13.6755 12.877C13.3287 13.3491 12.8756 13.733 12.3529 13.9976C11.8302 14.2622 11.2526 14.4 10.6667 14.4Z" fill="#0070F0" fill-opacity="0.9"/>
<path d="M21.3334 15.4667C21.8608 15.4667 22.3764 15.3103 22.8149 15.0173C23.2535 14.7243 23.5953 14.3078 23.7971 13.8205C23.9989 13.3333 24.0517 12.7971 23.9488 12.2798C23.846 11.7625 23.592 11.2874 23.219 10.9144C22.8461 10.5415 22.3709 10.2875 21.8537 10.1846C21.3364 10.0817 20.8002 10.1345 20.3129 10.3364C19.8257 10.5382 19.4092 10.88 19.1162 11.3185C18.8231 11.757 18.6667 12.2726 18.6667 12.8C18.6676 13.507 18.9488 14.1848 19.4487 14.6847C19.9486 15.1846 20.6264 15.4658 21.3334 15.4667ZM21.3334 11.2C21.6499 11.2 21.9592 11.2939 22.2223 11.4697C22.4855 11.6455 22.6905 11.8954 22.8116 12.1877C22.9327 12.4801 22.9644 12.8018 22.9027 13.1122C22.8409 13.4225 22.6886 13.7076 22.4648 13.9314C22.241 14.1552 21.9559 14.3076 21.6456 14.3693C21.3352 14.431 21.0135 14.3993 20.7211 14.2782C20.4288 14.1571 20.1789 13.9521 20.0031 13.6889C19.8273 13.4258 19.7334 13.1165 19.7334 12.8C19.7334 12.3757 19.902 11.9687 20.202 11.6687C20.5021 11.3686 20.9091 11.2 21.3334 11.2Z" fill="#0070F0" fill-opacity="0.9"/>
<path d="M21.3334 13.3333C21.6279 13.3333 21.8667 13.0945 21.8667 12.8C21.8667 12.5054 21.6279 12.2667 21.3334 12.2667C21.0388 12.2667 20.8 12.5054 20.8 12.8C20.8 13.0945 21.0388 13.3333 21.3334 13.3333Z" fill="#0070F0" fill-opacity="0.9"/>
</svg>
