<svg width="170" height="72" viewBox="0 0 170 72" fill="none" xmlns="http://www.w3.org/2000/svg">
<g clip-path="url(#clip0_1_2893)">
<rect width="111" height="20" transform="translate(29 26)" fill="white"/>
<path d="M127.27 26.5283H125.461C125.351 26.5283 125.26 26.6224 125.26 26.7359V35.4884C125.26 38.5412 124.095 40.0237 121.693 40.0237C119.32 40.0237 118.168 38.5412 118.168 35.4884V26.7359C118.168 26.6224 118.077 26.5283 117.968 26.5283H116.158C116.048 26.5283 115.957 26.6224 115.957 26.7359V35.3814C115.957 39.8161 117.939 42.1615 121.691 42.1615C125.47 42.1615 127.465 39.8161 127.465 35.3814V26.7359C127.467 26.6224 127.38 26.5283 127.27 26.5283Z" fill="black"/>
<path d="M134.699 29.6857C133.287 29.6857 132.079 30.2372 131.196 31.2818L131.03 29.9939C131.017 29.89 130.933 29.8154 130.832 29.8154H129.355C129.245 29.8154 129.154 29.9095 129.154 30.0231V45.3124C129.154 45.4259 129.245 45.52 129.355 45.52H131.061C131.171 45.52 131.262 45.4259 131.262 45.3124V39.9467C132.048 40.8518 133.263 41.3481 134.703 41.3481C137.822 41.3481 140.001 38.9508 140.001 35.5153C139.998 31.9727 137.918 29.6857 134.699 29.6857ZM137.85 35.5185C137.85 37.8185 136.516 39.3628 134.534 39.3628C132.561 39.3628 131.236 37.7991 131.236 35.4731C131.236 33.2347 132.593 31.671 134.534 31.671C136.519 31.671 137.85 33.2185 137.85 35.5185Z" fill="black"/>
<path d="M70.2504 28.1985C72.3859 28.1985 73.9077 29.3599 74.4274 31.3874C74.4494 31.4783 74.5308 31.5399 74.6216 31.5399H76.4314C76.4909 31.5399 76.5473 31.514 76.5849 31.4653C76.6225 31.4199 76.6381 31.3582 76.6288 31.2966C76.0683 28.0688 73.6572 26.0607 70.3349 26.0607C66.0577 26.0607 63.1863 29.2301 63.1863 33.9438C63.1863 38.7321 65.9919 41.8236 70.3349 41.8236C73.6447 41.8236 76.0495 39.8188 76.6068 36.5877C76.6162 36.5261 76.6006 36.4644 76.563 36.419C76.5254 36.3736 76.469 36.3444 76.4095 36.3444H74.5997C74.5089 36.3444 74.4306 36.4093 74.4056 36.4968C73.8857 38.5212 72.3734 39.6826 70.2504 39.6826C67.3696 39.6826 65.4346 37.376 65.4346 33.9406C65.4346 30.5051 67.3728 28.1985 70.2504 28.1985Z" fill="black"/>
<path d="M79.3046 26.042C78.5625 26.042 78.002 26.6227 78.002 27.3915C78.002 28.1604 78.5625 28.7411 79.3046 28.7411C80.0467 28.7411 80.6071 28.1604 80.6071 27.3915C80.6071 26.6227 80.0467 26.042 79.3046 26.042Z" fill="black"/>
<path d="M80.154 30.2882H78.4475C78.3379 30.2882 78.2471 30.3823 78.2471 30.4958V41.49C78.2471 41.6035 78.3379 41.6976 78.4475 41.6976H80.154C80.2636 41.6976 80.3544 41.6035 80.3544 41.49V30.4926C80.3544 30.379 80.2636 30.2882 80.154 30.2882Z" fill="black"/>
<path d="M87.8812 30.2884H87.4022C85.6017 30.2884 84.7814 31.0053 84.3242 31.6055L84.1676 30.4636C84.152 30.363 84.0674 30.2852 83.9704 30.2852H82.4924C82.3828 30.2852 82.292 30.3792 82.292 30.4928V41.4869C82.292 41.6005 82.3828 41.6946 82.4924 41.6946H84.1989C84.3085 41.6946 84.3993 41.6005 84.3993 41.4869V35.8844C84.3993 34.5933 84.7406 32.4262 87.0296 32.4262H87.8812C87.9908 32.4262 88.0816 32.3322 88.0816 32.2186V30.4928C88.0816 30.3792 87.9939 30.2884 87.8812 30.2884Z" fill="black"/>
<path d="M93.6161 32.1435C95.0033 32.1435 96.0616 32.9675 96.3779 34.291C96.3998 34.3851 96.4781 34.45 96.572 34.45H98.3005C98.3598 34.45 98.4164 34.424 98.4536 34.3754C98.4915 34.3299 98.5074 34.2683 98.4977 34.2067C98.053 31.6698 96.2526 30.1581 93.6819 30.1581C90.4379 30.1581 88.2585 32.4938 88.2585 35.9682C88.2585 39.4686 90.4128 41.8238 93.6192 41.8238C96.2088 41.8238 98.0344 40.2926 98.4977 37.733C98.5101 37.6714 98.4943 37.6097 98.4536 37.5611C98.4129 37.5124 98.3598 37.4864 98.3005 37.4864H96.594C96.5 37.4864 96.4186 37.5546 96.3998 37.6487C96.1023 39.0177 95.0659 39.8384 93.6192 39.8384C91.6966 39.8384 90.4066 38.2845 90.4066 35.9714C90.4035 33.6812 91.6967 32.1435 93.6161 32.1435Z" fill="black"/>
<path d="M101.975 26.5547H100.269C100.159 26.5547 100.068 26.6488 100.068 26.7623V41.4872C100.068 41.6007 100.159 41.6948 100.269 41.6948H101.975C102.085 41.6948 102.176 41.6007 102.176 41.4872V26.7623C102.176 26.6488 102.085 26.5547 101.975 26.5547Z" fill="black"/>
<path d="M108.559 30.1581C105.428 30.1581 103.324 32.5035 103.324 35.9909C103.324 39.4783 105.518 41.8238 108.788 41.8238C111.255 41.8238 113.146 40.2602 113.604 37.8401C113.616 37.7784 113.601 37.7168 113.563 37.6681C113.526 37.6194 113.469 37.5935 113.41 37.5935H111.681C111.59 37.5935 111.512 37.6584 111.487 37.7492C111.162 39.0566 110.106 39.8352 108.662 39.8352C106.828 39.8352 105.601 38.5472 105.516 36.5489L113.554 36.5392C113.654 36.5392 113.745 36.4484 113.754 36.3348C113.772 36.0817 113.795 35.819 113.795 35.5724C113.71 32.283 111.656 30.1581 108.559 30.1581ZM111.599 34.6641H105.644C105.888 33.188 107.11 32.124 108.578 32.124C110.222 32.124 111.371 33.094 111.599 34.6641Z" fill="black"/>
<path fill-rule="evenodd" clip-rule="evenodd" d="M36.6354 26.0011C32.4248 26.0011 29 29.5501 29 33.9134C29 38.2767 32.4248 41.8225 36.6354 41.8225C40.846 41.8225 44.2709 38.2735 44.2709 33.9102C44.2709 29.5469 40.8429 26.0011 36.6354 26.0011Z" fill="black"/>
<path fill-rule="evenodd" clip-rule="evenodd" d="M59.5395 34.4056L52.9547 26.2739C52.6597 25.9103 52.1161 25.9071 51.8211 26.2739L45.2208 34.4056C45.0189 34.6534 45.1898 35.0299 45.5035 35.0299H47.1341C47.4137 35.0299 47.6094 34.8529 47.6994 34.7402L50.9017 30.9431C51.0322 30.7887 51.2775 30.8852 51.2775 31.0879V41.3949C51.2775 41.662 51.4856 41.8776 51.7434 41.8776H53.0169C53.2746 41.8776 53.4828 41.662 53.4828 41.3949V31.0751C53.4828 30.8691 53.7282 30.7726 53.8586 30.9302L57.0733 34.7596C57.1665 34.8722 57.3435 35.0331 57.6976 35.0331H59.2568C59.5705 35.0331 59.7413 34.6534 59.5395 34.4056Z" fill="black"/>
</g>
<defs>
<clipPath id="clip0_1_2893">
<rect width="111" height="20" fill="white" transform="translate(29 26)"/>
</clipPath>
</defs>
</svg>
