<svg width="30" height="30" viewBox="0 0 30 30" fill="none" xmlns="http://www.w3.org/2000/svg">
<path d="M20.854 5.01599C20.7183 4.02408 20.3285 3.08406 19.7226 2.28708C19.1167 1.4901 18.3151 0.863207 17.3956 0.467173C16.4761 0.0711384 15.4699 -0.0805962 14.4745 0.0266808C13.4791 0.133958 12.5283 0.496607 11.7143 1.07947C10.9003 1.66232 10.2507 2.44562 9.82856 3.3534C9.40636 4.26118 9.22588 5.26265 9.30462 6.2607C9.38336 7.25876 9.71864 8.21954 10.278 9.04988C10.8373 9.88023 11.6017 10.552 12.497 11L12.003 11.9275C11.9618 12.0052 11.9415 12.0923 11.9438 12.1802C11.9462 12.2681 11.9712 12.354 12.0165 12.4294C12.0617 12.5048 12.1257 12.5673 12.2021 12.6107C12.2786 12.6542 12.365 12.6772 12.453 12.6775H17.547C17.6301 12.6768 17.7119 12.6559 17.7852 12.6166C17.8585 12.5773 17.9211 12.5208 17.9677 12.4519C18.0144 12.3831 18.0436 12.3039 18.0528 12.2213C18.0621 12.1386 18.0512 12.055 18.021 11.9775L17.6435 11.0245C18.7425 10.4878 19.6443 9.61832 20.2207 8.5396C20.7971 7.46088 21.0187 6.22789 20.854 5.01599ZM13.4705 2.48349C13.5714 2.48339 13.6701 2.51323 13.754 2.56923C13.838 2.62523 13.9034 2.70488 13.9421 2.79809C13.9807 2.8913 13.9909 2.99389 13.9712 3.09286C13.9515 3.19184 13.903 3.28276 13.8316 3.35411C13.7602 3.42547 13.6693 3.47405 13.5704 3.49371C13.4714 3.51338 13.3688 3.50323 13.2756 3.46457C13.1824 3.42591 13.1027 3.36046 13.0467 3.27652C12.9907 3.19257 12.9609 3.0939 12.961 2.99299C12.9615 2.85802 13.0154 2.72874 13.1108 2.6333C13.2062 2.53786 13.3355 2.48402 13.4705 2.48349ZM16.528 8.08899H15.5085V11.656H14.4895V8.08899H13.4705C13.3354 8.08899 13.2058 8.03531 13.1102 7.93976C13.0147 7.84421 12.961 7.71462 12.961 7.57949C12.961 7.44436 13.0147 7.31477 13.1102 7.21922C13.2058 7.12367 13.3354 7.06999 13.4705 7.06999H16.528C16.6631 7.06999 16.7927 7.12367 16.8882 7.21922C16.9838 7.31477 17.0375 7.44436 17.0375 7.57949C17.0375 7.71462 16.9838 7.84421 16.8882 7.93976C16.7927 8.03531 16.6631 8.08899 16.528 8.08899ZM18.393 5.85699H18.3265C18.2038 5.85689 18.0852 5.81255 17.9925 5.7321C17.8999 5.65165 17.8393 5.54048 17.822 5.41899C17.7364 4.8191 17.4554 4.26418 17.0224 3.84029C16.5893 3.4164 16.0286 3.14722 15.427 3.07449C15.2926 3.05842 15.1701 2.99004 15.0858 2.88418C15.0016 2.77831 14.9625 2.6435 14.977 2.50899C14.9842 2.44213 15.0047 2.37738 15.0371 2.31848C15.0696 2.25958 15.1134 2.2077 15.1661 2.16585C15.2187 2.124 15.2791 2.093 15.3438 2.07466C15.4085 2.05632 15.4762 2.05099 15.543 2.05899C16.3685 2.16013 17.1378 2.53038 17.7318 3.11249C18.3258 3.6946 18.7116 4.45617 18.8295 5.27949C18.8389 5.34608 18.835 5.41388 18.8181 5.47898C18.8012 5.54408 18.7717 5.60521 18.7311 5.65886C18.6906 5.71251 18.6398 5.75763 18.5818 5.79163C18.5238 5.82563 18.4596 5.84784 18.393 5.85699Z" fill="#0070F0" fill-opacity="0.9"/>
<path d="M19.5443 20.879C19.4448 20.8798 19.3472 20.8512 19.2638 20.7969C19.1804 20.7425 19.1148 20.6648 19.0753 20.5735L17.6903 17.6305C17.6807 17.6099 17.6643 17.5932 17.6439 17.5832C17.6235 17.5732 17.6003 17.5704 17.5781 17.5754C17.5559 17.5803 17.536 17.5927 17.5218 17.6104C17.5076 17.6282 17.4999 17.6502 17.4998 17.673V28.9765L16.4998 28.9865V17.7365C16.4998 17.7145 16.4925 17.6931 16.4791 17.6757C16.4657 17.6583 16.447 17.6457 16.4257 17.64C16.4045 17.6344 16.382 17.6358 16.3617 17.6442C16.3414 17.6526 16.3244 17.6674 16.3133 17.6865L14.6133 20.6365C14.567 20.7111 14.5024 20.7727 14.4257 20.8154C14.349 20.8582 14.2627 20.8808 14.1748 20.881H3.12085V29.4605C3.12125 29.5955 3.17505 29.7248 3.27052 29.8203C3.36598 29.9158 3.49534 29.9696 3.63035 29.97H26.9328C27.0679 29.9696 27.1973 29.9158 27.2929 29.8203C27.3884 29.7249 27.4423 29.5955 27.4428 29.4605V20.879H19.5443ZM10.9223 27.2C10.9223 27.2334 10.9157 27.2666 10.9029 27.2975C10.8901 27.3284 10.8713 27.3565 10.8476 27.3801C10.8239 27.4037 10.7958 27.4225 10.7649 27.4352C10.734 27.448 10.7008 27.4545 10.6673 27.4545H7.09985C7.03235 27.4545 6.96762 27.4276 6.91989 27.3799C6.87216 27.3322 6.84535 27.2675 6.84535 27.2V25.669C6.84535 25.6015 6.87216 25.5367 6.91989 25.489C6.96762 25.4413 7.03235 25.4145 7.09985 25.4145H10.6668C10.7003 25.4144 10.7335 25.4209 10.7644 25.4337C10.7953 25.4464 10.8234 25.4652 10.8471 25.4888C10.8708 25.5125 10.8896 25.5405 10.9024 25.5714C10.9152 25.6024 10.9218 25.6355 10.9218 25.669L10.9223 27.2ZM19.0753 24.905H20.6043C20.7395 24.905 20.8691 24.9586 20.9646 25.0542C21.0602 25.1497 21.1138 25.2793 21.1138 25.4145C21.1138 25.5496 21.0602 25.6792 20.9646 25.7747C20.8691 25.8703 20.7395 25.924 20.6043 25.924H19.0753C18.9402 25.924 18.8106 25.8703 18.7151 25.7747C18.6195 25.6792 18.5658 25.5496 18.5658 25.4145C18.5658 25.2793 18.6195 25.1497 18.7151 25.0542C18.8106 24.9586 18.9402 24.905 19.0753 24.905ZM21.6253 27.9625H19.0753C18.9429 27.9583 18.8173 27.9028 18.7251 27.8076C18.6329 27.7125 18.5813 27.5852 18.5813 27.4527C18.5813 27.3202 18.6329 27.1929 18.7251 27.0978C18.8173 27.0026 18.9429 26.9471 19.0753 26.943H21.6253C21.7578 26.9471 21.8834 27.0026 21.9756 27.0978C22.0678 27.1929 22.1194 27.3202 22.1194 27.4527C22.1194 27.5852 22.0678 27.7125 21.9756 27.8076C21.8834 27.9028 21.7578 27.9583 21.6253 27.9625Z" fill="#0070F0" fill-opacity="0.9"/>
<path d="M25.1905 7.06998H22.6405C22.5081 7.06583 22.3825 7.0103 22.2903 6.91516C22.198 6.82002 22.1465 6.69272 22.1465 6.56023C22.1465 6.42773 22.198 6.30044 22.2903 6.20529C22.3825 6.11015 22.5081 6.05462 22.6405 6.05048H25.1905C25.3229 6.05462 25.4486 6.11015 25.5408 6.20529C25.633 6.30044 25.6846 6.42773 25.6846 6.56023C25.6846 6.69272 25.633 6.82002 25.5408 6.91516C25.4486 7.0103 25.3229 7.06583 25.1905 7.06998Z" fill="#0070F0" fill-opacity="0.9"/>
<path d="M22.5066 3.89398C22.4058 3.89383 22.3074 3.86386 22.2237 3.80784C22.14 3.75182 22.0747 3.67227 22.0362 3.57921C21.9976 3.48616 21.9875 3.38376 22.007 3.28495C22.0266 3.18614 22.075 3.09533 22.1461 3.02398L23.9461 1.22398C24.0419 1.13013 24.171 1.0779 24.3052 1.07862C24.4393 1.07934 24.5678 1.13296 24.6627 1.22784C24.7576 1.32272 24.8112 1.45119 24.8119 1.58537C24.8126 1.71954 24.7604 1.84859 24.6665 1.94448L22.8666 3.74448C22.8194 3.79188 22.7633 3.82948 22.7015 3.85514C22.6397 3.88079 22.5735 3.89399 22.5066 3.89398Z" fill="#0070F0" fill-opacity="0.9"/>
<path d="M24.3076 12.047C24.2406 12.047 24.1744 12.0337 24.1126 12.008C24.0508 11.9822 23.9947 11.9445 23.9476 11.897L22.1476 10.097C22.0537 10.0011 22.0015 9.87207 22.0022 9.7379C22.0029 9.60372 22.0565 9.47525 22.1514 9.38037C22.2463 9.28549 22.3748 9.23187 22.509 9.23115C22.6431 9.23042 22.7722 9.28266 22.8681 9.37651L24.6681 11.1765C24.7394 11.2478 24.788 11.3386 24.8077 11.4375C24.8274 11.5364 24.8173 11.6389 24.7787 11.7321C24.7401 11.8252 24.6747 11.9048 24.5909 11.9608C24.507 12.0168 24.4084 12.0466 24.3076 12.0465V12.047Z" fill="#0070F0" fill-opacity="0.9"/>
<path d="M7.35556 7.06998H4.80556C4.67313 7.06583 4.54751 7.0103 4.4553 6.91516C4.36309 6.82002 4.31152 6.69272 4.31152 6.56023C4.31152 6.42773 4.36309 6.30044 4.4553 6.20529C4.54751 6.11015 4.67313 6.05462 4.80556 6.05048H7.35556C7.48799 6.05462 7.61361 6.11015 7.70582 6.20529C7.79803 6.30044 7.84959 6.42773 7.84959 6.56023C7.84959 6.69272 7.79803 6.82002 7.70582 6.91516C7.61361 7.0103 7.48799 7.06583 7.35556 7.06998Z" fill="#0070F0" fill-opacity="0.9"/>
<path d="M7.49184 3.89398C7.42483 3.89396 7.35849 3.8807 7.29662 3.85496C7.23476 3.82922 7.17859 3.7915 7.13134 3.74398L5.33134 1.94398C5.24168 1.84749 5.19287 1.72004 5.19514 1.58834C5.19742 1.45665 5.25061 1.33096 5.34355 1.23763C5.43649 1.1443 5.56196 1.09059 5.69364 1.08776C5.82533 1.08494 5.95299 1.13322 6.04984 1.22248L7.84984 3.02248C7.92092 3.0938 7.96929 3.18456 7.98887 3.28332C8.00844 3.38209 7.99834 3.48444 7.95985 3.57748C7.92135 3.67051 7.85617 3.75007 7.77253 3.80613C7.68889 3.86219 7.59053 3.89223 7.48984 3.89248L7.49184 3.89398Z" fill="#0070F0" fill-opacity="0.9"/>
<path d="M5.69038 12.047C5.58954 12.0471 5.49095 12.0173 5.40708 11.9613C5.3232 11.9053 5.25783 11.8257 5.21923 11.7325C5.18063 11.6394 5.17054 11.5369 5.19024 11.438C5.20993 11.3391 5.25853 11.2483 5.32988 11.177L7.12988 9.377C7.22672 9.28878 7.35381 9.24125 7.48477 9.24428C7.61573 9.2473 7.74049 9.30065 7.83315 9.39325C7.92581 9.48584 7.97924 9.61057 7.98236 9.74152C7.98548 9.87248 7.93803 9.99961 7.84988 10.0965L6.04988 11.8965C6.00285 11.9441 5.94687 11.9819 5.88517 12.0077C5.82347 12.0335 5.75727 12.0469 5.69038 12.047Z" fill="#0070F0" fill-opacity="0.9"/>
<path d="M27.9675 15.0445C27.9276 14.9552 27.8627 14.8793 27.7806 14.826C27.6985 14.7728 27.6028 14.7445 27.505 14.7445H18.0549V14.1C18.04 13.979 17.9784 13.8686 17.8832 13.7923C17.788 13.7161 17.6668 13.6801 17.5454 13.692H12.4499C12.3286 13.6801 12.2074 13.7161 12.1122 13.7923C12.017 13.8686 11.9554 13.979 11.9404 14.1V14.742H3.31944C3.23167 14.7422 3.1454 14.7647 3.06877 14.8075C2.99213 14.8503 2.92766 14.9119 2.88144 14.9865L0.16494 19.4735C0.141675 19.5121 0.129081 19.5563 0.128443 19.6014C0.127806 19.6465 0.139148 19.691 0.161312 19.7303C0.183476 19.7696 0.215669 19.8023 0.254604 19.8251C0.29354 19.8478 0.337825 19.8599 0.38294 19.86H13.7444C13.7883 19.86 13.8314 19.8487 13.8696 19.8271C13.9078 19.8056 13.9398 19.7745 13.9624 19.737L16.2904 15.887C16.3131 15.8495 16.3451 15.8184 16.3833 15.7969C16.4215 15.7753 16.4646 15.764 16.5084 15.764H17.9154C17.9647 15.7639 18.0129 15.778 18.0543 15.8046C18.0957 15.8312 18.1286 15.8692 18.149 15.914L19.809 19.706C19.8292 19.7509 19.8621 19.7889 19.9035 19.8155C19.9449 19.8421 19.9932 19.8562 20.0424 19.856H29.716C29.7582 19.8561 29.7999 19.8457 29.8371 19.8256C29.8744 19.8056 29.906 19.7766 29.9292 19.7413C29.9525 19.7059 29.9665 19.6654 29.9701 19.6232C29.9738 19.5811 29.9668 19.5388 29.95 19.5L27.9675 15.0445Z" fill="#0070F0" fill-opacity="0.9"/>
</svg>
