<svg width="170" height="72" viewBox="0 0 170 72" fill="none" xmlns="http://www.w3.org/2000/svg">
<g filter="url(#filter0_d_1_2884)">
<g clip-path="url(#clip0_1_2884)">
<rect width="94" height="30" transform="translate(38 21)" fill="white"/>
<path d="M49.5757 21.0038H50.4117C53.3137 21.0655 56.1684 22.2067 58.2187 24.2269C57.4617 24.9825 56.6888 25.7073 55.9476 26.463C54.7962 25.4452 53.4083 24.6587 51.8942 24.3811C49.6546 23.9184 47.2415 24.3348 45.3647 25.584C43.3143 26.8948 41.9264 29.1155 41.6268 31.4904C41.2955 33.8344 41.9737 36.3019 43.5351 38.1216C45.0335 39.895 47.3204 41.0054 49.6862 41.0825C51.8942 41.2059 54.1969 40.5427 55.8056 39.0314C57.0674 37.9674 57.6509 36.3481 57.8402 34.7751C55.2221 34.7751 52.6039 34.7906 49.9858 34.7751V31.5983H61.0103C61.5781 35.0064 60.758 38.8464 58.1083 41.283C56.3419 43.0102 53.8972 44.028 51.4053 44.2285C48.9922 44.4598 46.5002 44.0126 44.3553 42.8714C41.7845 41.5297 39.7341 39.2628 38.7247 36.5949C37.7784 34.1428 37.7627 31.367 38.6459 28.8996C39.4502 26.648 40.9959 24.6587 42.9831 23.2707C44.8915 21.8982 47.21 21.1426 49.5757 21.0038Z" fill="#3780FF"/>
<path d="M112.821 21.8041H116.196V43.8259C115.076 43.8259 113.941 43.8413 112.821 43.8105C112.837 36.4853 112.821 29.1447 112.821 21.8041Z" fill="#38B137"/>
<path d="M68.5192 29.4386C70.6011 29.053 72.8564 29.4848 74.5756 30.7031C76.137 31.7826 77.2252 33.479 77.5565 35.3295C77.9823 37.4731 77.4461 39.8172 76.0266 41.5135C74.4967 43.4104 71.989 44.4282 69.5443 44.274C67.3047 44.1506 65.1282 43.0557 63.8034 41.2668C62.3051 39.2928 61.9423 36.5787 62.7624 34.2655C63.5826 31.7826 65.901 29.8858 68.5192 29.4386ZM68.9923 32.3686C68.1407 32.5845 67.3521 33.0626 66.7843 33.7411C65.2544 35.53 65.349 38.4447 67.0366 40.1102C67.9987 41.0663 69.4497 41.5135 70.7903 41.2514C72.0363 41.0355 73.1246 40.2181 73.7239 39.1386C74.7648 37.3035 74.4652 34.7744 72.8722 33.3402C71.847 32.4149 70.3487 32.0294 68.9923 32.3686Z" fill="#FA3913"/>
<path d="M85.2361 29.4377C87.6177 28.9905 90.22 29.6382 92.0022 31.2729C94.9042 33.8174 95.2197 38.5826 92.7435 41.5127C91.2452 43.3633 88.8163 44.3811 86.419 44.2732C84.1321 44.2115 81.8767 43.1011 80.5204 41.266C78.9905 39.2458 78.6593 36.4699 79.5267 34.1104C80.3942 31.7047 82.6653 29.8695 85.2361 29.4377ZM85.7093 32.3678C84.8576 32.5837 84.069 33.0618 83.5012 33.7249C81.9871 35.4829 82.0502 38.3513 83.6747 40.0323C84.6368 41.0347 86.1351 41.5281 87.523 41.2506C88.7532 41.0192 89.8573 40.2173 90.4566 39.1378C91.4818 37.2872 91.1821 34.7581 89.5734 33.3239C88.5482 32.3987 87.0499 32.0285 85.7093 32.3678Z" fill="#FCBD06"/>
<path d="M99.4167 30.3323C101.23 29.222 103.644 28.9135 105.599 29.8697C106.214 30.1318 106.719 30.579 107.208 31.0263C107.224 30.6099 107.208 30.1781 107.224 29.7463C108.28 29.7617 109.337 29.7463 110.41 29.7617V43.3634C110.394 45.4145 109.858 47.5889 108.343 49.0848C106.687 50.7349 104.148 51.2438 101.861 50.9045C99.4167 50.5498 97.2875 48.8072 96.3412 46.6019C97.2875 46.1547 98.2811 45.8 99.259 45.3836C99.811 46.6482 100.931 47.7277 102.334 47.9744C103.738 48.2212 105.363 47.8819 106.277 46.7407C107.255 45.5687 107.255 43.9649 107.208 42.5307C106.482 43.2246 105.647 43.8415 104.637 44.0728C102.445 44.6743 100.032 43.934 98.3442 42.4844C96.6408 41.0348 95.6315 38.7987 95.7261 36.578C95.7734 34.0643 97.2244 31.6431 99.4167 30.3323ZM102.681 32.3062C101.719 32.4605 100.82 32.9848 100.205 33.7096C98.7227 35.4368 98.7227 38.1972 100.221 39.8936C101.073 40.896 102.445 41.4512 103.77 41.3124C105.016 41.189 106.167 40.4179 106.782 39.3539C107.823 37.5495 107.65 35.0975 106.246 33.5245C105.378 32.553 103.99 32.0749 102.681 32.3062Z" fill="#3780FF"/>
<path d="M120.249 31.1193C122.142 29.3921 125.059 28.806 127.488 29.7159C129.791 30.5641 131.258 32.7077 131.999 34.9129C128.577 36.3009 125.17 37.6734 121.747 39.0613C122.22 39.9403 122.946 40.7422 123.924 41.0661C125.296 41.5441 126.936 41.3745 128.088 40.4801C128.545 40.1408 128.908 39.6936 129.255 39.2618C130.122 39.8324 130.99 40.3875 131.857 40.9581C130.627 42.7624 128.561 44.027 126.337 44.2275C123.877 44.5205 121.258 43.5952 119.665 41.7138C117.047 38.7529 117.3 33.7872 120.249 31.1193ZM121.937 33.9722C121.4 34.7279 121.18 35.6532 121.195 36.563C123.482 35.6377 125.769 34.7125 128.056 33.7717C127.678 32.9081 126.763 32.3838 125.832 32.245C124.334 31.9829 122.773 32.7694 121.937 33.9722Z" fill="#FA3913"/>
</g>
</g>
<defs>
<filter id="filter0_d_1_2884" x="34" y="21" width="102" height="38" filterUnits="userSpaceOnUse" color-interpolation-filters="sRGB">
<feFlood flood-opacity="0" result="BackgroundImageFix"/>
<feColorMatrix in="SourceAlpha" type="matrix" values="0 0 0 0 0 0 0 0 0 0 0 0 0 0 0 0 0 0 127 0" result="hardAlpha"/>
<feOffset dy="4"/>
<feGaussianBlur stdDeviation="2"/>
<feComposite in2="hardAlpha" operator="out"/>
<feColorMatrix type="matrix" values="0 0 0 0 0 0 0 0 0 0 0 0 0 0 0 0 0 0 0.25 0"/>
<feBlend mode="normal" in2="BackgroundImageFix" result="effect1_dropShadow_1_2884"/>
<feBlend mode="normal" in="SourceGraphic" in2="effect1_dropShadow_1_2884" result="shape"/>
</filter>
<clipPath id="clip0_1_2884">
<rect width="94" height="30" fill="white" transform="translate(38 21)"/>
</clipPath>
</defs>
</svg>
