<svg width="25" height="24" viewBox="0 0 25 24" fill="none" xmlns="http://www.w3.org/2000/svg">
<rect x="1" y="0.5" width="23" height="23" rx="11.5" stroke="#515458"/>
<path fill-rule="evenodd" clip-rule="evenodd" d="M7.25 8.75C7.25 7.64543 8.14543 6.75 9.25 6.75H15.75C16.8546 6.75 17.75 7.64543 17.75 8.75V15.25C17.75 16.3546 16.8546 17.25 15.75 17.25H9.25C8.14543 17.25 7.25 16.3546 7.25 15.25V8.75ZM12.5 10.15C11.4783 10.15 10.65 10.9783 10.65 12C10.65 13.0217 11.4783 13.85 12.5 13.85C13.5218 13.85 14.35 13.0217 14.35 12C14.35 10.9783 13.5218 10.15 12.5 10.15ZM9.45005 12C9.45005 10.3155 10.8156 8.95 12.5 8.95C14.1845 8.95 15.55 10.3155 15.55 12C15.55 13.6845 14.1845 15.05 12.5 15.05C10.8156 15.05 9.45005 13.6845 9.45005 12ZM15.65 9.55C16.0366 9.55 16.35 9.2366 16.35 8.85C16.35 8.4634 16.0366 8.15 15.65 8.15C15.2634 8.15 14.95 8.4634 14.95 8.85C14.95 9.2366 15.2634 9.55 15.65 9.55Z" fill="#515458"/>
</svg>
