<svg width="170" height="72" viewBox="0 0 170 72" fill="none" xmlns="http://www.w3.org/2000/svg">
<g clip-path="url(#clip0_1_2927)">
<rect width="52.8" height="48" transform="translate(59 12)" fill="white"/>
<path d="M108.117 42.9353L109.789 42.9397C110.272 42.9408 111.001 42.7154 111.481 42.3036C111.133 41.0481 108.851 40.7576 107.904 40.7748L108.117 42.9353Z" fill="#FFCC00" stroke="#B79300" stroke-width="0.8"/>
<path d="M103.623 42.9492L103.553 49.1423L110.054 48.6433C111.063 48.473 111.228 47.9609 111.254 47.3957L111.504 43.2153C111.504 43.2153 111.545 42.5603 111.508 42.3859C111.439 42.0581 111.19 41.9759 110.995 42.1749C110.752 42.4238 110.137 42.8703 109.604 42.866L103.623 42.9492Z" fill="#FFCC00" stroke="#B79300" stroke-width="0.8"/>
<path d="M62.6828 42.9605L61.0112 42.9648C60.5282 42.966 59.7987 42.7406 59.3196 42.3288C59.6673 41.0733 61.949 40.7828 62.8963 40.7999L62.6828 42.9605Z" fill="#FFCC00" stroke="#B79300" stroke-width="0.8"/>
<path d="M67.1789 42.9751L67.2489 49.1682L60.7479 48.6692C59.7385 48.4988 59.5736 47.9868 59.5477 47.4216L59.2976 43.2412C59.2976 43.2412 59.2569 42.5861 59.2937 42.4117C59.3629 42.084 59.6121 42.0017 59.8067 42.2007C60.0501 42.4497 60.6647 42.8962 61.198 42.8919L67.1789 42.9751Z" fill="#FFCC00" stroke="#B79300" stroke-width="0.8"/>
<path fill-rule="evenodd" clip-rule="evenodd" d="M85.23 12.353C84.1454 12.353 83.1326 12.9359 82.5844 13.8755C79.4326 20.6625 77.9918 20.4459 70.9645 20.6661C69.8918 20.7019 68.9264 21.2846 68.4022 22.2003C67.8658 23.128 67.8541 24.2695 68.3786 25.1973C72.4879 31.2662 71.8032 32.4019 68.5929 38.4336C68.0924 39.3613 68.1163 40.4909 68.6524 41.4068C69.1887 42.3223 70.154 42.8934 71.2146 42.9291C78.7735 42.4084 79.2897 43.9412 83.1683 49.9344C83.7404 50.8264 84.6834 51.3496 85.7442 51.3375C86.793 51.3257 87.8165 50.7667 88.3647 49.8749C91.6473 43.2368 92.8348 43.126 99.7222 43.0841C100.807 43.072 101.808 42.4895 102.356 41.5618C102.892 40.6224 102.904 39.4691 102.38 38.5295C98.1509 32.4282 99.214 31.1936 102.368 24.9358C102.845 23.9965 102.797 22.8785 102.26 21.9864C100.03 23.3678 100.03 23.3676 102.26 21.9864C101.724 21.0826 100.759 20.5237 99.7103 20.4998C92.1093 20.9992 91.4763 19.9402 87.8758 13.8517C87.3276 12.9239 86.3146 12.3531 85.23 12.3531V12.353ZM85.242 15.4097C89.1302 21.996 91.3029 24.214 99.6386 23.5566C96.2497 30.2803 94.9589 33.3282 99.6982 40.0157C92.2244 40.0765 89.2581 40.9294 85.7442 48.2811V48.2814C81.5963 41.8381 79.6104 39.2137 71.2981 39.8734C74.7746 33.3418 75.6697 30.3528 71.0599 23.7231C78.6452 23.485 81.8453 22.9546 85.242 15.4098V15.4097Z" fill="#FFCC00"/>
<path fill-rule="evenodd" clip-rule="evenodd" d="M85.3288 14.7303C87.88 21.0563 91.2692 24.4737 99.6375 23.556C96.2486 30.2797 94.9578 33.3276 99.6972 40.0151C92.2234 40.076 89.2571 40.9289 85.7432 48.2805V48.2808C81.5952 41.8375 79.6094 39.2131 71.2971 39.8729C74.7735 33.3412 75.6686 30.3522 71.0588 23.7225C78.6442 23.4845 82.256 22.5776 85.3288 14.7305V14.7303Z" stroke="#B79300" stroke-width="0.8" stroke-linecap="round" stroke-linejoin="round"/>
<path d="M83.1911 42.1174C83.1911 42.1174 83.2122 42.1069 83.2439 42.0964C83.2861 42.0753 83.3388 42.0543 83.4127 42.0121C83.5709 41.9384 83.7925 41.8226 84.0668 41.6647C84.3516 41.5068 84.6787 41.2963 85.0585 41.0436C85.4277 40.7909 85.8392 40.4856 86.2506 40.1171C86.6726 39.7487 87.0946 39.3276 87.506 38.8538C87.9069 38.3695 88.2973 37.8221 88.6138 37.222C88.9303 36.6114 89.1835 35.9481 89.3417 35.2533C89.3628 35.1691 89.3839 35.0743 89.3945 34.9901L89.4367 34.7269C89.4683 34.5479 89.4789 34.369 89.5 34.19L89.5105 34.0531V34.0215C89.5105 34.011 89.5105 34.0215 89.5105 34.0215V34.011V33.9899V33.9162L89.5211 33.632C89.5316 33.4425 89.5211 33.2635 89.5211 33.074C89.5105 32.3371 89.4367 31.5896 89.3312 30.8632C89.2257 30.1368 89.0674 29.4209 88.8986 28.7366C88.5505 27.3679 88.1179 26.1257 87.7065 25.0729C87.2951 24.0201 86.8942 23.1568 86.6093 22.5673C86.4616 22.2725 86.3456 22.0409 86.2612 21.883C86.1768 21.725 86.1346 21.6408 86.1346 21.6408L86.4194 21.4829C86.4194 21.4829 86.4616 21.5671 86.5566 21.725C86.641 21.883 86.7676 22.1146 86.9153 22.4094C87.2212 22.9989 87.6326 23.8622 88.0757 24.915C88.5188 25.9677 88.983 27.2311 89.3628 28.6102C89.7426 29.9894 90.038 31.5054 90.0908 33.053C90.0908 33.2425 90.1013 33.453 90.1013 33.632V33.9162V33.9899V34.011V34.0321V34.0637L90.0908 34.2111C90.0802 34.4111 90.0697 34.6006 90.038 34.7901L89.9958 35.0743C89.9747 35.1691 89.9536 35.2638 89.9431 35.3586C89.7848 36.1166 89.5316 36.843 89.194 37.5062C88.8564 38.159 88.4555 38.7591 88.0335 39.2854C87.6115 39.8118 87.1684 40.2645 86.7359 40.6541C86.3034 41.0436 85.8814 41.3805 85.491 41.6542C85.1007 41.9279 84.7525 42.149 84.4571 42.328C84.1617 42.507 83.9296 42.6333 83.7608 42.7175C83.6764 42.7596 83.6131 42.7912 83.5709 42.8123C83.5287 42.8333 83.4971 42.8438 83.4971 42.8438L83.4654 42.8228C83.2544 42.6859 83.1384 42.4017 83.1911 42.1174H83.1911Z" fill="#FFCC00" stroke="#B79300" stroke-width="0.8" stroke-miterlimit="10" stroke-linejoin="round"/>
<path fill-rule="evenodd" clip-rule="evenodd" d="M85.23 12.3528C84.1455 12.3528 83.1327 12.9356 82.5844 13.8752C79.4326 20.6622 77.9918 20.4456 70.9645 20.6658C69.8918 20.7016 68.9264 21.2842 68.4022 22.1999C67.8658 23.1277 67.8541 24.2692 68.3786 25.197C72.4879 31.2658 71.8032 32.4016 68.5929 38.4332C68.0924 39.361 68.1163 40.4906 68.6524 41.4066C69.1887 42.322 70.154 42.8931 71.2145 42.9288C78.7735 42.408 79.2897 43.9409 83.1683 49.9341C83.7404 50.8261 84.7296 51.3492 85.7905 51.3371C86.8392 51.3253 87.8165 50.7664 88.3647 49.8746C91.6473 43.2365 92.8348 43.1257 99.7222 43.0838C100.807 43.0717 101.808 42.489 102.356 41.5613C102.892 40.622 102.904 39.4688 102.38 38.5293C98.151 32.428 99.2141 31.1934 102.368 24.9356C102.845 23.9963 102.797 22.8782 102.261 21.9862V21.9859C101.725 21.082 100.759 20.5232 99.7103 20.4993C92.1094 20.9987 91.4763 19.9397 87.8758 13.8512C87.3276 12.9234 86.3146 12.3527 85.23 12.3527V12.3528Z" stroke="#B79300" stroke-width="0.8"/>
<path d="M83.7393 38.8445V46.0234H85.3851H87.0414V38.8445H83.7393Z" fill="#FFCC00" stroke="#B79300" stroke-width="0.8" stroke-miterlimit="10"/>
<path d="M87.0279 40.694L83.7786 41.9047L83.8348 42.107L87.0279 40.9151V40.694Z" fill="#B79300"/>
<path d="M83.7615 41.0746L87.0003 39.8639V39.6428L83.7615 40.8535V41.0746Z" fill="#B79300"/>
<path d="M81.4717 17.4077C81.4717 17.4077 86.052 18.4375 86.2502 22.5334L81.4717 17.4077Z" fill="#FFCC00"/>
<path d="M81.4717 17.4077C81.4717 17.4077 86.052 18.4375 86.2502 22.5334" stroke="#B79300" stroke-width="0.8" stroke-miterlimit="10"/>
<path d="M86.2508 22.5334C86.2508 22.5374 86.2508 22.5413 86.2518 22.5453C86.2412 22.5348 83.34 23.1664 81.4727 17.4077" fill="#B79300"/>
<path d="M86.2508 22.5334C86.2508 22.5374 86.2508 22.5413 86.2518 22.5453C86.2412 22.5348 83.34 23.1664 81.4727 17.4077" stroke="#B79300" stroke-width="0.8" stroke-miterlimit="10"/>
<path d="M81.4717 17.4077C83.2975 19.2711 84.5587 20.9451 86.0187 22.3558L86.2508 22.5348" stroke="#B79300" stroke-width="0.8" stroke-miterlimit="10"/>
<path d="M84.4149 17.3134L85.396 14.6467V38.3657H83.7397V32.5366V21.1666C83.7397 19.8506 83.9718 18.5557 84.4149 17.3134H84.4149Z" fill="#FFCC00"/>
<path d="M86.3776 17.3134L85.3965 14.6467V38.3657H87.0528V32.5366V21.1666C87.0528 19.8506 86.8207 18.5557 86.3776 17.3134H86.3776Z" fill="#B79300"/>
<path d="M87.0284 44.8063L83.7393 46.0227V46.2543L87.0284 45.0379V44.8063Z" fill="#B79300"/>
<path d="M87.559 46.9805H83.2335C83.0331 46.9805 82.8643 46.812 82.8643 46.612V46.0119C82.8643 45.8119 83.0331 45.6434 83.2335 45.6434H87.559C87.7594 45.6434 87.9282 45.8119 87.9282 46.0119V46.612C87.9282 46.812 87.7594 46.9805 87.559 46.9805Z" fill="#FFCC00" stroke="#B79300" stroke-width="0.8" stroke-miterlimit="10"/>
<path d="M87.0296 43.7533L83.7751 44.9688V45.2004L87.0296 43.9849V43.7533Z" fill="#B79300"/>
<path d="M87.0291 42.7305L83.7717 43.9389V44.1705L87.0291 42.9621V42.7305Z" fill="#B79300"/>
<path d="M87.0287 41.7217L83.7639 42.9384V43.1595L87.0287 41.9428V41.7217Z" fill="#B79300"/>
<path d="M85.3958 37.6738V14.6932" stroke="#B79300" stroke-width="0.8" stroke-miterlimit="10" stroke-linecap="round" stroke-linejoin="round"/>
<path d="M90.3894 33.6656C90.354 33.6758 90.3182 33.6858 90.2821 33.6954C90.2821 33.6954 90.177 29.6264 93.5645 27.3917" fill="#FFCC00"/>
<path d="M90.3894 33.6656C90.354 33.6758 90.3182 33.6858 90.2821 33.6954C90.2821 33.6954 90.177 29.6264 93.5645 27.3917" stroke="#B79300" stroke-width="0.8" stroke-miterlimit="10"/>
<path d="M93.5631 27.3914C93.5697 27.3871 93.5762 27.3827 93.5828 27.3784C93.5861 27.4032 94.2978 32.5281 90.3879 33.6652" fill="#B79300"/>
<path d="M93.5631 27.3914C93.5697 27.3871 93.5762 27.3827 93.5828 27.3784C93.5861 27.4032 94.2978 32.5281 90.3879 33.6652" stroke="#B79300" stroke-width="0.8" stroke-miterlimit="10"/>
<path d="M89.9326 19.303C89.9326 19.303 92.3064 25.3565 88.9832 27.462L89.9326 19.303Z" fill="#B79300"/>
<path d="M89.9326 19.303C89.9326 19.303 92.3064 25.3565 88.9832 27.462" stroke="#B79300" stroke-width="0.8" stroke-miterlimit="10"/>
<path d="M88.9835 27.462C88.9835 27.462 87.1057 21.956 89.933 19.303L88.9835 27.462Z" fill="#FFCC00"/>
<path d="M88.9835 27.462C88.9835 27.462 87.1057 21.956 89.933 19.303" stroke="#B79300" stroke-width="0.8" stroke-miterlimit="10"/>
<path d="M94.5283 34.234C94.4751 34.8086 93.8879 38.9447 87.5916 39.8324L94.5283 34.234Z" fill="#B79300"/>
<path d="M94.5283 34.234C94.4751 34.8086 93.8879 38.9447 87.5916 39.8324" stroke="#B79300" stroke-width="0.8" stroke-miterlimit="10"/>
<path d="M85.3589 14.8278L84.4147 17.3134C83.9716 18.5557 83.7395 19.8506 83.7395 21.1666V32.5366V38.3658H85.3957H87.052V32.5366V21.1666C87.052 19.8506 86.8199 18.5557 86.3768 17.3134L85.3589 14.8278Z" stroke="#B79300" stroke-width="0.8" stroke-miterlimit="10"/>
<path d="M82.0735 28.0419C84.711 30.2487 87.2594 31.9197 89.7643 33.8848" stroke="black" stroke-width="0.8" stroke-miterlimit="10"/>
<path d="M82.0735 28.0417C82.0735 28.0417 88.0342 28.6524 89.7539 33.7583C89.7539 33.7577 89.7331 33.7597 89.6936 33.7624" fill="#FFCC00"/>
<path d="M82.0735 28.0417C82.0735 28.0417 88.0342 28.6524 89.7539 33.7583C89.7539 33.7577 89.7331 33.7597 89.6936 33.7624" stroke="#B79300" stroke-width="0.8" stroke-miterlimit="10"/>
<path d="M89.6937 33.7624C89.1006 33.8032 84.2793 34.0136 82.0735 28.0417L89.6937 33.7624Z" fill="#B79300"/>
<path d="M89.6937 33.7624C89.1006 33.8032 84.2793 34.0136 82.0735 28.0417" stroke="#B79300" stroke-width="0.8" stroke-miterlimit="10"/>
<path d="M82.0735 28.0417C84.7111 30.2486 87.2595 31.9196 89.7644 33.8847" stroke="#B79300" stroke-width="0.8" stroke-miterlimit="10"/>
<path d="M93.5731 27.3783C92.4671 29.6508 91.4403 31.7569 90.2815 33.8845" stroke="#B79300" stroke-width="0.8" stroke-miterlimit="10"/>
<path d="M87.5916 39.8321C87.5916 39.8321 92.5246 35.9223 94.5238 34.2788" stroke="#B79300" stroke-width="0.8" stroke-miterlimit="10"/>
<path d="M88.5611 27.567C86.2979 26.1177 84.0462 24.7297 82.1995 22.7664" stroke="black" stroke-width="0.8" stroke-miterlimit="10"/>
<path d="M89.9326 19.303C89.6777 22.0516 89.3324 24.8906 88.9832 27.1988V27.462" stroke="#B79300" stroke-width="0.8" stroke-miterlimit="10"/>
<path fill-rule="evenodd" clip-rule="evenodd" d="M67.3524 42.9497L63.5596 48.8871C69.2234 56.1932 76.1253 59.7909 85.3779 59.7259C94.6306 59.7909 101.533 56.1932 107.197 48.8871L103.404 42.9497C100.594 49.1283 93.5377 53.6717 85.3779 53.6416C77.2183 53.6716 70.1619 49.1282 67.3524 42.9497Z" fill="#FFCC00" stroke="#B79300" stroke-width="0.8" stroke-linecap="round" stroke-linejoin="round"/>
<path d="M88.3757 27.5009C87.8468 27.6406 83.71 28.1844 82.0288 22.578L88.3757 27.5009Z" fill="#B79300"/>
<path d="M88.3757 27.5009C87.8468 27.6406 83.71 28.1844 82.0288 22.578" stroke="#B79300" stroke-width="0.8" stroke-miterlimit="10"/>
<path d="M82.0288 22.578C82.0288 22.578 86.9936 23.1035 88.4259 27.4975C88.4259 27.4969 88.4086 27.4986 88.3757 27.5009" fill="#FFCC00"/>
<path d="M82.0288 22.578C82.0288 22.578 86.9936 23.1035 88.4259 27.4975C88.4259 27.4969 88.4086 27.4986 88.3757 27.5009" stroke="#B79300" stroke-width="0.8" stroke-miterlimit="10"/>
<path d="M82.0288 22.578C84.2257 24.4771 86.3483 25.9151 88.4347 27.6062" stroke="#B79300" stroke-width="0.8" stroke-miterlimit="10"/>
<path d="M85.396 39.5483L83.75 39.9799L81.4819 38.5692L85.396 38.5951" fill="#B79300"/>
<path d="M85.396 39.5483L83.75 39.9799L81.4819 38.5692L85.396 38.5951" stroke="#B79300" stroke-width="0.8" stroke-miterlimit="10" stroke-linecap="round" stroke-linejoin="round"/>
<path d="M85.3962 39.5491L87.2107 39.9807L89.0762 38.5715L85.3962 38.5958" fill="#B79300"/>
<path d="M85.3962 39.5491L87.2107 39.9807L89.0762 38.5715L85.3962 38.5958" stroke="#B79300" stroke-width="0.8" stroke-miterlimit="10" stroke-linecap="round" stroke-linejoin="round"/>
<path d="M81.5261 38.569H88.4002" stroke="black" stroke-width="0.8" stroke-miterlimit="10"/>
<path d="M85.3962 38.5953L89.0762 38.571L87.0524 37.0588L85.3962 37.4905" fill="#FFCC00"/>
<path d="M85.3962 38.5953L89.0762 38.571L87.0524 37.0588L85.3962 37.4905" stroke="#B79300" stroke-width="0.8" stroke-miterlimit="10" stroke-linecap="round" stroke-linejoin="round"/>
<path d="M85.396 38.595L81.4819 38.5692L83.7395 37.0586L85.396 37.4902" fill="#FFCC00"/>
<path d="M85.396 38.595L81.4819 38.5692L83.7395 37.0586L85.396 37.4902" stroke="#B79300" stroke-width="0.8" stroke-miterlimit="10" stroke-linecap="round" stroke-linejoin="round"/>
<path d="M87.5913 39.8322C87.5659 39.8259 90.0234 35.0092 94.5331 34.1682C94.5331 34.1726 94.5317 34.1951 94.528 34.2338" fill="#FFCC00"/>
<path d="M87.5913 39.8322C87.5659 39.8259 90.0234 35.0092 94.5331 34.1682C94.5331 34.1726 94.5317 34.1951 94.528 34.2338" stroke="#B79300" stroke-width="0.8" stroke-miterlimit="10"/>
<path d="M83.1911 42.1163C83.1911 42.1163 83.2122 42.1058 83.2439 42.0952C83.2861 42.0742 83.3388 42.0531 83.4127 42.011C83.5709 41.9373 83.7925 41.8215 84.0668 41.6636C84.3516 41.5057 84.6787 41.2951 85.0585 41.0425C85.4277 40.7898 85.8392 40.4845 86.2506 40.116C86.6726 39.7475 87.0946 39.3264 87.506 38.8527C87.9069 38.3684 88.2973 37.8209 88.6138 37.2209C88.9303 36.6103 89.1835 35.947 89.3417 35.2522C89.3628 35.1679 89.3839 35.0732 89.3945 34.989L89.4367 34.7258C89.4683 34.5468 89.4789 34.3678 89.5 34.1889L89.5105 34.052V34.0204C89.5105 34.0099 89.5105 34.0204 89.5105 34.0204V34.0099V33.9888V33.9151L89.5211 33.6309C89.5316 33.4413 89.5211 33.2624 89.5211 33.0729C89.5105 32.3359 89.4367 31.5885 89.3312 30.862C89.2257 30.1356 88.9676 29.0665 88.7988 28.3822L89.263 28.2559C89.6428 29.635 90.038 31.5042 90.0908 33.0518C90.0908 33.2413 90.1013 33.4519 90.1013 33.6309V33.9151V33.9888V34.0099V34.0309V34.0625L90.0908 34.2099C90.0802 34.4099 90.0697 34.5994 90.038 34.7889L89.9958 35.0732C89.9747 35.1679 89.9536 35.2627 89.9431 35.3574C89.7848 36.1154 89.5316 36.8419 89.194 37.5051C88.8564 38.1578 88.4555 38.7579 88.0335 39.2843C87.6115 39.8107 87.1684 40.2634 86.7359 40.6529C86.3034 41.0425 85.8814 41.3794 85.491 41.6531C85.1007 41.9268 84.7525 42.1479 84.4571 42.3269C84.1617 42.5058 83.9296 42.6322 83.7608 42.7164C83.6764 42.7585 83.6131 42.7901 83.5709 42.8111C83.5287 42.8322 83.4971 42.8427 83.4971 42.8427L83.4654 42.8217C83.2544 42.6848 83.1384 42.4006 83.1911 42.1163H83.1911Z" fill="#B79300" stroke="#B79300" stroke-width="0.8" stroke-miterlimit="10" stroke-linejoin="round"/>
<path d="M88.8771 27.1463C89.183 27.1463 89.4362 27.399 89.4362 27.7043C89.4362 28.0096 89.183 28.2623 88.8771 28.2623C88.5711 28.2623 88.3179 28.0096 88.3179 27.7043C88.3179 27.399 88.5711 27.1463 88.8771 27.1463ZM88.8771 26.9358C88.4445 26.9358 88.1069 27.2832 88.1069 27.7043C88.1069 28.136 88.4551 28.4728 88.8771 28.4728C89.2991 28.4728 89.6472 28.1254 89.6472 27.7043C89.6472 27.2832 89.3096 26.9358 88.8771 26.9358Z" fill="#B79300"/>
<path d="M88.8773 28.3781C88.508 28.3781 88.2126 28.0834 88.2126 27.7149C88.2126 27.3464 88.508 27.0516 88.8773 27.0516C89.2465 27.0516 89.5419 27.3464 89.5419 27.7149C89.5419 28.0834 89.2465 28.3781 88.8773 28.3781Z" fill="url(#paint0_radial_1_2927)"/>
<path d="M89.7535 33.295C90.0806 33.295 90.3548 33.5582 90.3548 33.8951C90.3548 34.2215 90.0911 34.4952 89.7535 34.4952C89.4265 34.4952 89.1522 34.232 89.1522 33.8951C89.1627 33.5582 89.4265 33.295 89.7535 33.295ZM89.7535 33.0845C89.3104 33.0845 88.9412 33.4424 88.9412 33.8951C88.9412 34.3373 89.2999 34.7058 89.7535 34.7058C90.1966 34.7058 90.5659 34.3478 90.5659 33.8951C90.5659 33.4424 90.2072 33.0845 89.7535 33.0845Z" fill="#B79300"/>
<path d="M89.7532 34.5904C89.3629 34.5904 89.0464 34.2746 89.0464 33.885C89.0464 33.4955 89.3629 33.1797 89.7532 33.1797C90.1436 33.1797 90.4601 33.4955 90.4601 33.885C90.4601 34.2746 90.1436 34.5904 89.7532 34.5904Z" fill="url(#paint1_radial_1_2927)"/>
<path d="M87.4948 57.2224C87.7074 57.2008 87.9198 57.177 88.132 57.1507C88.4357 57.1132 88.5542 56.985 88.475 56.6946C88.4054 56.4394 88.3368 56.1839 88.2692 55.9283C88.2576 55.8912 88.2302 55.8752 88.187 55.8804C87.9748 55.9057 87.7623 55.9285 87.5495 55.9489C87.6431 55.6827 87.7333 55.4161 87.8202 55.1491C88.1219 55.1163 88.4228 55.0786 88.7227 55.0357C88.8081 55.0235 88.8681 55.0304 88.9029 55.0568C88.9392 55.0813 88.9701 55.1374 88.9957 55.225C89.2196 55.985 89.4529 56.7427 89.6957 57.4979C89.4358 57.6489 89.1722 57.7963 88.9051 57.9398C88.8091 57.6665 88.7148 57.3927 88.6221 57.1185C88.5194 57.3919 88.4129 57.6648 88.3027 57.9371C87.955 57.9796 87.607 58.0159 87.2588 58.046C87.3401 57.7718 87.4188 57.4972 87.4948 57.2224Z" fill="#B79300"/>
<path d="M78.7475 53.8008C78.4948 53.8556 78.2391 53.9048 77.9805 53.9478C77.8669 54.2692 77.7532 54.5906 77.6395 54.912C77.6238 54.9359 77.6313 54.9532 77.6623 54.964C78.118 55.1219 78.5802 55.2615 79.0475 55.3839L78.7092 56.6699C78.4387 56.5988 78.1695 56.5222 77.9018 56.4401C77.7388 56.6461 77.5727 56.8504 77.4033 57.0529C77.9348 57.2242 78.4715 57.374 79.0119 57.5032C79.2063 57.3493 79.3971 57.1928 79.5842 57.0338L80.0161 55.0396C80.0484 54.8905 79.9748 54.8201 79.8595 54.7941C79.4176 54.6945 78.9805 54.5796 78.5494 54.4485C78.6155 54.2326 78.6815 54.0167 78.7475 53.8008Z" fill="#B79300"/>
<path d="M97.3033 52.4166C97.3565 52.179 97.4051 51.9418 97.4492 51.7051C98.0916 51.8996 98.7538 52.0656 99.4324 52.2035C99.466 52.2066 99.4732 52.1947 99.4531 52.1686C99.3243 51.997 99.1955 51.8255 99.0668 51.654C98.969 51.7271 98.8707 51.7994 98.7719 51.8709C98.7012 51.6068 98.6275 51.3441 98.5508 51.0827C98.636 51.0193 98.7207 50.9553 98.8051 50.8907C98.89 50.8256 98.9746 50.7598 99.0587 50.6934C99.1704 50.6052 99.2721 50.6198 99.3645 50.7399C99.5683 51.0023 99.7719 51.2649 99.9753 51.5276C100.015 51.5825 100.022 51.6337 99.9962 51.6812C99.894 51.869 99.7887 52.0561 99.6803 52.2424C100.073 52.3233 100.472 52.395 100.876 52.4573C100.784 52.7031 100.687 52.9487 100.586 53.194C99.8357 53.0655 99.1027 52.905 98.391 52.7121C98.3511 52.7034 98.3411 52.7141 98.3616 52.7444C98.5189 52.9817 98.6761 53.2191 98.8333 53.4566C98.9549 53.3753 99.0758 53.293 99.1959 53.2096C99.2892 53.4408 99.381 53.6729 99.4713 53.9057C99.1901 54.0978 98.9048 54.2844 98.6153 54.465C98.5718 54.4922 98.534 54.4798 98.502 54.4282L97.8136 53.3222C97.7815 53.2706 97.7788 53.2294 97.8055 53.1984C97.8997 53.0153 97.9907 52.8317 98.0785 52.6477C97.8171 52.5751 97.5586 52.4981 97.3033 52.4166L97.3033 52.4166Z" fill="#B79300"/>
<path d="M93.206 56.9979L92.777 55.6121L92.7546 55.54C92.7573 55.5246 92.7724 55.5073 92.7998 55.4878C93.0392 55.3488 93.2752 55.2059 93.5074 55.0591L93.9901 56.4298C93.7338 56.6235 93.4723 56.8129 93.206 56.9979Z" fill="#B79300"/>
<path d="M92.5515 54.1718C92.8212 54.0859 93.0888 53.9947 93.3542 53.8981C93.7065 53.7698 94.0548 53.632 94.3987 53.4842C94.6333 53.3834 94.8048 53.4477 94.9134 53.6875L95.8253 55.7004C95.5719 55.9217 95.3122 56.1381 95.0467 56.3496L94.2827 54.4494C94.2626 54.3993 94.2188 54.388 94.1512 54.4147C93.6284 54.6211 93.0972 54.8063 92.5593 54.9716C92.5594 54.7045 92.5568 54.4379 92.5515 54.1718Z" fill="#B79300"/>
<path d="M89.9939 57.7707L89.7424 56.3388L89.7293 56.2643C89.7339 56.2493 89.7511 56.234 89.7808 56.2181C90.0361 56.11 90.2888 55.9983 90.5386 55.8828L90.8385 57.307C90.561 57.4659 90.2794 57.6205 89.9939 57.7707Z" fill="#B79300"/>
<path d="M89.7009 54.8779C89.9817 54.8266 90.2613 54.7706 90.5394 54.7096C90.9086 54.6287 91.2752 54.5391 91.6388 54.4406C91.887 54.3733 92.0482 54.4613 92.1218 54.7135L92.7401 56.8314C92.461 57.0149 92.1769 57.1936 91.8881 57.3675L91.3893 55.3806C91.3762 55.3283 91.3342 55.3111 91.2635 55.3284C90.716 55.4624 90.163 55.5773 89.6062 55.6741C89.6402 55.4086 89.6717 55.1432 89.7009 54.8779Z" fill="#B79300"/>
<path d="M99.6962 50.1718C99.8036 50.4163 99.9088 50.662 100.012 50.9089C100.351 50.6275 100.682 50.3367 101.006 50.0371C101.023 50.0216 101.039 50.006 101.056 49.9904C101.101 49.949 101.143 49.949 101.182 49.9909L101.712 50.5546C101.858 50.7096 101.977 50.8313 102.064 50.9127C101.684 51.2677 101.294 51.6117 100.894 51.9436C100.972 52.1872 101.047 52.4321 101.119 52.6782C101.864 52.0753 102.574 51.4324 103.248 50.7563C103.16 50.5087 103.069 50.2627 102.975 50.0182C102.858 50.1392 102.739 50.2592 102.619 50.3781C102.314 50.68 102.623 50.1869 102.391 49.956L101.376 48.9474C101.262 48.8341 101.134 48.8495 101.045 48.9368C100.61 49.3657 100.16 49.7782 99.6962 50.1718L99.6962 50.1718Z" fill="#B79300"/>
<path d="M103.466 50.5341C103.378 50.295 103.287 50.0574 103.193 49.8213C103.556 49.4406 103.907 49.0499 104.247 48.6504C103.982 48.7011 103.576 48.7115 103.105 48.7308C102.975 48.734 102.727 48.7161 102.377 48.6696C102.264 48.7909 102.15 48.911 102.035 49.0301C101.937 48.7626 101.836 48.4971 101.732 48.2335C101.886 48.0696 102.038 47.9036 102.188 47.7358C102.223 47.6966 102.273 47.692 102.338 47.7217C102.624 47.8455 102.911 47.9129 103.198 47.9216C103.353 47.9242 103.574 47.9123 103.856 47.8809C103.916 47.8773 103.919 47.8536 103.867 47.8104L103.441 47.4592C103.377 47.5363 103.313 47.613 103.248 47.6894C103.121 47.4433 102.991 47.199 102.859 46.9567C102.997 46.791 103.132 46.6236 103.266 46.4548C103.358 46.3382 103.463 46.3266 103.581 46.422C103.828 46.6261 104.075 46.8305 104.322 47.0351C104.256 47.308 104.186 47.5815 104.111 47.8554C104.403 47.8238 104.736 47.7803 105.078 47.6937C105.165 47.9349 105.249 48.178 105.331 48.4228C104.746 49.154 104.124 49.8599 103.466 50.5341L103.466 50.5341Z" fill="#B79300"/>
<path d="M85.1784 58.1515C85.2144 57.9053 85.2495 57.6591 85.2835 57.4129C85.333 57.4119 85.3825 57.4108 85.4319 57.4096C85.6581 57.4046 85.8845 57.3972 86.1109 57.3874L86.0512 56.0547C85.9077 56.0612 85.7642 56.0666 85.6207 56.071C85.6587 55.814 85.6957 55.5569 85.7314 55.2997C86.0431 55.2884 86.3545 55.2723 86.6654 55.2513C86.7859 55.2431 86.8781 55.29 86.8895 55.4425L87.054 57.6419C86.9169 57.7951 86.7777 57.9472 86.6364 58.0984C86.2404 58.1218 85.8445 58.1374 85.4492 58.1457C85.359 58.1481 85.2687 58.15 85.1784 58.1515L85.1784 58.1515Z" fill="#B79300"/>
<path d="M76.2287 54.3947C76.3748 54.1802 76.519 53.9647 76.6614 53.7484C76.9008 53.8544 77.1428 53.9544 77.3874 54.0486C77.5682 54.1183 77.6293 54.2371 77.5661 54.4102L77.5571 54.4346C77.4337 54.7729 77.3103 55.1111 77.1868 55.4493C76.8806 55.4411 76.5721 55.425 76.2616 55.4005L76.6144 54.5625C76.4852 54.5082 76.3566 54.4523 76.2287 54.3947L76.2287 54.3947Z" fill="#B79300"/>
<path d="M73.2333 51.8105C72.9918 51.955 72.7478 52.0967 72.5013 52.2358C72.6055 52.3096 72.7102 52.3827 72.8153 52.455C72.4727 53.0799 72.1352 53.7079 71.8031 54.339C72.3164 54.6707 72.8429 54.9863 73.3825 55.2827C73.8965 55.566 74.3061 55.6695 74.5808 55.6227C74.783 55.5925 74.9975 55.4377 75.2233 55.1586C75.5884 54.7106 75.9446 54.2568 76.2914 53.797C76.3031 53.7794 76.3122 53.7634 76.3188 53.7492C76.3584 53.6639 76.3258 53.5976 76.2222 53.5487C75.9566 53.4233 75.6937 53.2913 75.4334 53.1532C75.2435 53.3418 75.0511 53.5286 74.8563 53.7135C74.9681 53.7745 75.0804 53.8344 75.1933 53.8934C74.9482 54.1685 74.6993 54.441 74.4467 54.7108C74.3877 54.7817 74.3236 54.8154 74.2546 54.8114C74.163 54.8148 74.023 54.7684 73.8372 54.6713C73.5234 54.5077 73.2136 54.3372 72.9077 54.1603C72.9705 54.0464 73.0334 53.9327 73.0964 53.8189C73.3059 53.9367 73.5171 54.0513 73.73 54.1627C73.8311 54.2158 73.9221 54.2177 74.0002 54.1724C74.4155 53.8015 74.8214 53.423 75.217 53.0368C74.9398 52.8853 74.6656 52.7271 74.3943 52.5626C74.1624 52.7211 73.9275 52.8768 73.6897 53.0296C73.7977 53.0973 73.9061 53.1641 74.0151 53.2299C74.0168 53.2292 74.0185 53.2284 74.0203 53.2276C73.8892 53.3434 73.7573 53.4585 73.6245 53.5729C73.4959 53.6731 73.4015 53.6493 73.2477 53.5571C73.4508 53.1809 73.6553 52.8055 73.8612 52.4308C73.9179 52.3327 73.895 52.2513 73.7935 52.1854C73.6054 52.0633 73.4186 51.9382 73.2333 51.8106L73.2333 51.8105Z" fill="#B79300"/>
<path d="M71.1676 50.2406C71.2696 50.3253 71.372 50.4093 71.4749 50.4927C71.6234 50.6129 71.7729 50.7317 71.9233 50.849C72.0737 50.9661 72.2251 51.0817 72.3775 51.1957C72.5856 51.3514 72.615 51.5337 72.4598 51.7464L71.1558 53.5333C70.8417 53.4265 70.5287 53.314 70.2171 53.1963L71.4777 51.5772C71.5091 51.5369 71.4997 51.4956 71.4498 51.4532C71.4469 51.4508 71.444 51.4483 71.4408 51.4459C71.1203 51.1956 70.8047 50.9391 70.4936 50.6769C70.7194 50.5328 70.9441 50.3874 71.1676 50.2406L71.1676 50.2406Z" fill="#B79300"/>
<path d="M82.0806 58.0852L82.2275 56.6379L82.2351 56.5626C82.2437 56.5495 82.2644 56.5394 82.2973 56.5321C82.5729 56.4972 82.8468 56.4575 83.1191 56.4132L83.0241 57.8681C82.713 57.9464 82.3985 58.0189 82.0806 58.0852Z" fill="#B79300"/>
<path d="M82.5831 55.218C82.8665 55.2438 83.1508 55.2644 83.4357 55.2799C83.8138 55.3006 84.193 55.3124 84.5725 55.316C84.8317 55.3184 84.9639 55.4477 84.9658 55.7109L84.9818 57.922C84.6649 58.0232 84.3441 58.119 84.0195 58.2088L84.0755 56.156C84.077 56.102 84.0411 56.0741 83.968 56.0718C83.4027 56.0538 82.8382 56.017 82.2764 55.9599C82.3812 55.7133 82.4834 55.466 82.5831 55.218Z" fill="#B79300"/>
<path d="M68.0292 46.331C67.7707 46.2423 67.512 46.151 67.2532 46.0575C67.0007 46.2884 66.7481 46.5192 66.4955 46.7501C66.4702 46.7638 66.4689 46.7828 66.4915 46.8073C66.8242 47.1668 67.161 47.5225 67.5025 47.8732L66.5442 48.8026C66.3544 48.6077 66.1664 48.4116 65.9799 48.2143C65.7376 48.3158 65.4948 48.4163 65.2514 48.5158C65.6118 48.901 65.9785 49.2826 66.3523 49.6593C66.5947 49.6259 66.8364 49.591 67.0774 49.5544L68.5209 48.1038C68.6288 47.9954 68.6031 47.8943 68.5165 47.8077C68.1852 47.4762 67.858 47.1392 67.5344 46.7977C67.6993 46.6421 67.8643 46.4866 68.0292 46.331L68.0292 46.331Z" fill="#B79300"/>
<path d="M68.6015 48.4531C68.8482 48.4509 69.0941 48.4465 69.3391 48.4398C69.3012 49.1185 69.2794 49.8026 69.277 50.4928C69.2805 50.5263 69.2936 50.5309 69.3153 50.506C69.4585 50.346 69.6017 50.1859 69.7448 50.0259C69.6531 49.9441 69.5617 49.8619 69.4707 49.7792C69.7162 49.6566 69.9604 49.5324 70.2034 49.4065C70.2841 49.4788 70.3651 49.5507 70.4464 49.6221C70.5283 49.6941 70.6105 49.7657 70.693 49.8368C70.8026 49.9314 70.8078 50.0347 70.7067 50.1476C70.4862 50.3962 70.2655 50.6448 70.0447 50.8932C69.998 50.9426 69.949 50.959 69.8975 50.9424C69.6939 50.8778 69.4903 50.8111 69.2868 50.7425C69.2829 51.1421 69.2855 51.5439 69.2953 51.948C69.0391 51.906 68.7824 51.8612 68.5255 51.8135C68.5158 51.0627 68.5298 50.3198 68.5635 49.5838C68.5634 49.543 68.5506 49.5357 68.5255 49.5623C68.3276 49.768 68.1296 49.9737 67.9317 50.1794C68.0361 50.2782 68.1409 50.3764 68.2464 50.4742C68.04 50.6151 67.833 50.7554 67.6254 50.8949C67.384 50.6694 67.1456 50.4416 66.9101 50.2116C66.8747 50.1771 66.8785 50.1381 66.9212 50.0947L67.8378 49.1632C67.8805 49.1198 67.9201 49.1074 67.9565 49.1259C68.1569 49.1737 68.3572 49.2201 68.5573 49.2647C68.5695 48.9933 68.5843 48.7227 68.6015 48.4531Z" fill="#B79300"/>
<path d="M108.117 42.9353L109.789 42.9397C110.272 42.9408 111.001 42.7154 111.481 42.3036C111.133 41.0481 108.851 40.7576 107.904 40.7748L108.117 42.9353Z" fill="#FFCC00" stroke="#B79300" stroke-width="0.8"/>
<path d="M103.623 42.9492L103.553 49.1423L110.054 48.6433C111.063 48.473 111.228 47.9609 111.254 47.3957L111.504 43.2153C111.504 43.2153 111.545 42.5603 111.508 42.3859C111.439 42.0581 111.19 41.9759 110.995 42.1749C110.752 42.4238 110.137 42.8703 109.604 42.866L103.623 42.9492Z" fill="#FFCC00" stroke="#B79300" stroke-width="0.8"/>
<path d="M62.6828 42.9605L61.0112 42.9648C60.5282 42.966 59.7987 42.7406 59.3196 42.3288C59.6673 41.0733 61.949 40.7828 62.8963 40.7999L62.6828 42.9605Z" fill="#FFCC00" stroke="#B79300" stroke-width="0.8"/>
<path d="M67.1789 42.9751L67.2489 49.1682L60.7479 48.6692C59.7385 48.4988 59.5736 47.9868 59.5477 47.4216L59.2976 43.2412C59.2976 43.2412 59.2569 42.5861 59.2937 42.4117C59.3629 42.084 59.6121 42.0017 59.8067 42.2007C60.0501 42.4497 60.6647 42.8962 61.198 42.8919L67.1789 42.9751Z" fill="#FFCC00" stroke="#B79300" stroke-width="0.8"/>
<path fill-rule="evenodd" clip-rule="evenodd" d="M85.23 12.353C84.1454 12.353 83.1326 12.9359 82.5844 13.8755C79.4326 20.6625 77.9918 20.4459 70.9645 20.6661C69.8918 20.7019 68.9264 21.2846 68.4022 22.2003C67.8658 23.128 67.8541 24.2695 68.3786 25.1973C72.4879 31.2662 71.8032 32.4019 68.5929 38.4336C68.0924 39.3613 68.1163 40.4909 68.6524 41.4068C69.1887 42.3223 70.154 42.8934 71.2146 42.9291C78.7735 42.4084 79.2897 43.9412 83.1683 49.9344C83.7404 50.8264 84.6834 51.3496 85.7442 51.3375C86.793 51.3257 87.8165 50.7667 88.3647 49.8749C91.6473 43.2368 92.8348 43.126 99.7222 43.0841C100.807 43.072 101.808 42.4895 102.356 41.5618C102.892 40.6224 102.904 39.4691 102.38 38.5295C98.1509 32.4282 99.214 31.1936 102.368 24.9358C102.845 23.9965 102.797 22.8785 102.26 21.9864C100.03 23.3678 100.03 23.3676 102.26 21.9864C101.724 21.0826 100.759 20.5237 99.7103 20.4998C92.1093 20.9992 91.4763 19.9402 87.8758 13.8517C87.3276 12.9239 86.3146 12.3531 85.23 12.3531V12.353ZM85.242 15.4097C89.1302 21.996 91.3029 24.214 99.6386 23.5566C96.2497 30.2803 94.9589 33.3282 99.6982 40.0157C92.2244 40.0765 89.2581 40.9294 85.7442 48.2811V48.2814C81.5963 41.8381 79.6104 39.2137 71.2981 39.8734C74.7746 33.3418 75.6697 30.3528 71.0599 23.7231C78.6452 23.485 81.8453 22.9546 85.242 15.4098V15.4097Z" fill="#FFCC00"/>
<path fill-rule="evenodd" clip-rule="evenodd" d="M85.3288 14.7303C87.88 21.0563 91.2692 24.4737 99.6375 23.556C96.2486 30.2797 94.9578 33.3276 99.6972 40.0151C92.2234 40.076 89.2571 40.9289 85.7432 48.2805V48.2808C81.5952 41.8375 79.6094 39.2131 71.2971 39.8729C74.7735 33.3412 75.6686 30.3522 71.0588 23.7225C78.6442 23.4845 82.256 22.5776 85.3288 14.7305V14.7303Z" stroke="#B79300" stroke-width="0.8" stroke-linecap="round" stroke-linejoin="round"/>
<path d="M83.1911 42.1174C83.1911 42.1174 83.2122 42.1069 83.2439 42.0964C83.2861 42.0753 83.3388 42.0543 83.4127 42.0121C83.5709 41.9384 83.7925 41.8226 84.0668 41.6647C84.3516 41.5068 84.6787 41.2963 85.0585 41.0436C85.4277 40.7909 85.8392 40.4856 86.2506 40.1171C86.6726 39.7487 87.0946 39.3276 87.506 38.8538C87.9069 38.3695 88.2973 37.8221 88.6138 37.222C88.9303 36.6114 89.1835 35.9481 89.3417 35.2533C89.3628 35.1691 89.3839 35.0743 89.3945 34.9901L89.4367 34.7269C89.4683 34.5479 89.4789 34.369 89.5 34.19L89.5105 34.0531V34.0215C89.5105 34.011 89.5105 34.0215 89.5105 34.0215V34.011V33.9899V33.9162L89.5211 33.632C89.5316 33.4425 89.5211 33.2635 89.5211 33.074C89.5105 32.3371 89.4367 31.5896 89.3312 30.8632C89.2257 30.1368 89.0674 29.4209 88.8986 28.7366C88.5505 27.3679 88.1179 26.1257 87.7065 25.0729C87.2951 24.0201 86.8942 23.1568 86.6093 22.5673C86.4616 22.2725 86.3456 22.0409 86.2612 21.883C86.1768 21.725 86.1346 21.6408 86.1346 21.6408L86.4194 21.4829C86.4194 21.4829 86.4616 21.5671 86.5566 21.725C86.641 21.883 86.7676 22.1146 86.9153 22.4094C87.2212 22.9989 87.6326 23.8622 88.0757 24.915C88.5188 25.9677 88.983 27.2311 89.3628 28.6102C89.7426 29.9894 90.038 31.5054 90.0908 33.053C90.0908 33.2425 90.1013 33.453 90.1013 33.632V33.9162V33.9899V34.011V34.0321V34.0637L90.0908 34.2111C90.0802 34.4111 90.0697 34.6006 90.038 34.7901L89.9958 35.0743C89.9747 35.1691 89.9536 35.2638 89.9431 35.3586C89.7848 36.1166 89.5316 36.843 89.194 37.5062C88.8564 38.159 88.4555 38.7591 88.0335 39.2854C87.6115 39.8118 87.1684 40.2645 86.7359 40.6541C86.3034 41.0436 85.8814 41.3805 85.491 41.6542C85.1007 41.9279 84.7525 42.149 84.4571 42.328C84.1617 42.507 83.9296 42.6333 83.7608 42.7175C83.6764 42.7596 83.6131 42.7912 83.5709 42.8123C83.5287 42.8333 83.4971 42.8438 83.4971 42.8438L83.4654 42.8228C83.2544 42.6859 83.1384 42.4017 83.1911 42.1174H83.1911Z" fill="#FFCC00" stroke="#B79300" stroke-width="0.8" stroke-miterlimit="10" stroke-linejoin="round"/>
<path fill-rule="evenodd" clip-rule="evenodd" d="M85.23 12.3528C84.1455 12.3528 83.1327 12.9356 82.5844 13.8752C79.4326 20.6622 77.9918 20.4456 70.9645 20.6658C69.8918 20.7016 68.9264 21.2842 68.4022 22.1999C67.8658 23.1277 67.8541 24.2692 68.3786 25.197C72.4879 31.2658 71.8032 32.4016 68.5929 38.4332C68.0924 39.361 68.1163 40.4906 68.6524 41.4066C69.1887 42.322 70.154 42.8931 71.2145 42.9288C78.7735 42.408 79.2897 43.9409 83.1683 49.9341C83.7404 50.8261 84.7296 51.3492 85.7905 51.3371C86.8392 51.3253 87.8165 50.7664 88.3647 49.8746C91.6473 43.2365 92.8348 43.1257 99.7222 43.0838C100.807 43.0717 101.808 42.489 102.356 41.5613C102.892 40.622 102.904 39.4688 102.38 38.5293C98.151 32.428 99.2141 31.1934 102.368 24.9356C102.845 23.9963 102.797 22.8782 102.261 21.9862V21.9859C101.725 21.082 100.759 20.5232 99.7103 20.4993C92.1094 20.9987 91.4763 19.9397 87.8758 13.8512C87.3276 12.9234 86.3146 12.3527 85.23 12.3527V12.3528Z" stroke="#B79300" stroke-width="0.8"/>
<path d="M83.7393 38.8445V46.0234H85.3851H87.0414V38.8445H83.7393Z" fill="#FFCC00" stroke="#B79300" stroke-width="0.8" stroke-miterlimit="10"/>
<path d="M87.0279 40.694L83.7786 41.9047L83.8348 42.107L87.0279 40.9151V40.694Z" fill="#B79300"/>
<path d="M83.7615 41.0746L87.0003 39.8639V39.6428L83.7615 40.8535V41.0746Z" fill="#B79300"/>
<path d="M81.4717 17.4077C81.4717 17.4077 86.052 18.4375 86.2502 22.5334L81.4717 17.4077Z" fill="#FFCC00"/>
<path d="M81.4717 17.4077C81.4717 17.4077 86.052 18.4375 86.2502 22.5334" stroke="#B79300" stroke-width="0.8" stroke-miterlimit="10"/>
<path d="M86.2508 22.5334C86.2508 22.5374 86.2508 22.5413 86.2518 22.5453C86.2412 22.5348 83.34 23.1664 81.4727 17.4077" fill="#B79300"/>
<path d="M86.2508 22.5334C86.2508 22.5374 86.2508 22.5413 86.2518 22.5453C86.2412 22.5348 83.34 23.1664 81.4727 17.4077" stroke="#B79300" stroke-width="0.8" stroke-miterlimit="10"/>
<path d="M81.4717 17.4077C83.2975 19.2711 84.5587 20.9451 86.0187 22.3558L86.2508 22.5348" stroke="#B79300" stroke-width="0.8" stroke-miterlimit="10"/>
<path d="M84.4149 17.3134L85.396 14.6467V38.3657H83.7397V32.5366V21.1666C83.7397 19.8506 83.9718 18.5557 84.4149 17.3134H84.4149Z" fill="#FFCC00"/>
<path d="M86.3776 17.3134L85.3965 14.6467V38.3657H87.0528V32.5366V21.1666C87.0528 19.8506 86.8207 18.5557 86.3776 17.3134H86.3776Z" fill="#B79300"/>
<path d="M87.0284 44.8063L83.7393 46.0227V46.2543L87.0284 45.0379V44.8063Z" fill="#B79300"/>
<path d="M87.559 46.9805H83.2335C83.0331 46.9805 82.8643 46.812 82.8643 46.612V46.0119C82.8643 45.8119 83.0331 45.6434 83.2335 45.6434H87.559C87.7594 45.6434 87.9282 45.8119 87.9282 46.0119V46.612C87.9282 46.812 87.7594 46.9805 87.559 46.9805Z" fill="#FFCC00" stroke="#B79300" stroke-width="0.8" stroke-miterlimit="10"/>
<path d="M87.0296 43.7533L83.7751 44.9688V45.2004L87.0296 43.9849V43.7533Z" fill="#B79300"/>
<path d="M87.0291 42.7305L83.7717 43.9389V44.1705L87.0291 42.9621V42.7305Z" fill="#B79300"/>
<path d="M87.0287 41.7217L83.7639 42.9384V43.1595L87.0287 41.9428V41.7217Z" fill="#B79300"/>
<path d="M85.3958 37.6738V14.6932" stroke="#B79300" stroke-width="0.8" stroke-miterlimit="10" stroke-linecap="round" stroke-linejoin="round"/>
<path d="M90.3894 33.6656C90.354 33.6758 90.3182 33.6858 90.2821 33.6954C90.2821 33.6954 90.177 29.6264 93.5645 27.3917" fill="#FFCC00"/>
<path d="M90.3894 33.6656C90.354 33.6758 90.3182 33.6858 90.2821 33.6954C90.2821 33.6954 90.177 29.6264 93.5645 27.3917" stroke="#B79300" stroke-width="0.8" stroke-miterlimit="10"/>
<path d="M93.5631 27.3914C93.5697 27.3871 93.5762 27.3827 93.5828 27.3784C93.5861 27.4032 94.2978 32.5281 90.3879 33.6652" fill="#B79300"/>
<path d="M93.5631 27.3914C93.5697 27.3871 93.5762 27.3827 93.5828 27.3784C93.5861 27.4032 94.2978 32.5281 90.3879 33.6652" stroke="#B79300" stroke-width="0.8" stroke-miterlimit="10"/>
<path d="M89.9326 19.303C89.9326 19.303 92.3064 25.3565 88.9832 27.462L89.9326 19.303Z" fill="#B79300"/>
<path d="M89.9326 19.303C89.9326 19.303 92.3064 25.3565 88.9832 27.462" stroke="#B79300" stroke-width="0.8" stroke-miterlimit="10"/>
<path d="M88.9835 27.462C88.9835 27.462 87.1057 21.956 89.933 19.303L88.9835 27.462Z" fill="#FFCC00"/>
<path d="M88.9835 27.462C88.9835 27.462 87.1057 21.956 89.933 19.303" stroke="#B79300" stroke-width="0.8" stroke-miterlimit="10"/>
<path d="M94.5283 34.234C94.4751 34.8086 93.8879 38.9447 87.5916 39.8324L94.5283 34.234Z" fill="#B79300"/>
<path d="M94.5283 34.234C94.4751 34.8086 93.8879 38.9447 87.5916 39.8324" stroke="#B79300" stroke-width="0.8" stroke-miterlimit="10"/>
<path d="M85.3589 14.8278L84.4147 17.3134C83.9716 18.5557 83.7395 19.8506 83.7395 21.1666V32.5366V38.3658H85.3957H87.052V32.5366V21.1666C87.052 19.8506 86.8199 18.5557 86.3768 17.3134L85.3589 14.8278Z" stroke="#B79300" stroke-width="0.8" stroke-miterlimit="10"/>
<path d="M82.0735 28.0419C84.711 30.2487 87.2594 31.9197 89.7643 33.8848" stroke="black" stroke-width="0.8" stroke-miterlimit="10"/>
<path d="M82.0735 28.0417C82.0735 28.0417 88.0342 28.6524 89.7539 33.7583C89.7539 33.7577 89.7331 33.7597 89.6936 33.7624" fill="#FFCC00"/>
<path d="M82.0735 28.0417C82.0735 28.0417 88.0342 28.6524 89.7539 33.7583C89.7539 33.7577 89.7331 33.7597 89.6936 33.7624" stroke="#B79300" stroke-width="0.8" stroke-miterlimit="10"/>
<path d="M89.6937 33.7624C89.1006 33.8032 84.2793 34.0136 82.0735 28.0417L89.6937 33.7624Z" fill="#B79300"/>
<path d="M89.6937 33.7624C89.1006 33.8032 84.2793 34.0136 82.0735 28.0417" stroke="#B79300" stroke-width="0.8" stroke-miterlimit="10"/>
<path d="M82.0735 28.0417C84.7111 30.2486 87.2595 31.9196 89.7644 33.8847" stroke="#B79300" stroke-width="0.8" stroke-miterlimit="10"/>
<path d="M93.5731 27.3783C92.4671 29.6508 91.4403 31.7569 90.2815 33.8845" stroke="#B79300" stroke-width="0.8" stroke-miterlimit="10"/>
<path d="M87.5916 39.8321C87.5916 39.8321 92.5246 35.9223 94.5238 34.2788" stroke="#B79300" stroke-width="0.8" stroke-miterlimit="10"/>
<path d="M88.5611 27.567C86.2979 26.1177 84.0462 24.7297 82.1995 22.7664" stroke="black" stroke-width="0.8" stroke-miterlimit="10"/>
<path d="M89.9326 19.303C89.6777 22.0516 89.3324 24.8906 88.9832 27.1988V27.462" stroke="#B79300" stroke-width="0.8" stroke-miterlimit="10"/>
<path fill-rule="evenodd" clip-rule="evenodd" d="M67.3524 42.9497L63.5596 48.8871C69.2234 56.1932 76.1253 59.7909 85.3779 59.7259C94.6306 59.7909 101.533 56.1932 107.197 48.8871L103.404 42.9497C100.594 49.1283 93.5377 53.6717 85.3779 53.6416C77.2183 53.6716 70.1619 49.1282 67.3524 42.9497Z" fill="#FFCC00" stroke="#B79300" stroke-width="0.8" stroke-linecap="round" stroke-linejoin="round"/>
<path d="M88.3757 27.5009C87.8468 27.6406 83.71 28.1844 82.0288 22.578L88.3757 27.5009Z" fill="#B79300"/>
<path d="M88.3757 27.5009C87.8468 27.6406 83.71 28.1844 82.0288 22.578" stroke="#B79300" stroke-width="0.8" stroke-miterlimit="10"/>
<path d="M82.0288 22.578C82.0288 22.578 86.9936 23.1035 88.4259 27.4975C88.4259 27.4969 88.4086 27.4986 88.3757 27.5009" fill="#FFCC00"/>
<path d="M82.0288 22.578C82.0288 22.578 86.9936 23.1035 88.4259 27.4975C88.4259 27.4969 88.4086 27.4986 88.3757 27.5009" stroke="#B79300" stroke-width="0.8" stroke-miterlimit="10"/>
<path d="M82.0288 22.578C84.2257 24.4771 86.3483 25.9151 88.4347 27.6062" stroke="#B79300" stroke-width="0.8" stroke-miterlimit="10"/>
<path d="M85.396 39.5483L83.75 39.9799L81.4819 38.5692L85.396 38.5951" fill="#B79300"/>
<path d="M85.396 39.5483L83.75 39.9799L81.4819 38.5692L85.396 38.5951" stroke="#B79300" stroke-width="0.8" stroke-miterlimit="10" stroke-linecap="round" stroke-linejoin="round"/>
<path d="M85.3962 39.5491L87.2107 39.9807L89.0762 38.5715L85.3962 38.5958" fill="#B79300"/>
<path d="M85.3962 39.5491L87.2107 39.9807L89.0762 38.5715L85.3962 38.5958" stroke="#B79300" stroke-width="0.8" stroke-miterlimit="10" stroke-linecap="round" stroke-linejoin="round"/>
<path d="M81.5261 38.569H88.4002" stroke="black" stroke-width="0.8" stroke-miterlimit="10"/>
<path d="M85.3962 38.5953L89.0762 38.571L87.0524 37.0588L85.3962 37.4905" fill="#FFCC00"/>
<path d="M85.3962 38.5953L89.0762 38.571L87.0524 37.0588L85.3962 37.4905" stroke="#B79300" stroke-width="0.8" stroke-miterlimit="10" stroke-linecap="round" stroke-linejoin="round"/>
<path d="M85.396 38.595L81.4819 38.5692L83.7395 37.0586L85.396 37.4902" fill="#FFCC00"/>
<path d="M85.396 38.595L81.4819 38.5692L83.7395 37.0586L85.396 37.4902" stroke="#B79300" stroke-width="0.8" stroke-miterlimit="10" stroke-linecap="round" stroke-linejoin="round"/>
<path d="M87.5913 39.8322C87.5659 39.8259 90.0234 35.0092 94.5331 34.1682C94.5331 34.1726 94.5317 34.1951 94.528 34.2338" fill="#FFCC00"/>
<path d="M87.5913 39.8322C87.5659 39.8259 90.0234 35.0092 94.5331 34.1682C94.5331 34.1726 94.5317 34.1951 94.528 34.2338" stroke="#B79300" stroke-width="0.8" stroke-miterlimit="10"/>
<path d="M83.1911 42.1163C83.1911 42.1163 83.2122 42.1058 83.2439 42.0952C83.2861 42.0742 83.3388 42.0531 83.4127 42.011C83.5709 41.9373 83.7925 41.8215 84.0668 41.6636C84.3516 41.5057 84.6787 41.2951 85.0585 41.0425C85.4277 40.7898 85.8392 40.4845 86.2506 40.116C86.6726 39.7475 87.0946 39.3264 87.506 38.8527C87.9069 38.3684 88.2973 37.8209 88.6138 37.2209C88.9303 36.6103 89.1835 35.947 89.3417 35.2522C89.3628 35.1679 89.3839 35.0732 89.3945 34.989L89.4367 34.7258C89.4683 34.5468 89.4789 34.3678 89.5 34.1889L89.5105 34.052V34.0204C89.5105 34.0099 89.5105 34.0204 89.5105 34.0204V34.0099V33.9888V33.9151L89.5211 33.6309C89.5316 33.4413 89.5211 33.2624 89.5211 33.0729C89.5105 32.3359 89.4367 31.5885 89.3312 30.862C89.2257 30.1356 88.9676 29.0665 88.7988 28.3822L89.263 28.2559C89.6428 29.635 90.038 31.5042 90.0908 33.0518C90.0908 33.2413 90.1013 33.4519 90.1013 33.6309V33.9151V33.9888V34.0099V34.0309V34.0625L90.0908 34.2099C90.0802 34.4099 90.0697 34.5994 90.038 34.7889L89.9958 35.0732C89.9747 35.1679 89.9536 35.2627 89.9431 35.3574C89.7848 36.1154 89.5316 36.8419 89.194 37.5051C88.8564 38.1578 88.4555 38.7579 88.0335 39.2843C87.6115 39.8107 87.1684 40.2634 86.7359 40.6529C86.3034 41.0425 85.8814 41.3794 85.491 41.6531C85.1007 41.9268 84.7525 42.1479 84.4571 42.3269C84.1617 42.5058 83.9296 42.6322 83.7608 42.7164C83.6764 42.7585 83.6131 42.7901 83.5709 42.8111C83.5287 42.8322 83.4971 42.8427 83.4971 42.8427L83.4654 42.8217C83.2544 42.6848 83.1384 42.4006 83.1911 42.1163H83.1911Z" fill="#B79300" stroke="#B79300" stroke-width="0.8" stroke-miterlimit="10" stroke-linejoin="round"/>
<path d="M88.8771 27.1463C89.183 27.1463 89.4362 27.399 89.4362 27.7043C89.4362 28.0096 89.183 28.2623 88.8771 28.2623C88.5711 28.2623 88.3179 28.0096 88.3179 27.7043C88.3179 27.399 88.5711 27.1463 88.8771 27.1463ZM88.8771 26.9358C88.4445 26.9358 88.1069 27.2832 88.1069 27.7043C88.1069 28.136 88.4551 28.4728 88.8771 28.4728C89.2991 28.4728 89.6472 28.1254 89.6472 27.7043C89.6472 27.2832 89.3096 26.9358 88.8771 26.9358Z" fill="#B79300"/>
<path d="M88.8773 28.3781C88.508 28.3781 88.2126 28.0834 88.2126 27.7149C88.2126 27.3464 88.508 27.0516 88.8773 27.0516C89.2465 27.0516 89.5419 27.3464 89.5419 27.7149C89.5419 28.0834 89.2465 28.3781 88.8773 28.3781Z" fill="url(#paint2_radial_1_2927)"/>
<path d="M89.7535 33.295C90.0806 33.295 90.3548 33.5582 90.3548 33.8951C90.3548 34.2215 90.0911 34.4952 89.7535 34.4952C89.4265 34.4952 89.1522 34.232 89.1522 33.8951C89.1627 33.5582 89.4265 33.295 89.7535 33.295ZM89.7535 33.0845C89.3104 33.0845 88.9412 33.4424 88.9412 33.8951C88.9412 34.3373 89.2999 34.7058 89.7535 34.7058C90.1966 34.7058 90.5659 34.3478 90.5659 33.8951C90.5659 33.4424 90.2072 33.0845 89.7535 33.0845Z" fill="#B79300"/>
<path d="M89.7532 34.5904C89.3629 34.5904 89.0464 34.2746 89.0464 33.885C89.0464 33.4955 89.3629 33.1797 89.7532 33.1797C90.1436 33.1797 90.4601 33.4955 90.4601 33.885C90.4601 34.2746 90.1436 34.5904 89.7532 34.5904Z" fill="url(#paint3_radial_1_2927)"/>
<path d="M87.4948 57.2224C87.7074 57.2008 87.9198 57.177 88.132 57.1507C88.4357 57.1132 88.5542 56.985 88.475 56.6946C88.4054 56.4394 88.3368 56.1839 88.2692 55.9283C88.2576 55.8912 88.2302 55.8752 88.187 55.8804C87.9748 55.9057 87.7623 55.9285 87.5495 55.9489C87.6431 55.6827 87.7333 55.4161 87.8202 55.1491C88.1219 55.1163 88.4228 55.0786 88.7227 55.0357C88.8081 55.0235 88.8681 55.0304 88.9029 55.0568C88.9392 55.0813 88.9701 55.1374 88.9957 55.225C89.2196 55.985 89.4529 56.7427 89.6957 57.4979C89.4358 57.6489 89.1722 57.7963 88.9051 57.9398C88.8091 57.6665 88.7148 57.3927 88.6221 57.1185C88.5194 57.3919 88.4129 57.6648 88.3027 57.9371C87.955 57.9796 87.607 58.0159 87.2588 58.046C87.3401 57.7718 87.4188 57.4972 87.4948 57.2224Z" fill="#B79300"/>
<path d="M78.7475 53.8008C78.4948 53.8556 78.2391 53.9048 77.9805 53.9478C77.8669 54.2692 77.7532 54.5906 77.6395 54.912C77.6238 54.9359 77.6313 54.9532 77.6623 54.964C78.118 55.1219 78.5802 55.2615 79.0475 55.3839L78.7092 56.6699C78.4387 56.5988 78.1695 56.5222 77.9018 56.4401C77.7388 56.6461 77.5727 56.8504 77.4033 57.0529C77.9348 57.2242 78.4715 57.374 79.0119 57.5032C79.2063 57.3493 79.3971 57.1928 79.5842 57.0338L80.0161 55.0396C80.0484 54.8905 79.9748 54.8201 79.8595 54.7941C79.4176 54.6945 78.9805 54.5796 78.5494 54.4485C78.6155 54.2326 78.6815 54.0167 78.7475 53.8008Z" fill="#B79300"/>
<path d="M97.3033 52.4166C97.3565 52.179 97.4051 51.9418 97.4492 51.7051C98.0916 51.8996 98.7538 52.0656 99.4324 52.2035C99.466 52.2066 99.4732 52.1947 99.4531 52.1686C99.3243 51.997 99.1955 51.8255 99.0668 51.654C98.969 51.7271 98.8707 51.7994 98.7719 51.8709C98.7012 51.6068 98.6275 51.3441 98.5508 51.0827C98.636 51.0193 98.7207 50.9553 98.8051 50.8907C98.89 50.8256 98.9746 50.7598 99.0587 50.6934C99.1704 50.6052 99.2721 50.6198 99.3645 50.7399C99.5683 51.0023 99.7719 51.2649 99.9753 51.5276C100.015 51.5825 100.022 51.6337 99.9962 51.6812C99.894 51.869 99.7887 52.0561 99.6803 52.2424C100.073 52.3233 100.472 52.395 100.876 52.4573C100.784 52.7031 100.687 52.9487 100.586 53.194C99.8357 53.0655 99.1027 52.905 98.391 52.7121C98.3511 52.7034 98.3411 52.7141 98.3616 52.7444C98.5189 52.9817 98.6761 53.2191 98.8333 53.4566C98.9549 53.3753 99.0758 53.293 99.1959 53.2096C99.2892 53.4408 99.381 53.6729 99.4713 53.9057C99.1901 54.0978 98.9048 54.2844 98.6153 54.465C98.5718 54.4922 98.534 54.4798 98.502 54.4282L97.8136 53.3222C97.7815 53.2706 97.7788 53.2294 97.8055 53.1984C97.8997 53.0153 97.9907 52.8317 98.0785 52.6477C97.8171 52.5751 97.5586 52.4981 97.3033 52.4166L97.3033 52.4166Z" fill="#B79300"/>
<path d="M93.206 56.9979L92.777 55.6121L92.7546 55.54C92.7573 55.5246 92.7724 55.5073 92.7998 55.4878C93.0392 55.3488 93.2752 55.2059 93.5074 55.0591L93.9901 56.4298C93.7338 56.6235 93.4723 56.8129 93.206 56.9979Z" fill="#B79300"/>
<path d="M92.5515 54.1718C92.8212 54.0859 93.0888 53.9947 93.3542 53.8981C93.7065 53.7698 94.0548 53.632 94.3987 53.4842C94.6333 53.3834 94.8048 53.4477 94.9134 53.6875L95.8253 55.7004C95.5719 55.9217 95.3122 56.1381 95.0467 56.3496L94.2827 54.4494C94.2626 54.3993 94.2188 54.388 94.1512 54.4147C93.6284 54.6211 93.0972 54.8063 92.5593 54.9716C92.5594 54.7045 92.5568 54.4379 92.5515 54.1718Z" fill="#B79300"/>
<path d="M89.9939 57.7707L89.7424 56.3388L89.7293 56.2643C89.7339 56.2493 89.7511 56.234 89.7808 56.2181C90.0361 56.11 90.2888 55.9983 90.5386 55.8828L90.8385 57.307C90.561 57.4659 90.2794 57.6205 89.9939 57.7707Z" fill="#B79300"/>
<path d="M89.7009 54.8779C89.9817 54.8266 90.2613 54.7706 90.5394 54.7096C90.9086 54.6287 91.2752 54.5391 91.6388 54.4406C91.887 54.3733 92.0482 54.4613 92.1218 54.7135L92.7401 56.8314C92.461 57.0149 92.1769 57.1936 91.8881 57.3675L91.3893 55.3806C91.3762 55.3283 91.3342 55.3111 91.2635 55.3284C90.716 55.4624 90.163 55.5773 89.6062 55.6741C89.6402 55.4086 89.6717 55.1432 89.7009 54.8779Z" fill="#B79300"/>
<path d="M99.6962 50.1718C99.8036 50.4163 99.9088 50.662 100.012 50.9089C100.351 50.6275 100.682 50.3367 101.006 50.0371C101.023 50.0216 101.039 50.006 101.056 49.9904C101.101 49.949 101.143 49.949 101.182 49.9909L101.712 50.5546C101.858 50.7096 101.977 50.8313 102.064 50.9127C101.684 51.2677 101.294 51.6117 100.894 51.9436C100.972 52.1872 101.047 52.4321 101.119 52.6782C101.864 52.0753 102.574 51.4324 103.248 50.7563C103.16 50.5087 103.069 50.2627 102.975 50.0182C102.858 50.1392 102.739 50.2592 102.619 50.3781C102.314 50.68 102.623 50.1869 102.391 49.956L101.376 48.9474C101.262 48.8341 101.134 48.8495 101.045 48.9368C100.61 49.3657 100.16 49.7782 99.6962 50.1718L99.6962 50.1718Z" fill="#B79300"/>
<path d="M103.466 50.5341C103.378 50.295 103.287 50.0574 103.193 49.8213C103.556 49.4406 103.907 49.0499 104.247 48.6504C103.982 48.7011 103.576 48.7115 103.105 48.7308C102.975 48.734 102.727 48.7161 102.377 48.6696C102.264 48.7909 102.15 48.911 102.035 49.0301C101.937 48.7626 101.836 48.4971 101.732 48.2335C101.886 48.0696 102.038 47.9036 102.188 47.7358C102.223 47.6966 102.273 47.692 102.338 47.7217C102.624 47.8455 102.911 47.9129 103.198 47.9216C103.353 47.9242 103.574 47.9123 103.856 47.8809C103.916 47.8773 103.919 47.8536 103.867 47.8104L103.441 47.4592C103.377 47.5363 103.313 47.613 103.248 47.6894C103.121 47.4433 102.991 47.199 102.859 46.9567C102.997 46.791 103.132 46.6236 103.266 46.4548C103.358 46.3382 103.463 46.3266 103.581 46.422C103.828 46.6261 104.075 46.8305 104.322 47.0351C104.256 47.308 104.186 47.5815 104.111 47.8554C104.403 47.8238 104.736 47.7803 105.078 47.6937C105.165 47.9349 105.249 48.178 105.331 48.4228C104.746 49.154 104.124 49.8599 103.466 50.5341L103.466 50.5341Z" fill="#B79300"/>
<path d="M85.1784 58.1515C85.2144 57.9053 85.2495 57.6591 85.2835 57.4129C85.333 57.4119 85.3825 57.4108 85.4319 57.4096C85.6581 57.4046 85.8845 57.3972 86.1109 57.3874L86.0512 56.0547C85.9077 56.0612 85.7642 56.0666 85.6207 56.071C85.6587 55.814 85.6957 55.5569 85.7314 55.2997C86.0431 55.2884 86.3545 55.2723 86.6654 55.2513C86.7859 55.2431 86.8781 55.29 86.8895 55.4425L87.054 57.6419C86.9169 57.7951 86.7777 57.9472 86.6364 58.0984C86.2404 58.1218 85.8445 58.1374 85.4492 58.1457C85.359 58.1481 85.2687 58.15 85.1784 58.1515L85.1784 58.1515Z" fill="#B79300"/>
<path d="M76.2287 54.3947C76.3748 54.1802 76.519 53.9647 76.6614 53.7484C76.9008 53.8544 77.1428 53.9544 77.3874 54.0486C77.5682 54.1183 77.6293 54.2371 77.5661 54.4102L77.5571 54.4346C77.4337 54.7729 77.3103 55.1111 77.1868 55.4493C76.8806 55.4411 76.5721 55.425 76.2616 55.4005L76.6144 54.5625C76.4852 54.5082 76.3566 54.4523 76.2287 54.3947L76.2287 54.3947Z" fill="#B79300"/>
<path d="M73.2333 51.8105C72.9918 51.955 72.7478 52.0967 72.5013 52.2358C72.6055 52.3096 72.7102 52.3827 72.8153 52.455C72.4727 53.0799 72.1352 53.7079 71.8031 54.339C72.3164 54.6707 72.8429 54.9863 73.3825 55.2827C73.8965 55.566 74.3061 55.6695 74.5808 55.6227C74.783 55.5925 74.9975 55.4377 75.2233 55.1586C75.5884 54.7106 75.9446 54.2568 76.2914 53.797C76.3031 53.7794 76.3122 53.7634 76.3188 53.7492C76.3584 53.6639 76.3258 53.5976 76.2222 53.5487C75.9566 53.4233 75.6937 53.2913 75.4334 53.1532C75.2435 53.3418 75.0511 53.5286 74.8563 53.7135C74.9681 53.7745 75.0804 53.8344 75.1933 53.8934C74.9482 54.1685 74.6993 54.441 74.4467 54.7108C74.3877 54.7817 74.3236 54.8154 74.2546 54.8114C74.163 54.8148 74.023 54.7684 73.8372 54.6713C73.5234 54.5077 73.2136 54.3372 72.9077 54.1603C72.9705 54.0464 73.0334 53.9327 73.0964 53.8189C73.3059 53.9367 73.5171 54.0513 73.73 54.1627C73.8311 54.2158 73.9221 54.2177 74.0002 54.1724C74.4155 53.8015 74.8214 53.423 75.217 53.0368C74.9398 52.8853 74.6656 52.7271 74.3943 52.5626C74.1624 52.7211 73.9275 52.8768 73.6897 53.0296C73.7977 53.0973 73.9061 53.1641 74.0151 53.2299C74.0168 53.2292 74.0185 53.2284 74.0203 53.2276C73.8892 53.3434 73.7573 53.4585 73.6245 53.5729C73.4959 53.6731 73.4015 53.6493 73.2477 53.5571C73.4508 53.1809 73.6553 52.8055 73.8612 52.4308C73.9179 52.3327 73.895 52.2513 73.7935 52.1854C73.6054 52.0633 73.4186 51.9382 73.2333 51.8106L73.2333 51.8105Z" fill="#B79300"/>
<path d="M71.1676 50.2406C71.2696 50.3253 71.372 50.4093 71.4749 50.4927C71.6234 50.6129 71.7729 50.7317 71.9233 50.849C72.0737 50.9661 72.2251 51.0817 72.3775 51.1957C72.5856 51.3514 72.615 51.5337 72.4598 51.7464L71.1558 53.5333C70.8417 53.4265 70.5287 53.314 70.2171 53.1963L71.4777 51.5772C71.5091 51.5369 71.4997 51.4956 71.4498 51.4532C71.4469 51.4508 71.444 51.4483 71.4408 51.4459C71.1203 51.1956 70.8047 50.9391 70.4936 50.6769C70.7194 50.5328 70.9441 50.3874 71.1676 50.2406L71.1676 50.2406Z" fill="#B79300"/>
<path d="M82.0806 58.0852L82.2275 56.6379L82.2351 56.5626C82.2437 56.5495 82.2644 56.5394 82.2973 56.5321C82.5729 56.4972 82.8468 56.4575 83.1191 56.4132L83.0241 57.8681C82.713 57.9464 82.3985 58.0189 82.0806 58.0852Z" fill="#B79300"/>
<path d="M82.5831 55.218C82.8665 55.2438 83.1508 55.2644 83.4357 55.2799C83.8138 55.3006 84.193 55.3124 84.5725 55.316C84.8317 55.3184 84.9639 55.4477 84.9658 55.7109L84.9818 57.922C84.6649 58.0232 84.3441 58.119 84.0195 58.2088L84.0755 56.156C84.077 56.102 84.0411 56.0741 83.968 56.0718C83.4027 56.0538 82.8382 56.017 82.2764 55.9599C82.3812 55.7133 82.4834 55.466 82.5831 55.218Z" fill="#B79300"/>
<path d="M68.0292 46.331C67.7707 46.2423 67.512 46.151 67.2532 46.0575C67.0007 46.2884 66.7481 46.5192 66.4955 46.7501C66.4702 46.7638 66.4689 46.7828 66.4915 46.8073C66.8242 47.1668 67.161 47.5225 67.5025 47.8732L66.5442 48.8026C66.3544 48.6077 66.1664 48.4116 65.9799 48.2143C65.7376 48.3158 65.4948 48.4163 65.2514 48.5158C65.6118 48.901 65.9785 49.2826 66.3523 49.6593C66.5947 49.6259 66.8364 49.591 67.0774 49.5544L68.5209 48.1038C68.6288 47.9954 68.6031 47.8943 68.5165 47.8077C68.1852 47.4762 67.858 47.1392 67.5344 46.7977C67.6993 46.6421 67.8643 46.4866 68.0292 46.331L68.0292 46.331Z" fill="#B79300"/>
<path d="M68.6015 48.4531C68.8482 48.4509 69.0941 48.4465 69.3391 48.4398C69.3012 49.1185 69.2794 49.8026 69.277 50.4928C69.2805 50.5263 69.2936 50.5309 69.3153 50.506C69.4585 50.346 69.6017 50.1859 69.7448 50.0259C69.6531 49.9441 69.5617 49.8619 69.4707 49.7792C69.7162 49.6566 69.9604 49.5324 70.2034 49.4065C70.2841 49.4788 70.3651 49.5507 70.4464 49.6221C70.5283 49.6941 70.6105 49.7657 70.693 49.8368C70.8026 49.9314 70.8078 50.0347 70.7067 50.1476C70.4862 50.3962 70.2655 50.6448 70.0447 50.8932C69.998 50.9426 69.949 50.959 69.8975 50.9424C69.6939 50.8778 69.4903 50.8111 69.2868 50.7425C69.2829 51.1421 69.2855 51.5439 69.2953 51.948C69.0391 51.906 68.7824 51.8612 68.5255 51.8135C68.5158 51.0627 68.5298 50.3198 68.5635 49.5838C68.5634 49.543 68.5506 49.5357 68.5255 49.5623C68.3276 49.768 68.1296 49.9737 67.9317 50.1794C68.0361 50.2782 68.1409 50.3764 68.2464 50.4742C68.04 50.6151 67.833 50.7554 67.6254 50.8949C67.384 50.6694 67.1456 50.4416 66.9101 50.2116C66.8747 50.1771 66.8785 50.1381 66.9212 50.0947L67.8378 49.1632C67.8805 49.1198 67.9201 49.1074 67.9565 49.1259C68.1569 49.1737 68.3572 49.2201 68.5573 49.2647C68.5695 48.9933 68.5843 48.7227 68.6015 48.4531Z" fill="#B79300"/>
</g>
<defs>
<radialGradient id="paint0_radial_1_2927" cx="0" cy="0" r="1" gradientUnits="userSpaceOnUse" gradientTransform="translate(88.4535 27.4776) rotate(84.7245) scale(1.51552 1.63211)">
<stop stop-color="#FFCC00"/>
<stop offset="1" stop-color="#B79300"/>
</radialGradient>
<radialGradient id="paint1_radial_1_2927" cx="0" cy="0" r="1" gradientUnits="userSpaceOnUse" gradientTransform="translate(89.7185 33.6578) rotate(95.7868) scale(1.04082 1.20269)">
<stop stop-color="#FFCC00"/>
<stop offset="1" stop-color="#B79300"/>
</radialGradient>
<radialGradient id="paint2_radial_1_2927" cx="0" cy="0" r="1" gradientUnits="userSpaceOnUse" gradientTransform="translate(88.4535 27.4776) rotate(84.7245) scale(1.51552 1.63211)">
<stop stop-color="#FFCC00"/>
<stop offset="1" stop-color="#B79300"/>
</radialGradient>
<radialGradient id="paint3_radial_1_2927" cx="0" cy="0" r="1" gradientUnits="userSpaceOnUse" gradientTransform="translate(89.7185 33.6578) rotate(95.7868) scale(1.04082 1.20269)">
<stop stop-color="#FFCC00"/>
<stop offset="1" stop-color="#B79300"/>
</radialGradient>
<clipPath id="clip0_1_2927">
<rect width="52.8" height="48" fill="white" transform="translate(59 12)"/>
</clipPath>
</defs>
</svg>
