<svg width="25" height="24" viewBox="0 0 25 24" fill="none" xmlns="http://www.w3.org/2000/svg">
<rect x="1" y="0.5" width="23" height="23" rx="11.5" stroke="#515458"/>
<path d="M17.2622 16.4966C16.6871 16.4829 16.1257 16.4829 15.5506 16.4966C15.4273 16.4966 15.3999 16.4692 15.3999 16.346C15.3999 15.3327 15.3999 14.3057 15.3999 13.2925C15.3999 13.0597 15.3862 12.8269 15.3178 12.6078C15.1124 11.8958 14.2908 11.6356 13.702 12.1149C13.3871 12.3613 13.2639 12.7037 13.2639 13.1144C13.2639 14.0729 13.2639 15.0314 13.2639 15.9899C13.2639 16.1132 13.2502 16.2364 13.2639 16.3733C13.2775 16.4829 13.2228 16.5103 13.1269 16.4966C12.5381 16.4966 11.963 16.4966 11.3742 16.4966C11.2647 16.4966 11.2373 16.4692 11.2373 16.3596C11.251 15.497 11.251 14.6343 11.251 13.758C11.251 12.69 11.251 11.6219 11.2373 10.5676C11.2373 10.4443 11.2647 10.417 11.3742 10.417C11.963 10.417 12.5381 10.417 13.1269 10.417C13.2365 10.417 13.2639 10.4443 13.2639 10.5539C13.2639 10.773 13.2639 10.9921 13.2639 11.2522C13.3049 11.2111 13.3186 11.1974 13.3323 11.1838C13.8663 10.4033 14.6194 10.1842 15.5095 10.3211C16.5364 10.4854 17.1937 11.1974 17.358 12.2929C17.3991 12.553 17.4128 12.8132 17.4128 13.0734C17.4128 14.1688 17.4128 15.2505 17.4128 16.346C17.4128 16.4555 17.3854 16.4966 17.2622 16.4966Z" fill="#515458"/>
<path d="M10.1413 13.4571C10.1413 14.4156 10.1413 15.3741 10.1413 16.3326C10.1413 16.4558 10.1139 16.4969 9.99065 16.4969C9.41555 16.4832 8.84045 16.4969 8.26535 16.4969C8.1558 16.4969 8.12842 16.4695 8.12842 16.3599C8.12842 14.4292 8.12842 12.4849 8.12842 10.5542C8.12842 10.4583 8.1558 10.4172 8.26535 10.4172C8.85414 10.4172 9.44293 10.4172 10.0317 10.4172C10.155 10.4172 10.1687 10.4583 10.1687 10.5679C10.1413 11.5264 10.1413 12.4849 10.1413 13.4571Z" fill="#515458"/>
<path d="M10.2385 8.82875C10.1016 9.37647 9.54014 9.69141 8.89658 9.58186C8.21193 9.47232 7.82853 8.80137 8.07501 8.14411C8.23932 7.73332 8.63641 7.48685 9.14305 7.50054C9.90985 7.48685 10.4165 8.10303 10.2385 8.82875Z" fill="#515458"/>
</svg>
