<svg width="16" height="11" viewBox="0 0 16 11" fill="none" xmlns="http://www.w3.org/2000/svg">
<path d="M14.5938 0.019043H1.40625C0.630844 0.019043 0 0.649886 0 1.42529V9.57472C0 10.3501 0.630844 10.981 1.40625 10.981H14.5938C15.3692 10.981 16 10.3501 16 9.57472V1.42529C16 0.649886 15.3692 0.019043 14.5938 0.019043ZM14.4102 0.956542L14.2225 1.11282L8.55794 5.82973C8.23462 6.09891 7.76531 6.09891 7.44206 5.82973L1.77747 1.11282L1.58978 0.956542H14.4102ZM0.9375 1.63335L5.55288 5.47657L0.9375 8.54822V1.63335ZM14.5938 10.0435H1.40625C1.17975 10.0435 0.990313 9.88197 0.946906 9.66813L6.30456 6.10248L6.84219 6.55016C7.17762 6.82948 7.58884 6.96913 8.00003 6.96913C8.41122 6.96913 8.82241 6.82948 9.15788 6.55016L9.6955 6.10248L15.0531 9.6681C15.0097 9.882 14.8202 10.0435 14.5938 10.0435ZM15.0625 8.54822L10.4471 5.4766L15.0625 1.63335V8.54822Z" fill="#0070F0" fill-opacity="0.9"/>
</svg>
