<svg width="170" height="72" viewBox="0 0 170 72" fill="none" xmlns="http://www.w3.org/2000/svg">
<g clip-path="url(#clip0_1_2876)">
<rect width="116" height="24" transform="translate(27 24)" fill="white"/>
<path d="M143.001 34.8577V32.8817H140.468V29.8097L140.382 29.8352L138.003 30.5404L137.956 30.5542V32.8818H134.2V31.5851C134.2 30.9813 134.34 30.5193 134.614 30.2111C134.887 29.9067 135.277 29.7519 135.775 29.7519C136.133 29.7519 136.503 29.8335 136.876 29.9945L136.969 30.0349V27.9539L136.925 27.9383C136.578 27.8172 136.105 27.7562 135.518 27.7562C134.779 27.7562 134.108 27.912 133.522 28.2207C132.937 28.5298 132.476 28.9711 132.153 29.5321C131.831 30.0926 131.668 30.7398 131.668 31.4561V32.8817H129.904V34.8577H131.668V43.1823H134.2V34.8577H137.956V40.1478C137.956 42.3266 139.017 43.4306 141.109 43.4306C141.453 43.4306 141.815 43.3916 142.185 43.3152C142.561 43.2367 142.817 43.1584 142.968 43.0747L143.001 43.0555V41.0613L142.898 41.1273C142.761 41.2159 142.589 41.2884 142.389 41.3424C142.187 41.3972 142.019 41.4247 141.888 41.4247C141.398 41.4247 141.036 41.2968 140.811 41.0443C140.583 40.7895 140.468 40.344 140.468 39.7208V34.8577H143.001ZM124.249 41.4251C123.33 41.4251 122.605 41.1299 122.094 40.5484C121.58 39.9639 121.32 39.1307 121.32 38.072C121.32 36.9798 121.58 36.1249 122.095 35.5302C122.606 34.9393 123.323 34.6394 124.228 34.6394C125.106 34.6394 125.805 34.9259 126.306 35.4912C126.809 36.0594 127.064 36.9074 127.064 38.0124C127.064 39.1309 126.824 39.9901 126.351 40.5649C125.881 41.1353 125.173 41.4251 124.249 41.4251ZM124.361 32.6335C122.608 32.6335 121.215 33.1312 120.222 34.1128C119.23 35.0945 118.726 36.4531 118.726 38.1511C118.726 39.7638 119.218 41.0611 120.186 42.0061C121.155 42.9515 122.474 43.4304 124.105 43.4304C125.805 43.4304 127.17 42.9258 128.162 41.9306C129.155 40.9365 129.658 39.5908 129.658 37.9325C129.658 36.2945 129.186 34.9876 128.255 34.0488C127.323 33.1096 126.013 32.6335 124.361 32.6335ZM114.643 32.6335C113.451 32.6335 112.464 32.9291 111.71 33.5118C110.952 34.0979 110.567 34.8667 110.567 35.797C110.567 36.2806 110.65 36.7101 110.814 37.0745C110.978 37.44 111.232 37.7618 111.57 38.0319C111.906 38.2999 112.424 38.5805 113.11 38.866C113.686 39.0959 114.117 39.2904 114.39 39.4436C114.657 39.5938 114.846 39.7448 114.953 39.8919C115.057 40.0358 115.11 40.2327 115.11 40.4758C115.11 41.1678 114.575 41.5045 113.474 41.5045C113.066 41.5045 112.6 41.4219 112.09 41.2591C111.583 41.0987 111.105 40.8639 110.672 40.5628L110.567 40.4898V42.8513L110.606 42.8687C110.964 43.0289 111.416 43.164 111.948 43.2703C112.48 43.3767 112.962 43.4309 113.382 43.4309C114.676 43.4309 115.719 43.1339 116.479 42.5477C117.245 41.9575 117.632 41.1706 117.632 40.2082C117.632 39.5138 117.424 38.9184 117.012 38.4382C116.603 37.9619 115.894 37.5247 114.904 37.1382C114.116 36.8316 113.611 36.5772 113.402 36.3819C113.201 36.1932 113.099 35.9264 113.099 35.5884C113.099 35.2889 113.225 35.0489 113.484 34.8545C113.744 34.6592 114.107 34.5599 114.561 34.5599C114.983 34.5599 115.415 34.6244 115.844 34.751C116.273 34.8775 116.65 35.0469 116.965 35.2542L117.068 35.3227V33.0825L117.028 33.066C116.738 32.9455 116.356 32.8423 115.891 32.7586C115.428 32.6755 115.009 32.6335 114.643 32.6335ZM103.966 41.4251C103.047 41.4251 102.322 41.1299 101.811 40.5484C101.297 39.9639 101.037 39.1309 101.037 38.072C101.037 36.9798 101.298 36.1249 101.812 35.5302C102.322 34.9393 103.04 34.6394 103.945 34.6394C104.823 34.6394 105.522 34.9259 106.023 35.4912C106.526 36.0594 106.781 36.9074 106.781 38.0124C106.781 39.1309 106.541 39.9901 106.068 40.5649C105.597 41.1353 104.89 41.4251 103.966 41.4251ZM104.078 32.6335C102.324 32.6335 100.932 33.1312 99.9391 34.1128C98.9466 35.0945 98.4431 36.4531 98.4431 38.1511C98.4431 39.7645 98.9346 41.0611 99.9035 42.0061C100.872 42.9515 102.191 43.4304 103.822 43.4304C105.522 43.4304 106.887 42.9258 107.88 41.9306C108.872 40.9365 109.375 39.5908 109.375 37.9325C109.375 36.2945 108.903 34.9876 107.972 34.0488C107.04 33.1096 105.73 32.6335 104.078 32.6335ZM94.5992 34.6655V32.8817H92.0977V43.1821H94.5992V37.913C94.5992 37.0171 94.8089 36.281 95.2227 35.7251C95.6313 35.1757 96.1758 34.8974 96.8405 34.8974C97.0658 34.8974 97.3188 34.9334 97.5927 35.0045C97.8638 35.0753 98.0602 35.1521 98.176 35.233L98.2811 35.3068V32.8641L98.2406 32.8472C98.0076 32.7514 97.6781 32.703 97.2611 32.703C96.6325 32.703 96.07 32.8986 95.5881 33.2838C95.1652 33.6224 94.8595 34.0866 94.6258 34.6655H94.5992ZM87.6181 32.6335C86.4705 32.6335 85.4468 32.8719 84.5762 33.3418C83.7037 33.8127 83.029 34.4851 82.5699 35.3401C82.1129 36.193 81.8808 37.1892 81.8808 38.3003C81.8808 39.2735 82.1058 40.1666 82.5505 40.9538C82.9954 41.7422 83.6252 42.3591 84.4223 42.7869C85.2184 43.2141 86.1384 43.4308 87.1571 43.4308C88.3459 43.4308 89.3608 43.2005 90.1746 42.7465L90.2075 42.7283V40.5085L90.1023 40.5828C89.7337 40.8429 89.3218 41.0505 88.8785 41.2001C88.4364 41.3495 88.0334 41.4251 87.6799 41.4251C86.6984 41.4251 85.9104 41.1276 85.3384 40.5411C84.7653 39.9538 84.4746 39.1292 84.4746 38.0915C84.4746 37.0473 84.7777 36.2015 85.375 35.5773C85.9705 34.9551 86.76 34.6394 87.7212 34.6394C88.5434 34.6394 89.3446 34.9091 90.1026 35.4417L90.2075 35.5155V33.1766L90.1736 33.1581C89.8884 33.0034 89.4993 32.8757 89.0163 32.7789C88.5354 32.6822 88.065 32.6335 87.6181 32.6335ZM80.158 32.8818H77.6566V43.1821H80.158V32.8818ZM78.9329 28.4938C78.5212 28.4938 78.1621 28.6296 77.8671 28.8986C77.5708 29.1683 77.4206 29.508 77.4206 29.9089C77.4206 30.3034 77.569 30.6369 77.8625 30.8995C78.154 31.1613 78.5142 31.294 78.933 31.294C79.3517 31.294 79.7132 31.1613 80.0082 30.8999C80.3051 30.6369 80.4557 30.3035 80.4557 29.9089C80.4557 29.522 80.3092 29.1858 80.0204 28.9094C79.7319 28.6336 79.3659 28.4938 78.9329 28.4938ZM72.6916 32.1218V43.1821H75.2444V28.8091H71.7112L67.2202 39.4849L62.8619 28.8091H59.1848V43.182H61.5838V32.1207H61.6662L66.2684 43.1821H68.0788L72.6092 32.1218H72.6916Z" fill="#565555"/>
<path d="M38.7676 35.406H27V24.0077H38.7676V35.406Z" fill="#F1511B"/>
<path d="M51.761 35.4044H39.9937V24.0061H51.761V35.4044Z" fill="#80CC28"/>
<path d="M38.7672 47.9939H27V36.5957H38.7672V47.9939Z" fill="#00ADEF"/>
<path d="M51.761 47.9939H39.9937V36.5957H51.761V47.9939Z" fill="#FBBC09"/>
</g>
<defs>
<clipPath id="clip0_1_2876">
<rect width="116" height="24" fill="white" transform="translate(27 24)"/>
</clipPath>
</defs>
</svg>
