<svg width="170" height="72" viewBox="0 0 170 72" fill="none" xmlns="http://www.w3.org/2000/svg">
<g clip-path="url(#clip0_1_2854)">
<rect width="105" height="22" transform="translate(33 25)" fill="white"/>
<path d="M44.5609 25.0958C38.2003 25.0958 33.0513 29.9741 33.0513 36.0002C33.0513 42.0263 38.2003 46.9045 44.5609 46.9045C50.9215 46.9045 56.0705 42.0263 56.0705 36.0002C56.0705 29.9741 50.9215 25.0958 44.5609 25.0958ZM44.5609 44.306C39.7147 44.306 35.7941 40.5915 35.7941 36.0002C35.7941 31.4089 39.7147 27.6944 44.5609 27.6944C49.4071 27.6944 53.3277 31.4089 53.3277 36.0002C53.3277 40.5915 49.4071 44.306 44.5609 44.306Z" fill="#2456A6"/>
<path d="M49.5587 33.178C49.4914 33.0505 49.3399 32.9867 49.2053 32.9867H39.9337C39.7486 32.9867 39.5803 33.0983 39.5298 33.2736C39.4793 33.449 39.5635 33.6244 39.7149 33.72L44.1572 36.2867V40.9896C44.1572 41.165 44.2918 41.3244 44.4601 41.3722C44.4938 41.3881 44.5274 41.3881 44.5611 41.3881C44.7125 41.3881 44.8471 41.3084 44.9144 41.1968L49.5419 33.5925C49.6428 33.449 49.6428 33.3055 49.5587 33.178Z" fill="#2456A6"/>
<path d="M70.5745 39.0609C70.5745 40.129 70.1706 41.0377 69.3461 41.7869C68.5216 42.5362 67.5456 42.9188 66.4014 42.9188H65.8293C64.6682 42.9188 63.6754 42.5362 62.8509 41.7869C62.0264 41.0377 61.6226 40.113 61.6226 39.0609V32.4609C61.6226 31.3927 62.0264 30.5 62.8509 29.7507C63.6754 29.0014 64.6682 28.6348 65.8293 28.6348H66.4014C67.5625 28.6348 68.5216 29.0014 69.3461 29.7507C70.1706 30.5 70.5745 31.4087 70.5745 32.4609V39.0609ZM67.4447 32.8753C67.4447 31.9826 66.8221 31.313 66.149 31.313C65.4759 31.313 64.8028 31.9985 64.8028 32.8753V38.7101C64.8028 39.6029 65.4591 40.2406 66.149 40.2406C66.8726 40.2406 67.4447 39.6029 67.4447 38.7101V32.8753Z" fill="#2456A6"/>
<path d="M81.8479 33.4173C81.8479 34.4854 81.4441 35.3781 80.6364 36.1274C79.8455 36.8767 78.8527 37.2434 77.7085 37.2434H76.4128C76.2445 37.2434 76.1772 37.3071 76.1772 37.4666V42.0579C76.1772 42.4245 75.8239 42.7434 75.4032 42.7434H73.8215C73.4008 42.7434 73.0979 42.4245 73.0979 42.0579V29.4955C73.0979 29.0651 73.3335 28.8419 73.8215 28.8419H77.6917C78.8527 28.8419 79.8455 29.2245 80.6195 29.9738C81.4272 30.7231 81.8311 31.6318 81.8311 32.6839V33.4173H81.8479ZM78.7518 32.4926C78.7518 31.8868 78.1796 31.3926 77.5066 31.3926H76.4969C76.3118 31.3926 76.2277 31.4564 76.2277 31.5839V34.5332C76.2277 34.6767 76.3118 34.7405 76.4969 34.7405H77.5066C78.1796 34.7405 78.7518 34.2303 78.7518 33.6245V32.4926Z" fill="#2456A6"/>
<path d="M91.9964 42.0104C91.9964 42.3771 91.6263 42.7278 91.2056 42.7278H84.9964C84.5758 42.7278 84.2056 42.3771 84.2056 42.0104V29.5278C84.2056 29.1293 84.5421 28.8104 84.9964 28.8104H91.0205C91.4412 28.8104 91.8114 29.1293 91.8114 29.5278V30.7075C91.8114 31.0742 91.4412 31.4249 91.0205 31.4249H87.5541C87.369 31.4249 87.2849 31.4887 87.2849 31.6481V33.9438C87.2849 34.0872 87.369 34.151 87.5541 34.151H90.1791C90.5998 34.151 90.97 34.4698 90.97 34.8684V36.0162C90.97 36.3829 90.5998 36.7336 90.1791 36.7336H87.5541C87.369 36.7336 87.2849 36.8133 87.2849 36.9727V39.8104C87.2849 39.9698 87.369 40.0496 87.5541 40.0496H91.2056C91.6263 40.0496 91.9964 40.4003 91.9964 40.7669V42.0104Z" fill="#2456A6"/>
<path d="M103.639 42.0423C103.639 42.409 103.303 42.7278 102.882 42.7278H101.452C101.115 42.7278 100.863 42.5365 100.678 42.1698L97.3966 35.4423V42.0423C97.3966 42.409 97.0432 42.7278 96.6225 42.7278H95.1249C94.7043 42.7278 94.4014 42.409 94.4014 42.0423V29.5119C94.4014 29.1133 94.6874 28.8104 95.1249 28.8104H96.6225C97.0095 28.8104 97.2788 29.0177 97.4807 29.4162L100.661 35.9046V29.5278C100.661 29.1293 101.031 28.8104 101.452 28.8104H102.882C103.303 28.8104 103.639 29.1293 103.639 29.5278V42.0423Z" fill="#2456A6"/>
<path d="M115.082 42.0101C115.082 42.3768 114.745 42.7275 114.308 42.7275H114.039C113.685 42.7275 113.399 42.4565 113.18 41.8985C113.18 41.9145 113.18 41.9304 113.164 41.9464C112.625 42.584 111.868 42.9188 110.875 42.9188H110.539C109.243 42.9188 108.183 42.5203 107.392 41.7391C106.601 40.958 106.197 40.0014 106.197 38.8695V32.6362C106.197 31.5362 106.618 30.5956 107.459 29.8145C108.317 29.0333 109.344 28.6348 110.539 28.6348H110.707C111.902 28.6348 112.928 29.0333 113.753 29.8145C114.594 30.5956 115.015 31.5362 115.015 32.6362V33.1942C115.015 33.5927 114.661 33.9116 114.241 33.9116H112.827C112.406 33.9116 112.036 33.529 112.036 33.1942V33.0029C112.036 32.0782 111.38 31.3449 110.656 31.3449C109.916 31.3449 109.277 32.0782 109.277 33.0029V38.5985C109.277 39.5869 109.798 40.2087 110.656 40.2087C111.565 40.2087 112.036 39.6666 112.036 38.5985V38.0406C112.036 37.8811 111.952 37.8174 111.784 37.8174H111.027C110.64 37.8174 110.236 37.4826 110.236 37.084V36.1753C110.236 35.8087 110.589 35.458 111.027 35.458H114.308C114.745 35.458 115.082 35.8406 115.082 36.1753V42.0101Z" fill="#2456A6"/>
<path d="M126.557 39.0609C126.557 40.129 126.153 41.0377 125.328 41.7869C124.504 42.5362 123.528 42.9188 122.384 42.9188H121.811C120.65 42.9188 119.658 42.5362 118.833 41.7869C118.009 41.0377 117.605 40.113 117.605 39.0609V32.4609C117.605 31.3927 118.009 30.5 118.833 29.7507C119.658 29.0014 120.65 28.6348 121.811 28.6348H122.384C123.545 28.6348 124.504 29.0014 125.328 29.7507C126.153 30.5 126.557 31.4087 126.557 32.4609V39.0609ZM123.41 32.8753C123.41 31.9826 122.787 31.313 122.114 31.313C121.441 31.313 120.768 31.9985 120.768 32.8753V38.7101C120.768 39.6029 121.424 40.2406 122.114 40.2406C122.838 40.2406 123.41 39.6029 123.41 38.7101V32.8753Z" fill="#2456A6"/>
<path d="M135.156 42.0901C135.072 42.5205 134.802 42.7277 134.382 42.7277H132.194C131.807 42.7277 131.555 42.5205 131.454 42.0901L128.61 29.6393C128.593 29.5915 128.593 29.5118 128.593 29.464C128.593 29.0335 128.812 28.8263 129.233 28.8263H130.764C131.185 28.8263 131.42 29.0176 131.521 29.3843L133.322 37.706L135.088 29.3843C135.173 29.0176 135.442 28.8263 135.862 28.8263H137.377C137.798 28.8263 138 29.0176 138 29.4002C138 29.464 137.983 29.5596 137.966 29.6393L135.156 42.0901Z" fill="#2456A6"/>
</g>
<defs>
<clipPath id="clip0_1_2854">
<rect width="105" height="22" fill="white" transform="translate(33 25)"/>
</clipPath>
</defs>
</svg>
