<svg width="618" height="496" viewBox="0 0 618 496" fill="none" xmlns="http://www.w3.org/2000/svg">
<g filter="url(#filter0_d_1_2692)">
<rect x="20" y="16" width="578" height="456" rx="16" fill="white" shape-rendering="crispEdges"/>
<path d="M57.808 52.66V53.776H54.268V56.236H57.028V57.352H54.268V61H52.9V52.66H57.808ZM59.7718 53.512C59.5238 53.512 59.3158 53.428 59.1478 53.26C58.9798 53.092 58.8958 52.884 58.8958 52.636C58.8958 52.388 58.9798 52.18 59.1478 52.012C59.3158 51.844 59.5238 51.76 59.7718 51.76C60.0118 51.76 60.2158 51.844 60.3838 52.012C60.5518 52.18 60.6358 52.388 60.6358 52.636C60.6358 52.884 60.5518 53.092 60.3838 53.26C60.2158 53.428 60.0118 53.512 59.7718 53.512ZM60.4438 54.388V61H59.0758V54.388H60.4438ZM63.6078 55.348C63.8078 55.012 64.0718 54.752 64.3998 54.568C64.7358 54.376 65.1318 54.28 65.5878 54.28V55.696H65.2398C64.7038 55.696 64.2958 55.832 64.0158 56.104C63.7438 56.376 63.6078 56.848 63.6078 57.52V61H62.2398V54.388H63.6078V55.348ZM69.2453 61.108C68.7253 61.108 68.2573 61.016 67.8413 60.832C67.4333 60.64 67.1093 60.384 66.8693 60.064C66.6293 59.736 66.5013 59.372 66.4853 58.972H67.9013C67.9253 59.252 68.0573 59.488 68.2973 59.68C68.5453 59.864 68.8533 59.956 69.2213 59.956C69.6053 59.956 69.9013 59.884 70.1093 59.74C70.3253 59.588 70.4333 59.396 70.4333 59.164C70.4333 58.916 70.3133 58.732 70.0733 58.612C69.8413 58.492 69.4693 58.36 68.9573 58.216C68.4613 58.08 68.0573 57.948 67.7453 57.82C67.4333 57.692 67.1613 57.496 66.9293 57.232C66.7053 56.968 66.5933 56.62 66.5933 56.188C66.5933 55.836 66.6973 55.516 66.9053 55.228C67.1133 54.932 67.4093 54.7 67.7933 54.532C68.1853 54.364 68.6333 54.28 69.1373 54.28C69.8893 54.28 70.4933 54.472 70.9493 54.856C71.4133 55.232 71.6613 55.748 71.6933 56.404H70.3253C70.3013 56.108 70.1813 55.872 69.9653 55.696C69.7493 55.52 69.4573 55.432 69.0893 55.432C68.7293 55.432 68.4533 55.5 68.2613 55.636C68.0693 55.772 67.9733 55.952 67.9733 56.176C67.9733 56.352 68.0373 56.5 68.1653 56.62C68.2933 56.74 68.4493 56.836 68.6333 56.908C68.8173 56.972 69.0893 57.056 69.4493 57.16C69.9293 57.288 70.3213 57.42 70.6253 57.556C70.9373 57.684 71.2053 57.876 71.4293 58.132C71.6533 58.388 71.7693 58.728 71.7773 59.152C71.7773 59.528 71.6733 59.864 71.4653 60.16C71.2573 60.456 70.9613 60.688 70.5773 60.856C70.2013 61.024 69.7573 61.108 69.2453 61.108ZM74.8515 55.504V59.164C74.8515 59.412 74.9075 59.592 75.0195 59.704C75.1395 59.808 75.3395 59.86 75.6195 59.86H76.4595V61H75.3795C74.7635 61 74.2915 60.856 73.9635 60.568C73.6355 60.28 73.4715 59.812 73.4715 59.164V55.504H72.6915V54.388H73.4715V52.744H74.8515V54.388H76.4595V55.504H74.8515ZM84.1735 54.28C84.6935 54.28 85.1575 54.388 85.5655 54.604C85.9815 54.82 86.3055 55.14 86.5375 55.564C86.7695 55.988 86.8855 56.5 86.8855 57.1V61H85.5295V57.304C85.5295 56.712 85.3815 56.26 85.0855 55.948C84.7895 55.628 84.3855 55.468 83.8735 55.468C83.3615 55.468 82.9535 55.628 82.6495 55.948C82.3535 56.26 82.2055 56.712 82.2055 57.304V61H80.8375V54.388H82.2055V55.144C82.4295 54.872 82.7135 54.66 83.0575 54.508C83.4095 54.356 83.7815 54.28 84.1735 54.28ZM88.1745 57.664C88.1745 57 88.3105 56.412 88.5825 55.9C88.8625 55.388 89.2385 54.992 89.7105 54.712C90.1905 54.424 90.7185 54.28 91.2945 54.28C91.8145 54.28 92.2665 54.384 92.6505 54.592C93.0425 54.792 93.3545 55.044 93.5865 55.348V54.388H94.9665V61H93.5865V60.016C93.3545 60.328 93.0385 60.588 92.6385 60.796C92.2385 61.004 91.7825 61.108 91.2705 61.108C90.7025 61.108 90.1825 60.964 89.7105 60.676C89.2385 60.38 88.8625 59.972 88.5825 59.452C88.3105 58.924 88.1745 58.328 88.1745 57.664ZM93.5865 57.688C93.5865 57.232 93.4905 56.836 93.2985 56.5C93.1145 56.164 92.8705 55.908 92.5665 55.732C92.2625 55.556 91.9345 55.468 91.5825 55.468C91.2305 55.468 90.9025 55.556 90.5985 55.732C90.2945 55.9 90.0465 56.152 89.8545 56.488C89.6705 56.816 89.5785 57.208 89.5785 57.664C89.5785 58.12 89.6705 58.52 89.8545 58.864C90.0465 59.208 90.2945 59.472 90.5985 59.656C90.9105 59.832 91.2385 59.92 91.5825 59.92C91.9345 59.92 92.2625 59.832 92.5665 59.656C92.8705 59.48 93.1145 59.224 93.2985 58.888C93.4905 58.544 93.5865 58.144 93.5865 57.688ZM104.767 54.28C105.287 54.28 105.751 54.388 106.159 54.604C106.575 54.82 106.899 55.14 107.131 55.564C107.371 55.988 107.491 56.5 107.491 57.1V61H106.135V57.304C106.135 56.712 105.987 56.26 105.691 55.948C105.395 55.628 104.991 55.468 104.479 55.468C103.967 55.468 103.559 55.628 103.255 55.948C102.959 56.26 102.811 56.712 102.811 57.304V61H101.455V57.304C101.455 56.712 101.307 56.26 101.011 55.948C100.715 55.628 100.311 55.468 99.7993 55.468C99.2873 55.468 98.8793 55.628 98.5753 55.948C98.2793 56.26 98.1313 56.712 98.1313 57.304V61H96.7633V54.388H98.1313V55.144C98.3553 54.872 98.6393 54.66 98.9833 54.508C99.3273 54.356 99.6953 54.28 100.087 54.28C100.615 54.28 101.087 54.392 101.503 54.616C101.919 54.84 102.239 55.164 102.463 55.588C102.663 55.188 102.975 54.872 103.399 54.64C103.823 54.4 104.279 54.28 104.767 54.28ZM115.292 57.532C115.292 57.78 115.276 58.004 115.244 58.204H110.192C110.232 58.732 110.428 59.156 110.78 59.476C111.132 59.796 111.564 59.956 112.076 59.956C112.812 59.956 113.332 59.648 113.636 59.032H115.112C114.912 59.64 114.548 60.14 114.02 60.532C113.5 60.916 112.852 61.108 112.076 61.108C111.444 61.108 110.876 60.968 110.372 60.688C109.876 60.4 109.484 60 109.196 59.488C108.916 58.968 108.776 58.368 108.776 57.688C108.776 57.008 108.912 56.412 109.184 55.9C109.464 55.38 109.852 54.98 110.348 54.7C110.852 54.42 111.428 54.28 112.076 54.28C112.7 54.28 113.256 54.416 113.744 54.688C114.232 54.96 114.612 55.344 114.884 55.84C115.156 56.328 115.292 56.892 115.292 57.532ZM113.864 57.1C113.856 56.596 113.676 56.192 113.324 55.888C112.972 55.584 112.536 55.432 112.016 55.432C111.544 55.432 111.14 55.584 110.804 55.888C110.468 56.184 110.268 56.588 110.204 57.1H113.864Z" fill="#515458"/>
<rect x="52.5" y="70.5" width="246" height="47" rx="7.5" fill="white"/>
<rect x="52.5" y="70.5" width="246" height="47" rx="7.5" stroke="#B7BFC7"/>
<path d="M73.232 95.28C73.232 95.5573 73.216 95.8507 73.184 96.16H66.176C66.2293 97.024 66.5227 97.7013 67.056 98.192C67.6 98.672 68.256 98.912 69.024 98.912C69.6533 98.912 70.176 98.768 70.592 98.48C71.0187 98.1813 71.3173 97.7867 71.488 97.296H73.056C72.8213 98.1387 72.352 98.8267 71.648 99.36C70.944 99.8827 70.0693 100.144 69.024 100.144C68.192 100.144 67.4453 99.9573 66.784 99.584C66.1333 99.2107 65.6213 98.6827 65.248 98C64.8747 97.3067 64.688 96.5067 64.688 95.6C64.688 94.6933 64.8693 93.8987 65.232 93.216C65.5947 92.5333 66.1013 92.0107 66.752 91.648C67.4133 91.2747 68.1707 91.088 69.024 91.088C69.856 91.088 70.592 91.2693 71.232 91.632C71.872 91.9947 72.3627 92.496 72.704 93.136C73.056 93.7653 73.232 94.48 73.232 95.28ZM71.728 94.976C71.728 94.4213 71.6053 93.9467 71.36 93.552C71.1147 93.1467 70.7787 92.8427 70.352 92.64C69.936 92.4267 69.472 92.32 68.96 92.32C68.224 92.32 67.5947 92.5547 67.072 93.024C66.56 93.4933 66.2667 94.144 66.192 94.976H71.728ZM79.4259 91.072C80.4925 91.072 81.3565 91.3973 82.0179 92.048C82.6792 92.688 83.0099 93.616 83.0099 94.832V100H81.5699V95.04C81.5699 94.1653 81.3512 93.4987 80.9139 93.04C80.4765 92.5707 79.8792 92.336 79.1219 92.336C78.3539 92.336 77.7405 92.576 77.2819 93.056C76.8339 93.536 76.6099 94.2347 76.6099 95.152V100H75.1539V91.232H76.6099V92.48C76.8979 92.032 77.2872 91.6853 77.7779 91.44C78.2792 91.1947 78.8285 91.072 79.4259 91.072ZM87.1643 92.432V97.6C87.1643 98.0267 87.2549 98.3307 87.4363 98.512C87.6176 98.6827 87.9323 98.768 88.3802 98.768H89.4523V100H88.1403C87.3296 100 86.7216 99.8133 86.3163 99.44C85.9109 99.0667 85.7083 98.4533 85.7083 97.6V92.432H84.5723V91.232H85.7083V89.024H87.1643V91.232H89.4523V92.432H87.1643ZM99.2164 95.28C99.2164 95.5573 99.2004 95.8507 99.1684 96.16H92.1604C92.2137 97.024 92.507 97.7013 93.0404 98.192C93.5844 98.672 94.2404 98.912 95.0084 98.912C95.6377 98.912 96.1604 98.768 96.5764 98.48C97.003 98.1813 97.3017 97.7867 97.4724 97.296H99.0404C98.8057 98.1387 98.3364 98.8267 97.6324 99.36C96.9284 99.8827 96.0537 100.144 95.0084 100.144C94.1764 100.144 93.4297 99.9573 92.7684 99.584C92.1177 99.2107 91.6057 98.6827 91.2324 98C90.859 97.3067 90.6724 96.5067 90.6724 95.6C90.6724 94.6933 90.8537 93.8987 91.2164 93.216C91.579 92.5333 92.0857 92.0107 92.7364 91.648C93.3977 91.2747 94.155 91.088 95.0084 91.088C95.8404 91.088 96.5764 91.2693 97.2164 91.632C97.8564 91.9947 98.347 92.496 98.6884 93.136C99.0404 93.7653 99.2164 94.48 99.2164 95.28ZM97.7124 94.976C97.7124 94.4213 97.5897 93.9467 97.3444 93.552C97.099 93.1467 96.763 92.8427 96.3364 92.64C95.9204 92.4267 95.4564 92.32 94.9444 92.32C94.2084 92.32 93.579 92.5547 93.0564 93.024C92.5444 93.4933 92.251 94.144 92.1764 94.976H97.7124ZM102.594 92.656C102.85 92.1547 103.213 91.7653 103.682 91.488C104.162 91.2107 104.744 91.072 105.426 91.072V92.576H105.042C103.41 92.576 102.594 93.4613 102.594 95.232V100H101.138V91.232H102.594V92.656ZM114.941 92.432H113.101V100H111.645V92.432H110.509V91.232H111.645V90.608C111.645 89.6267 111.895 88.912 112.397 88.464C112.909 88.0053 113.725 87.776 114.845 87.776V88.992C114.205 88.992 113.751 89.12 113.485 89.376C113.229 89.6213 113.101 90.032 113.101 90.608V91.232H114.941V92.432ZM117.39 89.808C117.113 89.808 116.878 89.712 116.686 89.52C116.494 89.328 116.398 89.0933 116.398 88.816C116.398 88.5387 116.494 88.304 116.686 88.112C116.878 87.92 117.113 87.824 117.39 87.824C117.657 87.824 117.881 87.92 118.062 88.112C118.254 88.304 118.35 88.5387 118.35 88.816C118.35 89.0933 118.254 89.328 118.062 89.52C117.881 89.712 117.657 89.808 117.39 89.808ZM118.094 91.232V100H116.638V91.232H118.094ZM122.032 92.656C122.288 92.1547 122.65 91.7653 123.12 91.488C123.6 91.2107 124.181 91.072 124.864 91.072V92.576H124.48C122.848 92.576 122.032 93.4613 122.032 95.232V100H120.576V91.232H122.032V92.656ZM129.649 100.144C128.977 100.144 128.374 100.032 127.841 99.808C127.307 99.5733 126.886 99.2533 126.577 98.848C126.267 98.432 126.097 97.9573 126.065 97.424H127.569C127.611 97.8613 127.814 98.2187 128.177 98.496C128.55 98.7733 129.035 98.912 129.633 98.912C130.187 98.912 130.625 98.7893 130.945 98.544C131.265 98.2987 131.425 97.9893 131.425 97.616C131.425 97.232 131.254 96.9493 130.913 96.768C130.571 96.576 130.043 96.3893 129.329 96.208C128.678 96.0373 128.145 95.8667 127.729 95.696C127.323 95.5147 126.971 95.2533 126.673 94.912C126.385 94.56 126.241 94.1013 126.241 93.536C126.241 93.088 126.374 92.6773 126.641 92.304C126.907 91.9307 127.286 91.6373 127.777 91.424C128.267 91.2 128.827 91.088 129.457 91.088C130.427 91.088 131.211 91.3333 131.809 91.824C132.406 92.3147 132.726 92.9867 132.769 93.84H131.313C131.281 93.3813 131.094 93.0133 130.753 92.736C130.422 92.4587 129.974 92.32 129.409 92.32C128.886 92.32 128.47 92.432 128.161 92.656C127.851 92.88 127.697 93.1733 127.697 93.536C127.697 93.824 127.787 94.064 127.969 94.256C128.161 94.4373 128.395 94.5867 128.673 94.704C128.961 94.8107 129.355 94.9333 129.857 95.072C130.486 95.2427 130.998 95.4133 131.393 95.584C131.787 95.744 132.123 95.9893 132.401 96.32C132.689 96.6507 132.838 97.0827 132.849 97.616C132.849 98.096 132.715 98.528 132.449 98.912C132.182 99.296 131.803 99.6 131.313 99.824C130.833 100.037 130.278 100.144 129.649 100.144ZM136.68 92.432V97.6C136.68 98.0267 136.771 98.3307 136.952 98.512C137.133 98.6827 137.448 98.768 137.896 98.768H138.968V100H137.656C136.845 100 136.237 99.8133 135.832 99.44C135.427 99.0667 135.224 98.4533 135.224 97.6V92.432H134.088V91.232H135.224V89.024H136.68V91.232H138.968V92.432H136.68ZM149.27 91.072C150.336 91.072 151.2 91.3973 151.862 92.048C152.523 92.688 152.854 93.616 152.854 94.832V100H151.414V95.04C151.414 94.1653 151.195 93.4987 150.758 93.04C150.32 92.5707 149.723 92.336 148.966 92.336C148.198 92.336 147.584 92.576 147.126 93.056C146.678 93.536 146.454 94.2347 146.454 95.152V100H144.998V91.232H146.454V92.48C146.742 92.032 147.131 91.6853 147.622 91.44C148.123 91.1947 148.672 91.072 149.27 91.072ZM154.688 95.584C154.688 94.688 154.869 93.904 155.232 93.232C155.595 92.5493 156.091 92.0213 156.72 91.648C157.36 91.2747 158.069 91.088 158.848 91.088C159.616 91.088 160.283 91.2533 160.848 91.584C161.413 91.9147 161.835 92.3307 162.112 92.832V91.232H163.584V100H162.112V98.368C161.824 98.88 161.392 99.3067 160.816 99.648C160.251 99.9787 159.589 100.144 158.832 100.144C158.053 100.144 157.349 99.952 156.72 99.568C156.091 99.184 155.595 98.6453 155.232 97.952C154.869 97.2587 154.688 96.4693 154.688 95.584ZM162.112 95.6C162.112 94.9387 161.979 94.3627 161.712 93.872C161.445 93.3813 161.083 93.008 160.624 92.752C160.176 92.4853 159.68 92.352 159.136 92.352C158.592 92.352 158.096 92.48 157.648 92.736C157.2 92.992 156.843 93.3653 156.576 93.856C156.309 94.3467 156.176 94.9227 156.176 95.584C156.176 96.256 156.309 96.8427 156.576 97.344C156.843 97.8347 157.2 98.2133 157.648 98.48C158.096 98.736 158.592 98.864 159.136 98.864C159.68 98.864 160.176 98.736 160.624 98.48C161.083 98.2133 161.445 97.8347 161.712 97.344C161.979 96.8427 162.112 96.2613 162.112 95.6ZM176.589 91.072C177.271 91.072 177.879 91.216 178.413 91.504C178.946 91.7813 179.367 92.2027 179.677 92.768C179.986 93.3333 180.141 94.0213 180.141 94.832V100H178.701V95.04C178.701 94.1653 178.482 93.4987 178.045 93.04C177.618 92.5707 177.037 92.336 176.301 92.336C175.543 92.336 174.941 92.5813 174.493 93.072C174.045 93.552 173.821 94.2507 173.821 95.168V100H172.381V95.04C172.381 94.1653 172.162 93.4987 171.725 93.04C171.298 92.5707 170.717 92.336 169.981 92.336C169.223 92.336 168.621 92.5813 168.173 93.072C167.725 93.552 167.501 94.2507 167.501 95.168V100H166.045V91.232H167.501V92.496C167.789 92.0373 168.173 91.6853 168.653 91.44C169.143 91.1947 169.682 91.072 170.269 91.072C171.005 91.072 171.655 91.2373 172.221 91.568C172.786 91.8987 173.207 92.384 173.485 93.024C173.73 92.4053 174.135 91.9253 174.701 91.584C175.266 91.2427 175.895 91.072 176.589 91.072ZM190.529 95.28C190.529 95.5573 190.513 95.8507 190.481 96.16H183.473C183.526 97.024 183.82 97.7013 184.353 98.192C184.897 98.672 185.553 98.912 186.321 98.912C186.95 98.912 187.473 98.768 187.889 98.48C188.316 98.1813 188.614 97.7867 188.785 97.296H190.353C190.118 98.1387 189.649 98.8267 188.945 99.36C188.241 99.8827 187.366 100.144 186.321 100.144C185.489 100.144 184.742 99.9573 184.081 99.584C183.43 99.2107 182.918 98.6827 182.545 98C182.172 97.3067 181.985 96.5067 181.985 95.6C181.985 94.6933 182.166 93.8987 182.529 93.216C182.892 92.5333 183.398 92.0107 184.049 91.648C184.71 91.2747 185.468 91.088 186.321 91.088C187.153 91.088 187.889 91.2693 188.529 91.632C189.169 91.9947 189.66 92.496 190.001 93.136C190.353 93.7653 190.529 94.48 190.529 95.28ZM189.025 94.976C189.025 94.4213 188.902 93.9467 188.657 93.552C188.412 93.1467 188.076 92.8427 187.649 92.64C187.233 92.4267 186.769 92.32 186.257 92.32C185.521 92.32 184.892 92.5547 184.369 93.024C183.857 93.4933 183.564 94.144 183.489 94.976H189.025Z" fill="#575757"/>
<path d="M321.268 59.896H324.088V61H319.9V52.66H321.268V59.896ZM324.776 57.664C324.776 57 324.912 56.412 325.184 55.9C325.464 55.388 325.84 54.992 326.312 54.712C326.792 54.424 327.32 54.28 327.896 54.28C328.416 54.28 328.868 54.384 329.252 54.592C329.644 54.792 329.956 55.044 330.188 55.348V54.388H331.568V61H330.188V60.016C329.956 60.328 329.64 60.588 329.24 60.796C328.84 61.004 328.384 61.108 327.872 61.108C327.304 61.108 326.784 60.964 326.312 60.676C325.84 60.38 325.464 59.972 325.184 59.452C324.912 58.924 324.776 58.328 324.776 57.664ZM330.188 57.688C330.188 57.232 330.092 56.836 329.9 56.5C329.716 56.164 329.472 55.908 329.168 55.732C328.864 55.556 328.536 55.468 328.184 55.468C327.832 55.468 327.504 55.556 327.2 55.732C326.896 55.9 326.648 56.152 326.456 56.488C326.272 56.816 326.18 57.208 326.18 57.664C326.18 58.12 326.272 58.52 326.456 58.864C326.648 59.208 326.896 59.472 327.2 59.656C327.512 59.832 327.84 59.92 328.184 59.92C328.536 59.92 328.864 59.832 329.168 59.656C329.472 59.48 329.716 59.224 329.9 58.888C330.092 58.544 330.188 58.144 330.188 57.688ZM335.765 61.108C335.245 61.108 334.777 61.016 334.361 60.832C333.953 60.64 333.629 60.384 333.389 60.064C333.149 59.736 333.021 59.372 333.005 58.972H334.421C334.445 59.252 334.577 59.488 334.817 59.68C335.065 59.864 335.373 59.956 335.741 59.956C336.125 59.956 336.421 59.884 336.629 59.74C336.845 59.588 336.953 59.396 336.953 59.164C336.953 58.916 336.833 58.732 336.593 58.612C336.361 58.492 335.989 58.36 335.477 58.216C334.981 58.08 334.577 57.948 334.265 57.82C333.953 57.692 333.681 57.496 333.449 57.232C333.225 56.968 333.113 56.62 333.113 56.188C333.113 55.836 333.217 55.516 333.425 55.228C333.633 54.932 333.929 54.7 334.313 54.532C334.705 54.364 335.153 54.28 335.657 54.28C336.409 54.28 337.013 54.472 337.469 54.856C337.933 55.232 338.181 55.748 338.213 56.404H336.845C336.821 56.108 336.701 55.872 336.485 55.696C336.269 55.52 335.977 55.432 335.609 55.432C335.249 55.432 334.973 55.5 334.781 55.636C334.589 55.772 334.493 55.952 334.493 56.176C334.493 56.352 334.557 56.5 334.685 56.62C334.813 56.74 334.969 56.836 335.153 56.908C335.337 56.972 335.609 57.056 335.969 57.16C336.449 57.288 336.841 57.42 337.145 57.556C337.457 57.684 337.725 57.876 337.949 58.132C338.173 58.388 338.289 58.728 338.297 59.152C338.297 59.528 338.193 59.864 337.985 60.16C337.777 60.456 337.481 60.688 337.097 60.856C336.721 61.024 336.277 61.108 335.765 61.108ZM341.371 55.504V59.164C341.371 59.412 341.427 59.592 341.539 59.704C341.659 59.808 341.859 59.86 342.139 59.86H342.979V61H341.899C341.283 61 340.811 60.856 340.483 60.568C340.155 60.28 339.991 59.812 339.991 59.164V55.504H339.211V54.388H339.991V52.744H341.371V54.388H342.979V55.504H341.371ZM350.693 54.28C351.213 54.28 351.677 54.388 352.085 54.604C352.501 54.82 352.825 55.14 353.057 55.564C353.289 55.988 353.405 56.5 353.405 57.1V61H352.049V57.304C352.049 56.712 351.901 56.26 351.605 55.948C351.309 55.628 350.905 55.468 350.393 55.468C349.881 55.468 349.473 55.628 349.169 55.948C348.873 56.26 348.725 56.712 348.725 57.304V61H347.357V54.388H348.725V55.144C348.949 54.872 349.233 54.66 349.577 54.508C349.929 54.356 350.301 54.28 350.693 54.28ZM354.694 57.664C354.694 57 354.83 56.412 355.102 55.9C355.382 55.388 355.758 54.992 356.23 54.712C356.71 54.424 357.238 54.28 357.814 54.28C358.334 54.28 358.786 54.384 359.17 54.592C359.562 54.792 359.874 55.044 360.106 55.348V54.388H361.486V61H360.106V60.016C359.874 60.328 359.558 60.588 359.158 60.796C358.758 61.004 358.302 61.108 357.79 61.108C357.222 61.108 356.702 60.964 356.23 60.676C355.758 60.38 355.382 59.972 355.102 59.452C354.83 58.924 354.694 58.328 354.694 57.664ZM360.106 57.688C360.106 57.232 360.01 56.836 359.818 56.5C359.634 56.164 359.39 55.908 359.086 55.732C358.782 55.556 358.454 55.468 358.102 55.468C357.75 55.468 357.422 55.556 357.118 55.732C356.814 55.9 356.566 56.152 356.374 56.488C356.19 56.816 356.098 57.208 356.098 57.664C356.098 58.12 356.19 58.52 356.374 58.864C356.566 59.208 356.814 59.472 357.118 59.656C357.43 59.832 357.758 59.92 358.102 59.92C358.454 59.92 358.782 59.832 359.086 59.656C359.39 59.48 359.634 59.224 359.818 58.888C360.01 58.544 360.106 58.144 360.106 57.688ZM371.287 54.28C371.807 54.28 372.271 54.388 372.679 54.604C373.095 54.82 373.419 55.14 373.651 55.564C373.891 55.988 374.011 56.5 374.011 57.1V61H372.655V57.304C372.655 56.712 372.507 56.26 372.211 55.948C371.915 55.628 371.511 55.468 370.999 55.468C370.487 55.468 370.079 55.628 369.775 55.948C369.479 56.26 369.331 56.712 369.331 57.304V61H367.975V57.304C367.975 56.712 367.827 56.26 367.531 55.948C367.235 55.628 366.831 55.468 366.319 55.468C365.807 55.468 365.399 55.628 365.095 55.948C364.799 56.26 364.651 56.712 364.651 57.304V61H363.283V54.388H364.651V55.144C364.875 54.872 365.159 54.66 365.503 54.508C365.847 54.356 366.215 54.28 366.607 54.28C367.135 54.28 367.607 54.392 368.023 54.616C368.439 54.84 368.759 55.164 368.983 55.588C369.183 55.188 369.495 54.872 369.919 54.64C370.343 54.4 370.799 54.28 371.287 54.28ZM381.812 57.532C381.812 57.78 381.796 58.004 381.764 58.204H376.712C376.752 58.732 376.948 59.156 377.3 59.476C377.652 59.796 378.084 59.956 378.596 59.956C379.332 59.956 379.852 59.648 380.156 59.032H381.632C381.432 59.64 381.068 60.14 380.54 60.532C380.02 60.916 379.372 61.108 378.596 61.108C377.964 61.108 377.396 60.968 376.892 60.688C376.396 60.4 376.004 60 375.716 59.488C375.436 58.968 375.296 58.368 375.296 57.688C375.296 57.008 375.432 56.412 375.704 55.9C375.984 55.38 376.372 54.98 376.868 54.7C377.372 54.42 377.948 54.28 378.596 54.28C379.22 54.28 379.776 54.416 380.264 54.688C380.752 54.96 381.132 55.344 381.404 55.84C381.676 56.328 381.812 56.892 381.812 57.532ZM380.384 57.1C380.376 56.596 380.196 56.192 379.844 55.888C379.492 55.584 379.056 55.432 378.536 55.432C378.064 55.432 377.66 55.584 377.324 55.888C376.988 56.184 376.788 56.588 376.724 57.1H380.384Z" fill="#515458"/>
<rect x="319.5" y="70.5" width="246" height="47" rx="7.5" fill="white"/>
<rect x="319.5" y="70.5" width="246" height="47" rx="7.5" stroke="#B7BFC7"/>
<path d="M340.232 95.28C340.232 95.5573 340.216 95.8507 340.184 96.16H333.176C333.229 97.024 333.523 97.7013 334.056 98.192C334.6 98.672 335.256 98.912 336.024 98.912C336.653 98.912 337.176 98.768 337.592 98.48C338.019 98.1813 338.317 97.7867 338.488 97.296H340.056C339.821 98.1387 339.352 98.8267 338.648 99.36C337.944 99.8827 337.069 100.144 336.024 100.144C335.192 100.144 334.445 99.9573 333.784 99.584C333.133 99.2107 332.621 98.6827 332.248 98C331.875 97.3067 331.688 96.5067 331.688 95.6C331.688 94.6933 331.869 93.8987 332.232 93.216C332.595 92.5333 333.101 92.0107 333.752 91.648C334.413 91.2747 335.171 91.088 336.024 91.088C336.856 91.088 337.592 91.2693 338.232 91.632C338.872 91.9947 339.363 92.496 339.704 93.136C340.056 93.7653 340.232 94.48 340.232 95.28ZM338.728 94.976C338.728 94.4213 338.605 93.9467 338.36 93.552C338.115 93.1467 337.779 92.8427 337.352 92.64C336.936 92.4267 336.472 92.32 335.96 92.32C335.224 92.32 334.595 92.5547 334.072 93.024C333.56 93.4933 333.267 94.144 333.192 94.976H338.728ZM346.426 91.072C347.493 91.072 348.357 91.3973 349.018 92.048C349.679 92.688 350.01 93.616 350.01 94.832V100H348.57V95.04C348.57 94.1653 348.351 93.4987 347.914 93.04C347.477 92.5707 346.879 92.336 346.122 92.336C345.354 92.336 344.741 92.576 344.282 93.056C343.834 93.536 343.61 94.2347 343.61 95.152V100H342.154V91.232H343.61V92.48C343.898 92.032 344.287 91.6853 344.778 91.44C345.279 91.1947 345.829 91.072 346.426 91.072ZM354.164 92.432V97.6C354.164 98.0267 354.255 98.3307 354.436 98.512C354.618 98.6827 354.932 98.768 355.38 98.768H356.452V100H355.14C354.33 100 353.722 99.8133 353.316 99.44C352.911 99.0667 352.708 98.4533 352.708 97.6V92.432H351.572V91.232H352.708V89.024H354.164V91.232H356.452V92.432H354.164ZM366.216 95.28C366.216 95.5573 366.2 95.8507 366.168 96.16H359.16C359.214 97.024 359.507 97.7013 360.04 98.192C360.584 98.672 361.24 98.912 362.008 98.912C362.638 98.912 363.16 98.768 363.576 98.48C364.003 98.1813 364.302 97.7867 364.472 97.296H366.04C365.806 98.1387 365.336 98.8267 364.632 99.36C363.928 99.8827 363.054 100.144 362.008 100.144C361.176 100.144 360.43 99.9573 359.768 99.584C359.118 99.2107 358.606 98.6827 358.232 98C357.859 97.3067 357.672 96.5067 357.672 95.6C357.672 94.6933 357.854 93.8987 358.216 93.216C358.579 92.5333 359.086 92.0107 359.736 91.648C360.398 91.2747 361.155 91.088 362.008 91.088C362.84 91.088 363.576 91.2693 364.216 91.632C364.856 91.9947 365.347 92.496 365.688 93.136C366.04 93.7653 366.216 94.48 366.216 95.28ZM364.712 94.976C364.712 94.4213 364.59 93.9467 364.344 93.552C364.099 93.1467 363.763 92.8427 363.336 92.64C362.92 92.4267 362.456 92.32 361.944 92.32C361.208 92.32 360.579 92.5547 360.056 93.024C359.544 93.4933 359.251 94.144 359.176 94.976H364.712ZM369.594 92.656C369.85 92.1547 370.213 91.7653 370.682 91.488C371.162 91.2107 371.744 91.072 372.426 91.072V92.576H372.042C370.41 92.576 369.594 93.4613 369.594 95.232V100H368.138V91.232H369.594V92.656ZM379.829 88.16V100H378.373V88.16H379.829ZM381.766 95.584C381.766 94.688 381.947 93.904 382.31 93.232C382.673 92.5493 383.169 92.0213 383.798 91.648C384.438 91.2747 385.147 91.088 385.926 91.088C386.694 91.088 387.361 91.2533 387.926 91.584C388.491 91.9147 388.913 92.3307 389.19 92.832V91.232H390.662V100H389.19V98.368C388.902 98.88 388.47 99.3067 387.894 99.648C387.329 99.9787 386.667 100.144 385.91 100.144C385.131 100.144 384.427 99.952 383.798 99.568C383.169 99.184 382.673 98.6453 382.31 97.952C381.947 97.2587 381.766 96.4693 381.766 95.584ZM389.19 95.6C389.19 94.9387 389.057 94.3627 388.79 93.872C388.523 93.3813 388.161 93.008 387.702 92.752C387.254 92.4853 386.758 92.352 386.214 92.352C385.67 92.352 385.174 92.48 384.726 92.736C384.278 92.992 383.921 93.3653 383.654 93.856C383.387 94.3467 383.254 94.9227 383.254 95.584C383.254 96.256 383.387 96.8427 383.654 97.344C383.921 97.8347 384.278 98.2133 384.726 98.48C385.174 98.736 385.67 98.864 386.214 98.864C386.758 98.864 387.254 98.736 387.702 98.48C388.161 98.2133 388.523 97.8347 388.79 97.344C389.057 96.8427 389.19 96.2613 389.19 95.6ZM396.227 100.144C395.555 100.144 394.952 100.032 394.419 99.808C393.885 99.5733 393.464 99.2533 393.155 98.848C392.845 98.432 392.675 97.9573 392.643 97.424H394.147C394.189 97.8613 394.392 98.2187 394.755 98.496C395.128 98.7733 395.613 98.912 396.211 98.912C396.765 98.912 397.203 98.7893 397.523 98.544C397.843 98.2987 398.003 97.9893 398.003 97.616C398.003 97.232 397.832 96.9493 397.491 96.768C397.149 96.576 396.621 96.3893 395.907 96.208C395.256 96.0373 394.723 95.8667 394.307 95.696C393.901 95.5147 393.549 95.2533 393.251 94.912C392.963 94.56 392.819 94.1013 392.819 93.536C392.819 93.088 392.952 92.6773 393.219 92.304C393.485 91.9307 393.864 91.6373 394.355 91.424C394.845 91.2 395.405 91.088 396.035 91.088C397.005 91.088 397.789 91.3333 398.387 91.824C398.984 92.3147 399.304 92.9867 399.347 93.84H397.891C397.859 93.3813 397.672 93.0133 397.331 92.736C397 92.4587 396.552 92.32 395.987 92.32C395.464 92.32 395.048 92.432 394.739 92.656C394.429 92.88 394.275 93.1733 394.275 93.536C394.275 93.824 394.365 94.064 394.547 94.256C394.739 94.4373 394.973 94.5867 395.251 94.704C395.539 94.8107 395.933 94.9333 396.435 95.072C397.064 95.2427 397.576 95.4133 397.971 95.584C398.365 95.744 398.701 95.9893 398.979 96.32C399.267 96.6507 399.416 97.0827 399.427 97.616C399.427 98.096 399.293 98.528 399.027 98.912C398.76 99.296 398.381 99.6 397.891 99.824C397.411 100.037 396.856 100.144 396.227 100.144ZM403.258 92.432V97.6C403.258 98.0267 403.349 98.3307 403.53 98.512C403.711 98.6827 404.026 98.768 404.474 98.768H405.546V100H404.234C403.423 100 402.815 99.8133 402.41 99.44C402.005 99.0667 401.802 98.4533 401.802 97.6V92.432H400.666V91.232H401.802V89.024H403.258V91.232H405.546V92.432H403.258ZM415.848 91.072C416.914 91.072 417.778 91.3973 418.44 92.048C419.101 92.688 419.432 93.616 419.432 94.832V100H417.992V95.04C417.992 94.1653 417.773 93.4987 417.336 93.04C416.898 92.5707 416.301 92.336 415.544 92.336C414.776 92.336 414.162 92.576 413.704 93.056C413.256 93.536 413.032 94.2347 413.032 95.152V100H411.576V91.232H413.032V92.48C413.32 92.032 413.709 91.6853 414.2 91.44C414.701 91.1947 415.25 91.072 415.848 91.072ZM421.266 95.584C421.266 94.688 421.447 93.904 421.81 93.232C422.173 92.5493 422.669 92.0213 423.298 91.648C423.938 91.2747 424.647 91.088 425.426 91.088C426.194 91.088 426.861 91.2533 427.426 91.584C427.991 91.9147 428.413 92.3307 428.69 92.832V91.232H430.162V100H428.69V98.368C428.402 98.88 427.97 99.3067 427.394 99.648C426.829 99.9787 426.167 100.144 425.41 100.144C424.631 100.144 423.927 99.952 423.298 99.568C422.669 99.184 422.173 98.6453 421.81 97.952C421.447 97.2587 421.266 96.4693 421.266 95.584ZM428.69 95.6C428.69 94.9387 428.557 94.3627 428.29 93.872C428.023 93.3813 427.661 93.008 427.202 92.752C426.754 92.4853 426.258 92.352 425.714 92.352C425.17 92.352 424.674 92.48 424.226 92.736C423.778 92.992 423.421 93.3653 423.154 93.856C422.887 94.3467 422.754 94.9227 422.754 95.584C422.754 96.256 422.887 96.8427 423.154 97.344C423.421 97.8347 423.778 98.2133 424.226 98.48C424.674 98.736 425.17 98.864 425.714 98.864C426.258 98.864 426.754 98.736 427.202 98.48C427.661 98.2133 428.023 97.8347 428.29 97.344C428.557 96.8427 428.69 96.2613 428.69 95.6ZM443.167 91.072C443.849 91.072 444.457 91.216 444.991 91.504C445.524 91.7813 445.945 92.2027 446.255 92.768C446.564 93.3333 446.719 94.0213 446.719 94.832V100H445.279V95.04C445.279 94.1653 445.06 93.4987 444.623 93.04C444.196 92.5707 443.615 92.336 442.879 92.336C442.121 92.336 441.519 92.5813 441.071 93.072C440.623 93.552 440.399 94.2507 440.399 95.168V100H438.959V95.04C438.959 94.1653 438.74 93.4987 438.303 93.04C437.876 92.5707 437.295 92.336 436.559 92.336C435.801 92.336 435.199 92.5813 434.751 93.072C434.303 93.552 434.079 94.2507 434.079 95.168V100H432.623V91.232H434.079V92.496C434.367 92.0373 434.751 91.6853 435.231 91.44C435.721 91.1947 436.26 91.072 436.847 91.072C437.583 91.072 438.233 91.2373 438.799 91.568C439.364 91.8987 439.785 92.384 440.063 93.024C440.308 92.4053 440.713 91.9253 441.279 91.584C441.844 91.2427 442.473 91.072 443.167 91.072ZM457.107 95.28C457.107 95.5573 457.091 95.8507 457.059 96.16H450.051C450.104 97.024 450.398 97.7013 450.931 98.192C451.475 98.672 452.131 98.912 452.899 98.912C453.528 98.912 454.051 98.768 454.467 98.48C454.894 98.1813 455.192 97.7867 455.363 97.296H456.931C456.696 98.1387 456.227 98.8267 455.523 99.36C454.819 99.8827 453.944 100.144 452.899 100.144C452.067 100.144 451.32 99.9573 450.659 99.584C450.008 99.2107 449.496 98.6827 449.123 98C448.75 97.3067 448.563 96.5067 448.563 95.6C448.563 94.6933 448.744 93.8987 449.107 93.216C449.47 92.5333 449.976 92.0107 450.627 91.648C451.288 91.2747 452.046 91.088 452.899 91.088C453.731 91.088 454.467 91.2693 455.107 91.632C455.747 91.9947 456.238 92.496 456.579 93.136C456.931 93.7653 457.107 94.48 457.107 95.28ZM455.603 94.976C455.603 94.4213 455.48 93.9467 455.235 93.552C454.99 93.1467 454.654 92.8427 454.227 92.64C453.811 92.4267 453.347 92.32 452.835 92.32C452.099 92.32 451.47 92.5547 450.947 93.024C450.435 93.4933 450.142 94.144 450.067 94.976H455.603Z" fill="#575757"/>
<path d="M58.96 143.532C58.96 143.78 58.944 144.004 58.912 144.204H53.86C53.9 144.732 54.096 145.156 54.448 145.476C54.8 145.796 55.232 145.956 55.744 145.956C56.48 145.956 57 145.648 57.304 145.032H58.78C58.58 145.64 58.216 146.14 57.688 146.532C57.168 146.916 56.52 147.108 55.744 147.108C55.112 147.108 54.544 146.968 54.04 146.688C53.544 146.4 53.152 146 52.864 145.488C52.584 144.968 52.444 144.368 52.444 143.688C52.444 143.008 52.58 142.412 52.852 141.9C53.132 141.38 53.52 140.98 54.016 140.7C54.52 140.42 55.096 140.28 55.744 140.28C56.368 140.28 56.924 140.416 57.412 140.688C57.9 140.96 58.28 141.344 58.552 141.84C58.824 142.328 58.96 142.892 58.96 143.532ZM57.532 143.1C57.524 142.596 57.344 142.192 56.992 141.888C56.64 141.584 56.204 141.432 55.684 141.432C55.212 141.432 54.808 141.584 54.472 141.888C54.136 142.184 53.936 142.588 53.872 143.1H57.532ZM68.3103 140.28C68.8303 140.28 69.2943 140.388 69.7023 140.604C70.1183 140.82 70.4423 141.14 70.6743 141.564C70.9143 141.988 71.0343 142.5 71.0343 143.1V147H69.6783V143.304C69.6783 142.712 69.5303 142.26 69.2343 141.948C68.9383 141.628 68.5343 141.468 68.0223 141.468C67.5103 141.468 67.1023 141.628 66.7983 141.948C66.5023 142.26 66.3543 142.712 66.3543 143.304V147H64.9983V143.304C64.9983 142.712 64.8503 142.26 64.5543 141.948C64.2583 141.628 63.8543 141.468 63.3423 141.468C62.8303 141.468 62.4223 141.628 62.1183 141.948C61.8223 142.26 61.6743 142.712 61.6743 143.304V147H60.3063V140.388H61.6743V141.144C61.8983 140.872 62.1823 140.66 62.5263 140.508C62.8703 140.356 63.2383 140.28 63.6303 140.28C64.1583 140.28 64.6303 140.392 65.0463 140.616C65.4623 140.84 65.7823 141.164 66.0063 141.588C66.2063 141.188 66.5183 140.872 66.9423 140.64C67.3663 140.4 67.8223 140.28 68.3103 140.28ZM72.319 143.664C72.319 143 72.455 142.412 72.727 141.9C73.007 141.388 73.383 140.992 73.855 140.712C74.335 140.424 74.863 140.28 75.439 140.28C75.959 140.28 76.411 140.384 76.795 140.592C77.187 140.792 77.499 141.044 77.731 141.348V140.388H79.111V147H77.731V146.016C77.499 146.328 77.183 146.588 76.783 146.796C76.383 147.004 75.927 147.108 75.415 147.108C74.847 147.108 74.327 146.964 73.855 146.676C73.383 146.38 73.007 145.972 72.727 145.452C72.455 144.924 72.319 144.328 72.319 143.664ZM77.731 143.688C77.731 143.232 77.635 142.836 77.443 142.5C77.259 142.164 77.015 141.908 76.711 141.732C76.407 141.556 76.079 141.468 75.727 141.468C75.375 141.468 75.047 141.556 74.743 141.732C74.439 141.9 74.191 142.152 73.999 142.488C73.815 142.816 73.723 143.208 73.723 143.664C73.723 144.12 73.815 144.52 73.999 144.864C74.191 145.208 74.439 145.472 74.743 145.656C75.055 145.832 75.383 145.92 75.727 145.92C76.079 145.92 76.407 145.832 76.711 145.656C77.015 145.48 77.259 145.224 77.443 144.888C77.635 144.544 77.731 144.144 77.731 143.688ZM81.6038 139.512C81.3558 139.512 81.1478 139.428 80.9798 139.26C80.8118 139.092 80.7278 138.884 80.7278 138.636C80.7278 138.388 80.8118 138.18 80.9798 138.012C81.1478 137.844 81.3558 137.76 81.6038 137.76C81.8438 137.76 82.0478 137.844 82.2158 138.012C82.3838 138.18 82.4678 138.388 82.4678 138.636C82.4678 138.884 82.3838 139.092 82.2158 139.26C82.0478 139.428 81.8438 139.512 81.6038 139.512ZM82.2758 140.388V147H80.9078V140.388H82.2758ZM85.4399 138.12V147H84.0719V138.12H85.4399Z" fill="#515458"/>
<rect x="52.5" y="156.5" width="513" height="47" rx="7.5" fill="white"/>
<rect x="52.5" y="156.5" width="513" height="47" rx="7.5" stroke="#B7BFC7"/>
<path d="M73.232 181.28C73.232 181.557 73.216 181.851 73.184 182.16H66.176C66.2293 183.024 66.5227 183.701 67.056 184.192C67.6 184.672 68.256 184.912 69.024 184.912C69.6533 184.912 70.176 184.768 70.592 184.48C71.0187 184.181 71.3173 183.787 71.488 183.296H73.056C72.8213 184.139 72.352 184.827 71.648 185.36C70.944 185.883 70.0693 186.144 69.024 186.144C68.192 186.144 67.4453 185.957 66.784 185.584C66.1333 185.211 65.6213 184.683 65.248 184C64.8747 183.307 64.688 182.507 64.688 181.6C64.688 180.693 64.8693 179.899 65.232 179.216C65.5947 178.533 66.1013 178.011 66.752 177.648C67.4133 177.275 68.1707 177.088 69.024 177.088C69.856 177.088 70.592 177.269 71.232 177.632C71.872 177.995 72.3627 178.496 72.704 179.136C73.056 179.765 73.232 180.48 73.232 181.28ZM71.728 180.976C71.728 180.421 71.6053 179.947 71.36 179.552C71.1147 179.147 70.7787 178.843 70.352 178.64C69.936 178.427 69.472 178.32 68.96 178.32C68.224 178.32 67.5947 178.555 67.072 179.024C66.56 179.493 66.2667 180.144 66.192 180.976H71.728ZM79.4259 177.072C80.4925 177.072 81.3565 177.397 82.0179 178.048C82.6792 178.688 83.0099 179.616 83.0099 180.832V186H81.5699V181.04C81.5699 180.165 81.3512 179.499 80.9139 179.04C80.4765 178.571 79.8792 178.336 79.1219 178.336C78.3539 178.336 77.7405 178.576 77.2819 179.056C76.8339 179.536 76.6099 180.235 76.6099 181.152V186H75.1539V177.232H76.6099V178.48C76.8979 178.032 77.2872 177.685 77.7779 177.44C78.2792 177.195 78.8285 177.072 79.4259 177.072ZM87.1643 178.432V183.6C87.1643 184.027 87.2549 184.331 87.4363 184.512C87.6176 184.683 87.9323 184.768 88.3802 184.768H89.4523V186H88.1403C87.3296 186 86.7216 185.813 86.3163 185.44C85.9109 185.067 85.7083 184.453 85.7083 183.6V178.432H84.5723V177.232H85.7083V175.024H87.1643V177.232H89.4523V178.432H87.1643ZM99.2164 181.28C99.2164 181.557 99.2004 181.851 99.1684 182.16H92.1604C92.2137 183.024 92.507 183.701 93.0404 184.192C93.5844 184.672 94.2404 184.912 95.0084 184.912C95.6377 184.912 96.1604 184.768 96.5764 184.48C97.003 184.181 97.3017 183.787 97.4724 183.296H99.0404C98.8057 184.139 98.3364 184.827 97.6324 185.36C96.9284 185.883 96.0537 186.144 95.0084 186.144C94.1764 186.144 93.4297 185.957 92.7684 185.584C92.1177 185.211 91.6057 184.683 91.2324 184C90.859 183.307 90.6724 182.507 90.6724 181.6C90.6724 180.693 90.8537 179.899 91.2164 179.216C91.579 178.533 92.0857 178.011 92.7364 177.648C93.3977 177.275 94.155 177.088 95.0084 177.088C95.8404 177.088 96.5764 177.269 97.2164 177.632C97.8564 177.995 98.347 178.496 98.6884 179.136C99.0404 179.765 99.2164 180.48 99.2164 181.28ZM97.7124 180.976C97.7124 180.421 97.5897 179.947 97.3444 179.552C97.099 179.147 96.763 178.843 96.3364 178.64C95.9204 178.427 95.4564 178.32 94.9444 178.32C94.2084 178.32 93.579 178.555 93.0564 179.024C92.5444 179.493 92.251 180.144 92.1764 180.976H97.7124ZM102.594 178.656C102.85 178.155 103.213 177.765 103.682 177.488C104.162 177.211 104.744 177.072 105.426 177.072V178.576H105.042C103.41 178.576 102.594 179.461 102.594 181.232V186H101.138V177.232H102.594V178.656ZM119.373 181.28C119.373 181.557 119.357 181.851 119.325 182.16H112.317C112.37 183.024 112.663 183.701 113.197 184.192C113.741 184.672 114.397 184.912 115.165 184.912C115.794 184.912 116.317 184.768 116.733 184.48C117.159 184.181 117.458 183.787 117.629 183.296H119.197C118.962 184.139 118.493 184.827 117.789 185.36C117.085 185.883 116.21 186.144 115.165 186.144C114.333 186.144 113.586 185.957 112.925 185.584C112.274 185.211 111.762 184.683 111.389 184C111.015 183.307 110.829 182.507 110.829 181.6C110.829 180.693 111.01 179.899 111.373 179.216C111.735 178.533 112.242 178.011 112.893 177.648C113.554 177.275 114.311 177.088 115.165 177.088C115.997 177.088 116.733 177.269 117.373 177.632C118.013 177.995 118.503 178.496 118.845 179.136C119.197 179.765 119.373 180.48 119.373 181.28ZM117.869 180.976C117.869 180.421 117.746 179.947 117.501 179.552C117.255 179.147 116.919 178.843 116.493 178.64C116.077 178.427 115.613 178.32 115.101 178.32C114.365 178.32 113.735 178.555 113.213 179.024C112.701 179.493 112.407 180.144 112.333 180.976H117.869ZM131.839 177.072C132.521 177.072 133.129 177.216 133.663 177.504C134.196 177.781 134.617 178.203 134.927 178.768C135.236 179.333 135.391 180.021 135.391 180.832V186H133.951V181.04C133.951 180.165 133.732 179.499 133.295 179.04C132.868 178.571 132.287 178.336 131.551 178.336C130.793 178.336 130.191 178.581 129.743 179.072C129.295 179.552 129.071 180.251 129.071 181.168V186H127.631V181.04C127.631 180.165 127.412 179.499 126.975 179.04C126.548 178.571 125.967 178.336 125.231 178.336C124.473 178.336 123.871 178.581 123.423 179.072C122.975 179.552 122.751 180.251 122.751 181.168V186H121.295V177.232H122.751V178.496C123.039 178.037 123.423 177.685 123.903 177.44C124.393 177.195 124.932 177.072 125.519 177.072C126.255 177.072 126.905 177.237 127.471 177.568C128.036 177.899 128.457 178.384 128.735 179.024C128.98 178.405 129.385 177.925 129.951 177.584C130.516 177.243 131.145 177.072 131.839 177.072ZM137.235 181.584C137.235 180.688 137.416 179.904 137.779 179.232C138.142 178.549 138.638 178.021 139.267 177.648C139.907 177.275 140.616 177.088 141.395 177.088C142.163 177.088 142.83 177.253 143.395 177.584C143.96 177.915 144.382 178.331 144.659 178.832V177.232H146.131V186H144.659V184.368C144.371 184.88 143.939 185.307 143.363 185.648C142.798 185.979 142.136 186.144 141.379 186.144C140.6 186.144 139.896 185.952 139.267 185.568C138.638 185.184 138.142 184.645 137.779 183.952C137.416 183.259 137.235 182.469 137.235 181.584ZM144.659 181.6C144.659 180.939 144.526 180.363 144.259 179.872C143.992 179.381 143.63 179.008 143.171 178.752C142.723 178.485 142.227 178.352 141.683 178.352C141.139 178.352 140.643 178.48 140.195 178.736C139.747 178.992 139.39 179.365 139.123 179.856C138.856 180.347 138.723 180.923 138.723 181.584C138.723 182.256 138.856 182.843 139.123 183.344C139.39 183.835 139.747 184.213 140.195 184.48C140.643 184.736 141.139 184.864 141.683 184.864C142.227 184.864 142.723 184.736 143.171 184.48C143.63 184.213 143.992 183.835 144.259 183.344C144.526 182.843 144.659 182.261 144.659 181.6ZM149.343 175.808C149.066 175.808 148.831 175.712 148.639 175.52C148.447 175.328 148.351 175.093 148.351 174.816C148.351 174.539 148.447 174.304 148.639 174.112C148.831 173.92 149.066 173.824 149.343 173.824C149.61 173.824 149.834 173.92 150.015 174.112C150.207 174.304 150.303 174.539 150.303 174.816C150.303 175.093 150.207 175.328 150.015 175.52C149.834 175.712 149.61 175.808 149.343 175.808ZM150.047 177.232V186H148.591V177.232H150.047ZM153.985 174.16V186H152.529V174.16H153.985ZM160.188 181.584C160.188 180.688 160.369 179.904 160.732 179.232C161.095 178.549 161.591 178.021 162.22 177.648C162.86 177.275 163.569 177.088 164.348 177.088C165.116 177.088 165.783 177.253 166.348 177.584C166.913 177.915 167.335 178.331 167.612 178.832V177.232H169.084V186H167.612V184.368C167.324 184.88 166.892 185.307 166.316 185.648C165.751 185.979 165.089 186.144 164.332 186.144C163.553 186.144 162.849 185.952 162.22 185.568C161.591 185.184 161.095 184.645 160.732 183.952C160.369 183.259 160.188 182.469 160.188 181.584ZM167.612 181.6C167.612 180.939 167.479 180.363 167.212 179.872C166.945 179.381 166.583 179.008 166.124 178.752C165.676 178.485 165.18 178.352 164.636 178.352C164.092 178.352 163.596 178.48 163.148 178.736C162.7 178.992 162.343 179.365 162.076 179.856C161.809 180.347 161.676 180.923 161.676 181.584C161.676 182.256 161.809 182.843 162.076 183.344C162.343 183.835 162.7 184.213 163.148 184.48C163.596 184.736 164.092 184.864 164.636 184.864C165.18 184.864 165.676 184.736 166.124 184.48C166.583 184.213 166.945 183.835 167.212 183.344C167.479 182.843 167.612 182.261 167.612 181.6ZM171.001 181.584C171.001 180.688 171.182 179.904 171.545 179.232C171.907 178.549 172.403 178.021 173.033 177.648C173.673 177.275 174.387 177.088 175.177 177.088C175.859 177.088 176.494 177.248 177.081 177.568C177.667 177.877 178.115 178.288 178.425 178.8V174.16H179.897V186H178.425V184.352C178.137 184.875 177.71 185.307 177.145 185.648C176.579 185.979 175.918 186.144 175.161 186.144C174.382 186.144 173.673 185.952 173.033 185.568C172.403 185.184 171.907 184.645 171.545 183.952C171.182 183.259 171.001 182.469 171.001 181.584ZM178.425 181.6C178.425 180.939 178.291 180.363 178.025 179.872C177.758 179.381 177.395 179.008 176.937 178.752C176.489 178.485 175.993 178.352 175.449 178.352C174.905 178.352 174.409 178.48 173.961 178.736C173.513 178.992 173.155 179.365 172.889 179.856C172.622 180.347 172.489 180.923 172.489 181.584C172.489 182.256 172.622 182.843 172.889 183.344C173.155 183.835 173.513 184.213 173.961 184.48C174.409 184.736 174.905 184.864 175.449 184.864C175.993 184.864 176.489 184.736 176.937 184.48C177.395 184.213 177.758 183.835 178.025 183.344C178.291 182.843 178.425 182.261 178.425 181.6ZM181.813 181.584C181.813 180.688 181.994 179.904 182.357 179.232C182.72 178.549 183.216 178.021 183.845 177.648C184.485 177.275 185.2 177.088 185.989 177.088C186.672 177.088 187.306 177.248 187.893 177.568C188.48 177.877 188.928 178.288 189.237 178.8V174.16H190.709V186H189.237V184.352C188.949 184.875 188.522 185.307 187.957 185.648C187.392 185.979 186.73 186.144 185.973 186.144C185.194 186.144 184.485 185.952 183.845 185.568C183.216 185.184 182.72 184.645 182.357 183.952C181.994 183.259 181.813 182.469 181.813 181.584ZM189.237 181.6C189.237 180.939 189.104 180.363 188.837 179.872C188.57 179.381 188.208 179.008 187.749 178.752C187.301 178.485 186.805 178.352 186.261 178.352C185.717 178.352 185.221 178.48 184.773 178.736C184.325 178.992 183.968 179.365 183.701 179.856C183.434 180.347 183.301 180.923 183.301 181.584C183.301 182.256 183.434 182.843 183.701 183.344C183.968 183.835 184.325 184.213 184.773 184.48C185.221 184.736 185.717 184.864 186.261 184.864C186.805 184.864 187.301 184.736 187.749 184.48C188.208 184.213 188.57 183.835 188.837 183.344C189.104 182.843 189.237 182.261 189.237 181.6ZM194.626 178.656C194.882 178.155 195.244 177.765 195.714 177.488C196.194 177.211 196.775 177.072 197.458 177.072V178.576H197.074C195.442 178.576 194.626 179.461 194.626 181.232V186H193.17V177.232H194.626V178.656ZM207.138 181.28C207.138 181.557 207.122 181.851 207.09 182.16H200.082C200.136 183.024 200.429 183.701 200.962 184.192C201.506 184.672 202.162 184.912 202.93 184.912C203.56 184.912 204.082 184.768 204.498 184.48C204.925 184.181 205.224 183.787 205.394 183.296H206.962C206.728 184.139 206.258 184.827 205.554 185.36C204.85 185.883 203.976 186.144 202.93 186.144C202.098 186.144 201.352 185.957 200.69 185.584C200.04 185.211 199.528 184.683 199.154 184C198.781 183.307 198.594 182.507 198.594 181.6C198.594 180.693 198.776 179.899 199.138 179.216C199.501 178.533 200.008 178.011 200.658 177.648C201.32 177.275 202.077 177.088 202.93 177.088C203.762 177.088 204.498 177.269 205.138 177.632C205.778 177.995 206.269 178.496 206.61 179.136C206.962 179.765 207.138 180.48 207.138 181.28ZM205.634 180.976C205.634 180.421 205.512 179.947 205.266 179.552C205.021 179.147 204.685 178.843 204.258 178.64C203.842 178.427 203.378 178.32 202.866 178.32C202.13 178.32 201.501 178.555 200.978 179.024C200.466 179.493 200.173 180.144 200.098 180.976H205.634ZM212.164 186.144C211.492 186.144 210.889 186.032 210.356 185.808C209.823 185.573 209.401 185.253 209.092 184.848C208.783 184.432 208.612 183.957 208.58 183.424H210.084C210.127 183.861 210.329 184.219 210.692 184.496C211.065 184.773 211.551 184.912 212.148 184.912C212.703 184.912 213.14 184.789 213.46 184.544C213.78 184.299 213.94 183.989 213.94 183.616C213.94 183.232 213.769 182.949 213.428 182.768C213.087 182.576 212.559 182.389 211.844 182.208C211.193 182.037 210.66 181.867 210.244 181.696C209.839 181.515 209.487 181.253 209.188 180.912C208.9 180.56 208.756 180.101 208.756 179.536C208.756 179.088 208.889 178.677 209.156 178.304C209.423 177.931 209.801 177.637 210.292 177.424C210.783 177.2 211.343 177.088 211.972 177.088C212.943 177.088 213.727 177.333 214.324 177.824C214.921 178.315 215.241 178.987 215.284 179.84H213.828C213.796 179.381 213.609 179.013 213.268 178.736C212.937 178.459 212.489 178.32 211.924 178.32C211.401 178.32 210.985 178.432 210.676 178.656C210.367 178.88 210.212 179.173 210.212 179.536C210.212 179.824 210.303 180.064 210.484 180.256C210.676 180.437 210.911 180.587 211.188 180.704C211.476 180.811 211.871 180.933 212.372 181.072C213.001 181.243 213.513 181.413 213.908 181.584C214.303 181.744 214.639 181.989 214.916 182.32C215.204 182.651 215.353 183.083 215.364 183.616C215.364 184.096 215.231 184.528 214.964 184.912C214.697 185.296 214.319 185.6 213.828 185.824C213.348 186.037 212.793 186.144 212.164 186.144ZM220.524 186.144C219.852 186.144 219.249 186.032 218.716 185.808C218.182 185.573 217.761 185.253 217.452 184.848C217.142 184.432 216.972 183.957 216.94 183.424H218.444C218.486 183.861 218.689 184.219 219.052 184.496C219.425 184.773 219.91 184.912 220.508 184.912C221.062 184.912 221.5 184.789 221.82 184.544C222.14 184.299 222.3 183.989 222.3 183.616C222.3 183.232 222.129 182.949 221.788 182.768C221.446 182.576 220.918 182.389 220.204 182.208C219.553 182.037 219.02 181.867 218.604 181.696C218.198 181.515 217.846 181.253 217.548 180.912C217.26 180.56 217.116 180.101 217.116 179.536C217.116 179.088 217.249 178.677 217.516 178.304C217.782 177.931 218.161 177.637 218.652 177.424C219.142 177.2 219.702 177.088 220.332 177.088C221.302 177.088 222.086 177.333 222.684 177.824C223.281 178.315 223.601 178.987 223.644 179.84H222.188C222.156 179.381 221.969 179.013 221.628 178.736C221.297 178.459 220.849 178.32 220.284 178.32C219.761 178.32 219.345 178.432 219.036 178.656C218.726 178.88 218.572 179.173 218.572 179.536C218.572 179.824 218.662 180.064 218.844 180.256C219.036 180.437 219.27 180.587 219.548 180.704C219.836 180.811 220.23 180.933 220.732 181.072C221.361 181.243 221.873 181.413 222.268 181.584C222.662 181.744 222.998 181.989 223.276 182.32C223.564 182.651 223.713 183.083 223.724 183.616C223.724 184.096 223.59 184.528 223.324 184.912C223.057 185.296 222.678 185.6 222.188 185.824C221.708 186.037 221.153 186.144 220.524 186.144Z" fill="#575757"/>
<path d="M52.444 228.812C52.444 227.996 52.632 227.264 53.008 226.616C53.392 225.968 53.908 225.464 54.556 225.104C55.212 224.736 55.928 224.552 56.704 224.552C57.592 224.552 58.38 224.772 59.068 225.212C59.764 225.644 60.268 226.26 60.58 227.06H58.936C58.72 226.62 58.42 226.292 58.036 226.076C57.652 225.86 57.208 225.752 56.704 225.752C56.152 225.752 55.66 225.876 55.228 226.124C54.796 226.372 54.456 226.728 54.208 227.192C53.968 227.656 53.848 228.196 53.848 228.812C53.848 229.428 53.968 229.968 54.208 230.432C54.456 230.896 54.796 231.256 55.228 231.512C55.66 231.76 56.152 231.884 56.704 231.884C57.208 231.884 57.652 231.776 58.036 231.56C58.42 231.344 58.72 231.016 58.936 230.576H60.58C60.268 231.376 59.764 231.992 59.068 232.424C58.38 232.856 57.592 233.072 56.704 233.072C55.92 233.072 55.204 232.892 54.556 232.532C53.908 232.164 53.392 231.656 53.008 231.008C52.632 230.36 52.444 229.628 52.444 228.812ZM65.0493 233.108C64.4253 233.108 63.8613 232.968 63.3573 232.688C62.8533 232.4 62.4573 232 62.1693 231.488C61.8813 230.968 61.7373 230.368 61.7373 229.688C61.7373 229.016 61.8853 228.42 62.1813 227.9C62.4773 227.38 62.8813 226.98 63.3933 226.7C63.9053 226.42 64.4773 226.28 65.1093 226.28C65.7413 226.28 66.3133 226.42 66.8253 226.7C67.3373 226.98 67.7413 227.38 68.0373 227.9C68.3333 228.42 68.4813 229.016 68.4813 229.688C68.4813 230.36 68.3293 230.956 68.0253 231.476C67.7213 231.996 67.3053 232.4 66.7773 232.688C66.2573 232.968 65.6813 233.108 65.0493 233.108ZM65.0493 231.92C65.4013 231.92 65.7293 231.836 66.0333 231.668C66.3453 231.5 66.5973 231.248 66.7893 230.912C66.9813 230.576 67.0773 230.168 67.0773 229.688C67.0773 229.208 66.9853 228.804 66.8013 228.476C66.6173 228.14 66.3733 227.888 66.0693 227.72C65.7653 227.552 65.4373 227.468 65.0853 227.468C64.7333 227.468 64.4053 227.552 64.1013 227.72C63.8053 227.888 63.5693 228.14 63.3933 228.476C63.2173 228.804 63.1293 229.208 63.1293 229.688C63.1293 230.4 63.3093 230.952 63.6693 231.344C64.0373 231.728 64.4973 231.92 65.0493 231.92ZM77.8376 226.28C78.3576 226.28 78.8216 226.388 79.2296 226.604C79.6456 226.82 79.9696 227.14 80.2016 227.564C80.4416 227.988 80.5616 228.5 80.5616 229.1V233H79.2056V229.304C79.2056 228.712 79.0576 228.26 78.7616 227.948C78.4656 227.628 78.0616 227.468 77.5496 227.468C77.0376 227.468 76.6296 227.628 76.3256 227.948C76.0296 228.26 75.8816 228.712 75.8816 229.304V233H74.5256V229.304C74.5256 228.712 74.3776 228.26 74.0816 227.948C73.7856 227.628 73.3816 227.468 72.8696 227.468C72.3576 227.468 71.9496 227.628 71.6456 227.948C71.3496 228.26 71.2016 228.712 71.2016 229.304V233H69.8336V226.388H71.2016V227.144C71.4256 226.872 71.7096 226.66 72.0536 226.508C72.3976 226.356 72.7656 226.28 73.1576 226.28C73.6856 226.28 74.1576 226.392 74.5736 226.616C74.9896 226.84 75.3096 227.164 75.5336 227.588C75.7336 227.188 76.0456 226.872 76.4696 226.64C76.8936 226.4 77.3496 226.28 77.8376 226.28ZM83.6703 227.36C83.9023 227.056 84.2183 226.8 84.6183 226.592C85.0183 226.384 85.4703 226.28 85.9743 226.28C86.5503 226.28 87.0743 226.424 87.5463 226.712C88.0263 226.992 88.4023 227.388 88.6743 227.9C88.9463 228.412 89.0823 229 89.0823 229.664C89.0823 230.328 88.9463 230.924 88.6743 231.452C88.4023 231.972 88.0263 232.38 87.5463 232.676C87.0743 232.964 86.5503 233.108 85.9743 233.108C85.4703 233.108 85.0223 233.008 84.6303 232.808C84.2383 232.6 83.9183 232.344 83.6703 232.04V236.144H82.3023V226.388H83.6703V227.36ZM87.6903 229.664C87.6903 229.208 87.5943 228.816 87.4023 228.488C87.2183 228.152 86.9703 227.9 86.6583 227.732C86.3543 227.556 86.0263 227.468 85.6743 227.468C85.3303 227.468 85.0023 227.556 84.6903 227.732C84.3863 227.908 84.1383 228.164 83.9463 228.5C83.7623 228.836 83.6703 229.232 83.6703 229.688C83.6703 230.144 83.7623 230.544 83.9463 230.888C84.1383 231.224 84.3863 231.48 84.6903 231.656C85.0023 231.832 85.3303 231.92 85.6743 231.92C86.0263 231.92 86.3543 231.832 86.6583 231.656C86.9703 231.472 87.2183 231.208 87.4023 230.864C87.5943 230.52 87.6903 230.12 87.6903 229.664ZM89.9792 229.664C89.9792 229 90.1152 228.412 90.3872 227.9C90.6672 227.388 91.0432 226.992 91.5152 226.712C91.9952 226.424 92.5232 226.28 93.0992 226.28C93.6192 226.28 94.0712 226.384 94.4552 226.592C94.8472 226.792 95.1592 227.044 95.3912 227.348V226.388H96.7712V233H95.3912V232.016C95.1592 232.328 94.8432 232.588 94.4432 232.796C94.0432 233.004 93.5872 233.108 93.0752 233.108C92.5072 233.108 91.9872 232.964 91.5152 232.676C91.0432 232.38 90.6672 231.972 90.3872 231.452C90.1152 230.924 89.9792 230.328 89.9792 229.664ZM95.3912 229.688C95.3912 229.232 95.2952 228.836 95.1032 228.5C94.9192 228.164 94.6752 227.908 94.3712 227.732C94.0672 227.556 93.7392 227.468 93.3872 227.468C93.0352 227.468 92.7072 227.556 92.4032 227.732C92.0992 227.9 91.8512 228.152 91.6592 228.488C91.4752 228.816 91.3832 229.208 91.3832 229.664C91.3832 230.12 91.4752 230.52 91.6592 230.864C91.8512 231.208 92.0992 231.472 92.4032 231.656C92.7152 231.832 93.0432 231.92 93.3872 231.92C93.7392 231.92 94.0672 231.832 94.3712 231.656C94.6752 231.48 94.9192 231.224 95.1032 230.888C95.2952 230.544 95.3912 230.144 95.3912 229.688ZM101.904 226.28C102.424 226.28 102.888 226.388 103.296 226.604C103.712 226.82 104.036 227.14 104.268 227.564C104.5 227.988 104.616 228.5 104.616 229.1V233H103.26V229.304C103.26 228.712 103.112 228.26 102.816 227.948C102.52 227.628 102.116 227.468 101.604 227.468C101.092 227.468 100.684 227.628 100.38 227.948C100.084 228.26 99.936 228.712 99.936 229.304V233H98.568V226.388H99.936V227.144C100.16 226.872 100.444 226.66 100.788 226.508C101.14 226.356 101.512 226.28 101.904 226.28ZM112.313 226.388L108.257 236.108H106.841L108.185 232.892L105.581 226.388H107.105L108.965 231.428L110.897 226.388H112.313Z" fill="#515458"/>
<rect x="52.5" y="242.5" width="246" height="47" rx="7.5" fill="white"/>
<rect x="52.5" y="242.5" width="246" height="47" rx="7.5" stroke="#B7BFC7"/>
<path d="M73.232 267.28C73.232 267.557 73.216 267.851 73.184 268.16H66.176C66.2293 269.024 66.5227 269.701 67.056 270.192C67.6 270.672 68.256 270.912 69.024 270.912C69.6533 270.912 70.176 270.768 70.592 270.48C71.0187 270.181 71.3173 269.787 71.488 269.296H73.056C72.8213 270.139 72.352 270.827 71.648 271.36C70.944 271.883 70.0693 272.144 69.024 272.144C68.192 272.144 67.4453 271.957 66.784 271.584C66.1333 271.211 65.6213 270.683 65.248 270C64.8747 269.307 64.688 268.507 64.688 267.6C64.688 266.693 64.8693 265.899 65.232 265.216C65.5947 264.533 66.1013 264.011 66.752 263.648C67.4133 263.275 68.1707 263.088 69.024 263.088C69.856 263.088 70.592 263.269 71.232 263.632C71.872 263.995 72.3627 264.496 72.704 265.136C73.056 265.765 73.232 266.48 73.232 267.28ZM71.728 266.976C71.728 266.421 71.6053 265.947 71.36 265.552C71.1147 265.147 70.7787 264.843 70.352 264.64C69.936 264.427 69.472 264.32 68.96 264.32C68.224 264.32 67.5947 264.555 67.072 265.024C66.56 265.493 66.2667 266.144 66.192 266.976H71.728ZM79.4259 263.072C80.4925 263.072 81.3565 263.397 82.0179 264.048C82.6792 264.688 83.0099 265.616 83.0099 266.832V272H81.5699V267.04C81.5699 266.165 81.3512 265.499 80.9139 265.04C80.4765 264.571 79.8792 264.336 79.1219 264.336C78.3539 264.336 77.7405 264.576 77.2819 265.056C76.8339 265.536 76.6099 266.235 76.6099 267.152V272H75.1539V263.232H76.6099V264.48C76.8979 264.032 77.2872 263.685 77.7779 263.44C78.2792 263.195 78.8285 263.072 79.4259 263.072ZM87.1643 264.432V269.6C87.1643 270.027 87.2549 270.331 87.4363 270.512C87.6176 270.683 87.9323 270.768 88.3802 270.768H89.4523V272H88.1403C87.3296 272 86.7216 271.813 86.3163 271.44C85.9109 271.067 85.7083 270.453 85.7083 269.6V264.432H84.5723V263.232H85.7083V261.024H87.1643V263.232H89.4523V264.432H87.1643ZM99.2164 267.28C99.2164 267.557 99.2004 267.851 99.1684 268.16H92.1604C92.2137 269.024 92.507 269.701 93.0404 270.192C93.5844 270.672 94.2404 270.912 95.0084 270.912C95.6377 270.912 96.1604 270.768 96.5764 270.48C97.003 270.181 97.3017 269.787 97.4724 269.296H99.0404C98.8057 270.139 98.3364 270.827 97.6324 271.36C96.9284 271.883 96.0537 272.144 95.0084 272.144C94.1764 272.144 93.4297 271.957 92.7684 271.584C92.1177 271.211 91.6057 270.683 91.2324 270C90.859 269.307 90.6724 268.507 90.6724 267.6C90.6724 266.693 90.8537 265.899 91.2164 265.216C91.579 264.533 92.0857 264.011 92.7364 263.648C93.3977 263.275 94.155 263.088 95.0084 263.088C95.8404 263.088 96.5764 263.269 97.2164 263.632C97.8564 263.995 98.347 264.496 98.6884 265.136C99.0404 265.765 99.2164 266.48 99.2164 267.28ZM97.7124 266.976C97.7124 266.421 97.5897 265.947 97.3444 265.552C97.099 265.147 96.763 264.843 96.3364 264.64C95.9204 264.427 95.4564 264.32 94.9444 264.32C94.2084 264.32 93.579 264.555 93.0564 265.024C92.5444 265.493 92.251 266.144 92.1764 266.976H97.7124ZM102.594 264.656C102.85 264.155 103.213 263.765 103.682 263.488C104.162 263.211 104.744 263.072 105.426 263.072V264.576H105.042C103.41 264.576 102.594 265.461 102.594 267.232V272H101.138V263.232H102.594V264.656ZM110.829 267.6C110.829 266.693 111.01 265.904 111.373 265.232C111.735 264.549 112.237 264.021 112.877 263.648C113.527 263.275 114.269 263.088 115.101 263.088C116.178 263.088 117.063 263.349 117.757 263.872C118.461 264.395 118.925 265.12 119.149 266.048H117.581C117.431 265.515 117.138 265.093 116.701 264.784C116.274 264.475 115.741 264.32 115.101 264.32C114.269 264.32 113.597 264.608 113.085 265.184C112.573 265.749 112.317 266.555 112.317 267.6C112.317 268.656 112.573 269.472 113.085 270.048C113.597 270.624 114.269 270.912 115.101 270.912C115.741 270.912 116.274 270.763 116.701 270.464C117.127 270.165 117.421 269.739 117.581 269.184H119.149C118.914 270.08 118.445 270.8 117.741 271.344C117.037 271.877 116.157 272.144 115.101 272.144C114.269 272.144 113.527 271.957 112.877 271.584C112.237 271.211 111.735 270.683 111.373 270C111.01 269.317 110.829 268.517 110.829 267.6ZM124.915 272.144C124.094 272.144 123.347 271.957 122.675 271.584C122.014 271.211 121.491 270.683 121.107 270C120.734 269.307 120.547 268.507 120.547 267.6C120.547 266.704 120.739 265.915 121.123 265.232C121.518 264.539 122.051 264.011 122.723 263.648C123.395 263.275 124.147 263.088 124.979 263.088C125.811 263.088 126.563 263.275 127.235 263.648C127.907 264.011 128.435 264.533 128.819 265.216C129.214 265.899 129.411 266.693 129.411 267.6C129.411 268.507 129.209 269.307 128.803 270C128.409 270.683 127.87 271.211 127.187 271.584C126.505 271.957 125.747 272.144 124.915 272.144ZM124.915 270.864C125.438 270.864 125.929 270.741 126.387 270.496C126.846 270.251 127.214 269.883 127.491 269.392C127.779 268.901 127.923 268.304 127.923 267.6C127.923 266.896 127.785 266.299 127.507 265.808C127.23 265.317 126.867 264.955 126.419 264.72C125.971 264.475 125.486 264.352 124.963 264.352C124.43 264.352 123.939 264.475 123.491 264.72C123.054 264.955 122.702 265.317 122.435 265.808C122.169 266.299 122.035 266.896 122.035 267.6C122.035 268.315 122.163 268.917 122.419 269.408C122.686 269.899 123.038 270.267 123.475 270.512C123.913 270.747 124.393 270.864 124.915 270.864ZM135.598 263.072C136.664 263.072 137.528 263.397 138.19 264.048C138.851 264.688 139.182 265.616 139.182 266.832V272H137.742V267.04C137.742 266.165 137.523 265.499 137.086 265.04C136.648 264.571 136.051 264.336 135.294 264.336C134.526 264.336 133.912 264.576 133.454 265.056C133.006 265.536 132.782 266.235 132.782 267.152V272H131.326V263.232H132.782V264.48C133.07 264.032 133.459 263.685 133.95 263.44C134.451 263.195 135 263.072 135.598 263.072ZM143.336 264.432V269.6C143.336 270.027 143.427 270.331 143.608 270.512C143.789 270.683 144.104 270.768 144.552 270.768H145.624V272H144.312C143.501 272 142.893 271.813 142.488 271.44C142.083 271.067 141.88 270.453 141.88 269.6V264.432H140.744V263.232H141.88V261.024H143.336V263.232H145.624V264.432H143.336ZM146.844 267.584C146.844 266.688 147.026 265.904 147.388 265.232C147.751 264.549 148.247 264.021 148.876 263.648C149.516 263.275 150.226 263.088 151.004 263.088C151.772 263.088 152.439 263.253 153.004 263.584C153.57 263.915 153.991 264.331 154.268 264.832V263.232H155.74V272H154.268V270.368C153.98 270.88 153.548 271.307 152.972 271.648C152.407 271.979 151.746 272.144 150.988 272.144C150.21 272.144 149.506 271.952 148.876 271.568C148.247 271.184 147.751 270.645 147.388 269.952C147.026 269.259 146.844 268.469 146.844 267.584ZM154.268 267.6C154.268 266.939 154.135 266.363 153.868 265.872C153.602 265.381 153.239 265.008 152.78 264.752C152.332 264.485 151.836 264.352 151.292 264.352C150.748 264.352 150.252 264.48 149.804 264.736C149.356 264.992 148.999 265.365 148.732 265.856C148.466 266.347 148.332 266.923 148.332 267.584C148.332 268.256 148.466 268.843 148.732 269.344C148.999 269.835 149.356 270.213 149.804 270.48C150.252 270.736 150.748 270.864 151.292 270.864C151.836 270.864 152.332 270.736 152.78 270.48C153.239 270.213 153.602 269.835 153.868 269.344C154.135 268.843 154.268 268.261 154.268 267.6ZM157.657 267.6C157.657 266.693 157.838 265.904 158.201 265.232C158.563 264.549 159.065 264.021 159.705 263.648C160.355 263.275 161.097 263.088 161.929 263.088C163.006 263.088 163.891 263.349 164.585 263.872C165.289 264.395 165.753 265.12 165.977 266.048H164.409C164.259 265.515 163.966 265.093 163.529 264.784C163.102 264.475 162.569 264.32 161.929 264.32C161.097 264.32 160.425 264.608 159.913 265.184C159.401 265.749 159.145 266.555 159.145 267.6C159.145 268.656 159.401 269.472 159.913 270.048C160.425 270.624 161.097 270.912 161.929 270.912C162.569 270.912 163.102 270.763 163.529 270.464C163.955 270.165 164.249 269.739 164.409 269.184H165.977C165.742 270.08 165.273 270.8 164.569 271.344C163.865 271.877 162.985 272.144 161.929 272.144C161.097 272.144 160.355 271.957 159.705 271.584C159.065 271.211 158.563 270.683 158.201 270C157.838 269.317 157.657 268.517 157.657 267.6ZM169.696 264.432V269.6C169.696 270.027 169.786 270.331 169.968 270.512C170.149 270.683 170.464 270.768 170.911 270.768H171.984V272H170.672C169.861 272 169.253 271.813 168.848 271.44C168.442 271.067 168.24 270.453 168.24 269.6V264.432H167.104V263.232H168.24V261.024H169.696V263.232H171.984V264.432H169.696ZM182.285 263.072C183.352 263.072 184.216 263.397 184.877 264.048C185.539 264.688 185.869 265.616 185.869 266.832V272H184.429V267.04C184.429 266.165 184.211 265.499 183.773 265.04C183.336 264.571 182.739 264.336 181.981 264.336C181.213 264.336 180.6 264.576 180.141 265.056C179.693 265.536 179.469 266.235 179.469 267.152V272H178.013V263.232H179.469V264.48C179.757 264.032 180.147 263.685 180.637 263.44C181.139 263.195 181.688 263.072 182.285 263.072ZM196.024 263.232V272H194.568V270.704C194.29 271.152 193.901 271.504 193.4 271.76C192.909 272.005 192.365 272.128 191.768 272.128C191.085 272.128 190.472 271.989 189.928 271.712C189.384 271.424 188.952 270.997 188.632 270.432C188.322 269.867 188.168 269.179 188.168 268.368V263.232H189.608V268.176C189.608 269.04 189.826 269.707 190.264 270.176C190.701 270.635 191.298 270.864 192.056 270.864C192.834 270.864 193.448 270.624 193.896 270.144C194.344 269.664 194.568 268.965 194.568 268.048V263.232H196.024ZM209.026 263.072C209.709 263.072 210.317 263.216 210.85 263.504C211.383 263.781 211.805 264.203 212.114 264.768C212.423 265.333 212.578 266.021 212.578 266.832V272H211.138V267.04C211.138 266.165 210.919 265.499 210.482 265.04C210.055 264.571 209.474 264.336 208.738 264.336C207.981 264.336 207.378 264.581 206.93 265.072C206.482 265.552 206.258 266.251 206.258 267.168V272H204.818V267.04C204.818 266.165 204.599 265.499 204.162 265.04C203.735 264.571 203.154 264.336 202.418 264.336C201.661 264.336 201.058 264.581 200.61 265.072C200.162 265.552 199.938 266.251 199.938 267.168V272H198.482V263.232H199.938V264.496C200.226 264.037 200.61 263.685 201.09 263.44C201.581 263.195 202.119 263.072 202.706 263.072C203.442 263.072 204.093 263.237 204.658 263.568C205.223 263.899 205.645 264.384 205.922 265.024C206.167 264.405 206.573 263.925 207.138 263.584C207.703 263.243 208.333 263.072 209.026 263.072ZM216.422 264.864C216.721 264.341 217.158 263.915 217.734 263.584C218.31 263.253 218.966 263.088 219.702 263.088C220.492 263.088 221.201 263.275 221.83 263.648C222.46 264.021 222.956 264.549 223.318 265.232C223.681 265.904 223.862 266.688 223.862 267.584C223.862 268.469 223.681 269.259 223.318 269.952C222.956 270.645 222.454 271.184 221.814 271.568C221.185 271.952 220.481 272.144 219.702 272.144C218.945 272.144 218.278 271.979 217.702 271.648C217.137 271.317 216.71 270.896 216.422 270.384V272H214.966V260.16H216.422V264.864ZM222.374 267.584C222.374 266.923 222.241 266.347 221.974 265.856C221.708 265.365 221.345 264.992 220.886 264.736C220.438 264.48 219.942 264.352 219.398 264.352C218.865 264.352 218.369 264.485 217.91 264.752C217.462 265.008 217.1 265.387 216.822 265.888C216.556 266.379 216.422 266.949 216.422 267.6C216.422 268.261 216.556 268.843 216.822 269.344C217.1 269.835 217.462 270.213 217.91 270.48C218.369 270.736 218.865 270.864 219.398 270.864C219.942 270.864 220.438 270.736 220.886 270.48C221.345 270.213 221.708 269.835 221.974 269.344C222.241 268.843 222.374 268.256 222.374 267.584ZM233.779 267.28C233.779 267.557 233.763 267.851 233.731 268.16H226.723C226.776 269.024 227.07 269.701 227.603 270.192C228.147 270.672 228.803 270.912 229.571 270.912C230.2 270.912 230.723 270.768 231.139 270.48C231.566 270.181 231.864 269.787 232.035 269.296H233.603C233.368 270.139 232.899 270.827 232.195 271.36C231.491 271.883 230.616 272.144 229.571 272.144C228.739 272.144 227.992 271.957 227.331 271.584C226.68 271.211 226.168 270.683 225.795 270C225.422 269.307 225.235 268.507 225.235 267.6C225.235 266.693 225.416 265.899 225.779 265.216C226.142 264.533 226.648 264.011 227.299 263.648C227.96 263.275 228.718 263.088 229.571 263.088C230.403 263.088 231.139 263.269 231.779 263.632C232.419 263.995 232.91 264.496 233.251 265.136C233.603 265.765 233.779 266.48 233.779 267.28ZM232.275 266.976C232.275 266.421 232.152 265.947 231.907 265.552C231.662 265.147 231.326 264.843 230.899 264.64C230.483 264.427 230.019 264.32 229.507 264.32C228.771 264.32 228.142 264.555 227.619 265.024C227.107 265.493 226.814 266.144 226.739 266.976H232.275ZM237.157 264.656C237.413 264.155 237.775 263.765 238.245 263.488C238.725 263.211 239.306 263.072 239.989 263.072V264.576H239.605C237.973 264.576 237.157 265.461 237.157 267.232V272H235.701V263.232H237.157V264.656Z" fill="#575757"/>
<path d="M325.732 227.144C325.732 227.568 325.632 227.968 325.432 228.344C325.232 228.72 324.912 229.028 324.472 229.268C324.032 229.5 323.468 229.616 322.78 229.616H321.268V233H319.9V224.66H322.78C323.42 224.66 323.96 224.772 324.4 224.996C324.848 225.212 325.18 225.508 325.396 225.884C325.62 226.26 325.732 226.68 325.732 227.144ZM322.78 228.5C323.3 228.5 323.688 228.384 323.944 228.152C324.2 227.912 324.328 227.576 324.328 227.144C324.328 226.232 323.812 225.776 322.78 225.776H321.268V228.5H322.78ZM330.457 226.28C330.961 226.28 331.409 226.388 331.801 226.604C332.201 226.82 332.513 227.14 332.737 227.564C332.969 227.988 333.085 228.5 333.085 229.1V233H331.729V229.304C331.729 228.712 331.581 228.26 331.285 227.948C330.989 227.628 330.585 227.468 330.073 227.468C329.561 227.468 329.153 227.628 328.849 227.948C328.553 228.26 328.405 228.712 328.405 229.304V233H327.037V224.12H328.405V227.156C328.637 226.876 328.929 226.66 329.281 226.508C329.641 226.356 330.033 226.28 330.457 226.28ZM337.698 233.108C337.074 233.108 336.51 232.968 336.006 232.688C335.502 232.4 335.106 232 334.818 231.488C334.53 230.968 334.386 230.368 334.386 229.688C334.386 229.016 334.534 228.42 334.83 227.9C335.126 227.38 335.53 226.98 336.042 226.7C336.554 226.42 337.126 226.28 337.758 226.28C338.39 226.28 338.962 226.42 339.474 226.7C339.986 226.98 340.39 227.38 340.686 227.9C340.982 228.42 341.13 229.016 341.13 229.688C341.13 230.36 340.978 230.956 340.674 231.476C340.37 231.996 339.954 232.4 339.426 232.688C338.906 232.968 338.33 233.108 337.698 233.108ZM337.698 231.92C338.05 231.92 338.378 231.836 338.682 231.668C338.994 231.5 339.246 231.248 339.438 230.912C339.63 230.576 339.726 230.168 339.726 229.688C339.726 229.208 339.634 228.804 339.45 228.476C339.266 228.14 339.022 227.888 338.718 227.72C338.414 227.552 338.086 227.468 337.734 227.468C337.382 227.468 337.054 227.552 336.75 227.72C336.454 227.888 336.218 228.14 336.042 228.476C335.866 228.804 335.778 229.208 335.778 229.688C335.778 230.4 335.958 230.952 336.318 231.344C336.686 231.728 337.146 231.92 337.698 231.92ZM345.818 226.28C346.338 226.28 346.802 226.388 347.21 226.604C347.626 226.82 347.95 227.14 348.182 227.564C348.414 227.988 348.53 228.5 348.53 229.1V233H347.174V229.304C347.174 228.712 347.026 228.26 346.73 227.948C346.434 227.628 346.03 227.468 345.518 227.468C345.006 227.468 344.598 227.628 344.294 227.948C343.998 228.26 343.85 228.712 343.85 229.304V233H342.482V226.388H343.85V227.144C344.074 226.872 344.358 226.66 344.702 226.508C345.054 226.356 345.426 226.28 345.818 226.28ZM356.335 229.532C356.335 229.78 356.319 230.004 356.287 230.204H351.235C351.275 230.732 351.471 231.156 351.823 231.476C352.175 231.796 352.607 231.956 353.119 231.956C353.855 231.956 354.375 231.648 354.679 231.032H356.155C355.955 231.64 355.591 232.14 355.063 232.532C354.543 232.916 353.895 233.108 353.119 233.108C352.487 233.108 351.919 232.968 351.415 232.688C350.919 232.4 350.527 232 350.239 231.488C349.959 230.968 349.819 230.368 349.819 229.688C349.819 229.008 349.955 228.412 350.227 227.9C350.507 227.38 350.895 226.98 351.391 226.7C351.895 226.42 352.471 226.28 353.119 226.28C353.743 226.28 354.299 226.416 354.787 226.688C355.275 226.96 355.655 227.344 355.927 227.84C356.199 228.328 356.335 228.892 356.335 229.532ZM354.907 229.1C354.899 228.596 354.719 228.192 354.367 227.888C354.015 227.584 353.579 227.432 353.059 227.432C352.587 227.432 352.183 227.584 351.847 227.888C351.511 228.184 351.311 228.588 351.247 229.1H354.907Z" fill="#515458"/>
<rect x="319.5" y="242.5" width="246" height="47" rx="7.5" fill="white"/>
<rect x="319.5" y="242.5" width="246" height="47" rx="7.5" stroke="#B7BFC7"/>
<path d="M335.336 272.144C334.664 272.144 334.061 272.032 333.528 271.808C332.995 271.573 332.573 271.253 332.264 270.848C331.955 270.432 331.784 269.957 331.752 269.424H333.256C333.299 269.861 333.501 270.219 333.864 270.496C334.237 270.773 334.723 270.912 335.32 270.912C335.875 270.912 336.312 270.789 336.632 270.544C336.952 270.299 337.112 269.989 337.112 269.616C337.112 269.232 336.941 268.949 336.6 268.768C336.259 268.576 335.731 268.389 335.016 268.208C334.365 268.037 333.832 267.867 333.416 267.696C333.011 267.515 332.659 267.253 332.36 266.912C332.072 266.56 331.928 266.101 331.928 265.536C331.928 265.088 332.061 264.677 332.328 264.304C332.595 263.931 332.973 263.637 333.464 263.424C333.955 263.2 334.515 263.088 335.144 263.088C336.115 263.088 336.899 263.333 337.496 263.824C338.093 264.315 338.413 264.987 338.456 265.84H337C336.968 265.381 336.781 265.013 336.44 264.736C336.109 264.459 335.661 264.32 335.096 264.32C334.573 264.32 334.157 264.432 333.848 264.656C333.539 264.88 333.384 265.173 333.384 265.536C333.384 265.824 333.475 266.064 333.656 266.256C333.848 266.437 334.083 266.587 334.36 266.704C334.648 266.811 335.043 266.933 335.544 267.072C336.173 267.243 336.685 267.413 337.08 267.584C337.475 267.744 337.811 267.989 338.088 268.32C338.376 268.651 338.525 269.083 338.536 269.616C338.536 270.096 338.403 270.528 338.136 270.912C337.869 271.296 337.491 271.6 337 271.824C336.52 272.037 335.965 272.144 335.336 272.144ZM348.591 267.28C348.591 267.557 348.575 267.851 348.543 268.16H341.535C341.589 269.024 341.882 269.701 342.415 270.192C342.959 270.672 343.615 270.912 344.383 270.912C345.013 270.912 345.535 270.768 345.951 270.48C346.378 270.181 346.677 269.787 346.847 269.296H348.415C348.181 270.139 347.711 270.827 347.007 271.36C346.303 271.883 345.429 272.144 344.383 272.144C343.551 272.144 342.805 271.957 342.143 271.584C341.493 271.211 340.981 270.683 340.607 270C340.234 269.307 340.047 268.507 340.047 267.6C340.047 266.693 340.229 265.899 340.591 265.216C340.954 264.533 341.461 264.011 342.111 263.648C342.773 263.275 343.53 263.088 344.383 263.088C345.215 263.088 345.951 263.269 346.591 263.632C347.231 263.995 347.722 264.496 348.063 265.136C348.415 265.765 348.591 266.48 348.591 267.28ZM347.087 266.976C347.087 266.421 346.965 265.947 346.719 265.552C346.474 265.147 346.138 264.843 345.711 264.64C345.295 264.427 344.831 264.32 344.319 264.32C343.583 264.32 342.954 264.555 342.431 265.024C341.919 265.493 341.626 266.144 341.551 266.976H347.087ZM351.969 260.16V272H350.513V260.16H351.969ZM362.451 267.28C362.451 267.557 362.435 267.851 362.403 268.16H355.395C355.448 269.024 355.741 269.701 356.275 270.192C356.819 270.672 357.475 270.912 358.243 270.912C358.872 270.912 359.395 270.768 359.811 270.48C360.237 270.181 360.536 269.787 360.707 269.296H362.275C362.04 270.139 361.571 270.827 360.867 271.36C360.163 271.883 359.288 272.144 358.243 272.144C357.411 272.144 356.664 271.957 356.003 271.584C355.352 271.211 354.84 270.683 354.467 270C354.093 269.307 353.907 268.507 353.907 267.6C353.907 266.693 354.088 265.899 354.451 265.216C354.813 264.533 355.32 264.011 355.971 263.648C356.632 263.275 357.389 263.088 358.243 263.088C359.075 263.088 359.811 263.269 360.451 263.632C361.091 263.995 361.581 264.496 361.923 265.136C362.275 265.765 362.451 266.48 362.451 267.28ZM360.947 266.976C360.947 266.421 360.824 265.947 360.579 265.552C360.333 265.147 359.997 264.843 359.571 264.64C359.155 264.427 358.691 264.32 358.179 264.32C357.443 264.32 356.813 264.555 356.291 265.024C355.779 265.493 355.485 266.144 355.411 266.976H360.947ZM363.829 267.6C363.829 266.693 364.01 265.904 364.373 265.232C364.735 264.549 365.237 264.021 365.877 263.648C366.527 263.275 367.269 263.088 368.101 263.088C369.178 263.088 370.063 263.349 370.757 263.872C371.461 264.395 371.925 265.12 372.149 266.048H370.581C370.431 265.515 370.138 265.093 369.701 264.784C369.274 264.475 368.741 264.32 368.101 264.32C367.269 264.32 366.597 264.608 366.085 265.184C365.573 265.749 365.317 266.555 365.317 267.6C365.317 268.656 365.573 269.472 366.085 270.048C366.597 270.624 367.269 270.912 368.101 270.912C368.741 270.912 369.274 270.763 369.701 270.464C370.127 270.165 370.421 269.739 370.581 269.184H372.149C371.914 270.08 371.445 270.8 370.741 271.344C370.037 271.877 369.157 272.144 368.101 272.144C367.269 272.144 366.527 271.957 365.877 271.584C365.237 271.211 364.735 270.683 364.373 270C364.01 269.317 363.829 268.517 363.829 267.6ZM375.867 264.432V269.6C375.867 270.027 375.958 270.331 376.139 270.512C376.321 270.683 376.635 270.768 377.083 270.768H378.155V272H376.843C376.033 272 375.425 271.813 375.019 271.44C374.614 271.067 374.411 270.453 374.411 269.6V264.432H373.275V263.232H374.411V261.024H375.867V263.232H378.155V264.432H375.867Z" fill="#575757"/>
<path d="M59.08 310.66L56.32 315.976V319H54.952V315.976L52.18 310.66H53.704L55.636 314.752L57.568 310.66H59.08ZM63.0336 319.108C62.4096 319.108 61.8456 318.968 61.3416 318.688C60.8376 318.4 60.4416 318 60.1536 317.488C59.8656 316.968 59.7216 316.368 59.7216 315.688C59.7216 315.016 59.8696 314.42 60.1656 313.9C60.4616 313.38 60.8656 312.98 61.3776 312.7C61.8896 312.42 62.4616 312.28 63.0936 312.28C63.7256 312.28 64.2976 312.42 64.8096 312.7C65.3216 312.98 65.7256 313.38 66.0216 313.9C66.3176 314.42 66.4656 315.016 66.4656 315.688C66.4656 316.36 66.3136 316.956 66.0096 317.476C65.7056 317.996 65.2896 318.4 64.7616 318.688C64.2416 318.968 63.6656 319.108 63.0336 319.108ZM63.0336 317.92C63.3856 317.92 63.7136 317.836 64.0176 317.668C64.3296 317.5 64.5816 317.248 64.7736 316.912C64.9656 316.576 65.0616 316.168 65.0616 315.688C65.0616 315.208 64.9696 314.804 64.7856 314.476C64.6016 314.14 64.3576 313.888 64.0536 313.72C63.7496 313.552 63.4216 313.468 63.0696 313.468C62.7176 313.468 62.3896 313.552 62.0856 313.72C61.7896 313.888 61.5536 314.14 61.3776 314.476C61.2016 314.804 61.1136 315.208 61.1136 315.688C61.1136 316.4 61.2936 316.952 61.6536 317.344C62.0216 317.728 62.4816 317.92 63.0336 317.92ZM73.806 312.388V319H72.438V318.22C72.222 318.492 71.938 318.708 71.586 318.868C71.242 319.02 70.874 319.096 70.482 319.096C69.962 319.096 69.494 318.988 69.078 318.772C68.67 318.556 68.346 318.236 68.106 317.812C67.874 317.388 67.758 316.876 67.758 316.276V312.388H69.114V316.072C69.114 316.664 69.262 317.12 69.558 317.44C69.854 317.752 70.258 317.908 70.77 317.908C71.282 317.908 71.686 317.752 71.982 317.44C72.286 317.12 72.438 316.664 72.438 316.072V312.388H73.806ZM76.9789 313.348C77.1789 313.012 77.4429 312.752 77.7709 312.568C78.1069 312.376 78.5029 312.28 78.9589 312.28V313.696H78.6109C78.0749 313.696 77.6669 313.832 77.3869 314.104C77.1149 314.376 76.9789 314.848 76.9789 315.52V319H75.6109V312.388H76.9789V313.348ZM82.8776 314.812C82.8776 313.996 83.0656 313.264 83.4416 312.616C83.8256 311.968 84.3416 311.464 84.9896 311.104C85.6456 310.736 86.3616 310.552 87.1376 310.552C88.0256 310.552 88.8136 310.772 89.5016 311.212C90.1976 311.644 90.7016 312.26 91.0136 313.06H89.3696C89.1536 312.62 88.8536 312.292 88.4696 312.076C88.0856 311.86 87.6416 311.752 87.1376 311.752C86.5856 311.752 86.0936 311.876 85.6616 312.124C85.2296 312.372 84.8896 312.728 84.6416 313.192C84.4016 313.656 84.2816 314.196 84.2816 314.812C84.2816 315.428 84.4016 315.968 84.6416 316.432C84.8896 316.896 85.2296 317.256 85.6616 317.512C86.0936 317.76 86.5856 317.884 87.1376 317.884C87.6416 317.884 88.0856 317.776 88.4696 317.56C88.8536 317.344 89.1536 317.016 89.3696 316.576H91.0136C90.7016 317.376 90.1976 317.992 89.5016 318.424C88.8136 318.856 88.0256 319.072 87.1376 319.072C86.3536 319.072 85.6376 318.892 84.9896 318.532C84.3416 318.164 83.8256 317.656 83.4416 317.008C83.0656 316.36 82.8776 315.628 82.8776 314.812ZM95.4828 319.108C94.8588 319.108 94.2948 318.968 93.7908 318.688C93.2868 318.4 92.8908 318 92.6028 317.488C92.3148 316.968 92.1708 316.368 92.1708 315.688C92.1708 315.016 92.3188 314.42 92.6148 313.9C92.9108 313.38 93.3148 312.98 93.8268 312.7C94.3388 312.42 94.9108 312.28 95.5428 312.28C96.1748 312.28 96.7468 312.42 97.2588 312.7C97.7708 312.98 98.1748 313.38 98.4708 313.9C98.7668 314.42 98.9148 315.016 98.9148 315.688C98.9148 316.36 98.7628 316.956 98.4588 317.476C98.1548 317.996 97.7388 318.4 97.2108 318.688C96.6908 318.968 96.1148 319.108 95.4828 319.108ZM95.4828 317.92C95.8348 317.92 96.1628 317.836 96.4668 317.668C96.7788 317.5 97.0308 317.248 97.2228 316.912C97.4148 316.576 97.5108 316.168 97.5108 315.688C97.5108 315.208 97.4188 314.804 97.2348 314.476C97.0508 314.14 96.8068 313.888 96.5028 313.72C96.1988 313.552 95.8708 313.468 95.5188 313.468C95.1668 313.468 94.8388 313.552 94.5348 313.72C94.2388 313.888 94.0028 314.14 93.8268 314.476C93.6508 314.804 93.5628 315.208 93.5628 315.688C93.5628 316.4 93.7428 316.952 94.1028 317.344C94.4708 317.728 94.9308 317.92 95.4828 317.92ZM106.255 312.388V319H104.887V318.22C104.671 318.492 104.387 318.708 104.035 318.868C103.691 319.02 103.323 319.096 102.931 319.096C102.411 319.096 101.943 318.988 101.527 318.772C101.119 318.556 100.795 318.236 100.555 317.812C100.323 317.388 100.207 316.876 100.207 316.276V312.388H101.563V316.072C101.563 316.664 101.711 317.12 102.007 317.44C102.303 317.752 102.707 317.908 103.219 317.908C103.731 317.908 104.135 317.752 104.431 317.44C104.735 317.12 104.887 316.664 104.887 316.072V312.388H106.255ZM111.396 312.28C111.916 312.28 112.38 312.388 112.788 312.604C113.204 312.82 113.528 313.14 113.76 313.564C113.992 313.988 114.108 314.5 114.108 315.1V319H112.752V315.304C112.752 314.712 112.604 314.26 112.308 313.948C112.012 313.628 111.608 313.468 111.096 313.468C110.584 313.468 110.176 313.628 109.872 313.948C109.576 314.26 109.428 314.712 109.428 315.304V319H108.06V312.388H109.428V313.144C109.652 312.872 109.936 312.66 110.28 312.508C110.632 312.356 111.004 312.28 111.396 312.28ZM117.449 313.504V317.164C117.449 317.412 117.505 317.592 117.617 317.704C117.737 317.808 117.937 317.86 118.217 317.86H119.057V319H117.977C117.361 319 116.889 318.856 116.561 318.568C116.233 318.28 116.069 317.812 116.069 317.164V313.504H115.289V312.388H116.069V310.744H117.449V312.388H119.057V313.504H117.449ZM121.686 313.348C121.886 313.012 122.15 312.752 122.478 312.568C122.814 312.376 123.21 312.28 123.666 312.28V313.696H123.318C122.782 313.696 122.374 313.832 122.094 314.104C121.822 314.376 121.686 314.848 121.686 315.52V319H120.318V312.388H121.686V313.348ZM130.875 312.388L126.819 322.108H125.403L126.747 318.892L124.143 312.388H125.667L127.527 317.428L129.459 312.388H130.875Z" fill="#515458"/>
<rect x="52.5" y="328.5" width="513" height="47" rx="7.5" fill="white"/>
<rect x="52.5" y="328.5" width="513" height="47" rx="7.5" stroke="#B7BFC7"/>
<path d="M73.232 353.28C73.232 353.557 73.216 353.851 73.184 354.16H66.176C66.2293 355.024 66.5227 355.701 67.056 356.192C67.6 356.672 68.256 356.912 69.024 356.912C69.6533 356.912 70.176 356.768 70.592 356.48C71.0187 356.181 71.3173 355.787 71.488 355.296H73.056C72.8213 356.139 72.352 356.827 71.648 357.36C70.944 357.883 70.0693 358.144 69.024 358.144C68.192 358.144 67.4453 357.957 66.784 357.584C66.1333 357.211 65.6213 356.683 65.248 356C64.8747 355.307 64.688 354.507 64.688 353.6C64.688 352.693 64.8693 351.899 65.232 351.216C65.5947 350.533 66.1013 350.011 66.752 349.648C67.4133 349.275 68.1707 349.088 69.024 349.088C69.856 349.088 70.592 349.269 71.232 349.632C71.872 349.995 72.3627 350.496 72.704 351.136C73.056 351.765 73.232 352.48 73.232 353.28ZM71.728 352.976C71.728 352.421 71.6053 351.947 71.36 351.552C71.1147 351.147 70.7787 350.843 70.352 350.64C69.936 350.427 69.472 350.32 68.96 350.32C68.224 350.32 67.5947 350.555 67.072 351.024C66.56 351.493 66.2667 352.144 66.192 352.976H71.728ZM79.4259 349.072C80.4925 349.072 81.3565 349.397 82.0179 350.048C82.6792 350.688 83.0099 351.616 83.0099 352.832V358H81.5699V353.04C81.5699 352.165 81.3512 351.499 80.9139 351.04C80.4765 350.571 79.8792 350.336 79.1219 350.336C78.3539 350.336 77.7405 350.576 77.2819 351.056C76.8339 351.536 76.6099 352.235 76.6099 353.152V358H75.1539V349.232H76.6099V350.48C76.8979 350.032 77.2872 349.685 77.7779 349.44C78.2792 349.195 78.8285 349.072 79.4259 349.072ZM87.1643 350.432V355.6C87.1643 356.027 87.2549 356.331 87.4363 356.512C87.6176 356.683 87.9323 356.768 88.3802 356.768H89.4523V358H88.1403C87.3296 358 86.7216 357.813 86.3163 357.44C85.9109 357.067 85.7083 356.453 85.7083 355.6V350.432H84.5723V349.232H85.7083V347.024H87.1643V349.232H89.4523V350.432H87.1643ZM99.2164 353.28C99.2164 353.557 99.2004 353.851 99.1684 354.16H92.1604C92.2137 355.024 92.507 355.701 93.0404 356.192C93.5844 356.672 94.2404 356.912 95.0084 356.912C95.6377 356.912 96.1604 356.768 96.5764 356.48C97.003 356.181 97.3017 355.787 97.4724 355.296H99.0404C98.8057 356.139 98.3364 356.827 97.6324 357.36C96.9284 357.883 96.0537 358.144 95.0084 358.144C94.1764 358.144 93.4297 357.957 92.7684 357.584C92.1177 357.211 91.6057 356.683 91.2324 356C90.859 355.307 90.6724 354.507 90.6724 353.6C90.6724 352.693 90.8537 351.899 91.2164 351.216C91.579 350.533 92.0857 350.011 92.7364 349.648C93.3977 349.275 94.155 349.088 95.0084 349.088C95.8404 349.088 96.5764 349.269 97.2164 349.632C97.8564 349.995 98.347 350.496 98.6884 351.136C99.0404 351.765 99.2164 352.48 99.2164 353.28ZM97.7124 352.976C97.7124 352.421 97.5897 351.947 97.3444 351.552C97.099 351.147 96.763 350.843 96.3364 350.64C95.9204 350.427 95.4564 350.32 94.9444 350.32C94.2084 350.32 93.579 350.555 93.0564 351.024C92.5444 351.493 92.251 352.144 92.1764 352.976H97.7124ZM102.594 350.656C102.85 350.155 103.213 349.765 103.682 349.488C104.162 349.211 104.744 349.072 105.426 349.072V350.576H105.042C103.41 350.576 102.594 351.461 102.594 353.232V358H101.138V349.232H102.594V350.656ZM118.925 349.232L113.645 362.128H112.141L113.869 357.904L110.333 349.232H111.949L114.701 356.336L117.421 349.232H118.925ZM124.212 358.144C123.391 358.144 122.644 357.957 121.972 357.584C121.311 357.211 120.788 356.683 120.404 356C120.031 355.307 119.844 354.507 119.844 353.6C119.844 352.704 120.036 351.915 120.42 351.232C120.815 350.539 121.348 350.011 122.02 349.648C122.692 349.275 123.444 349.088 124.276 349.088C125.108 349.088 125.86 349.275 126.532 349.648C127.204 350.011 127.732 350.533 128.116 351.216C128.511 351.899 128.708 352.693 128.708 353.6C128.708 354.507 128.506 355.307 128.1 356C127.706 356.683 127.167 357.211 126.484 357.584C125.802 357.957 125.044 358.144 124.212 358.144ZM124.212 356.864C124.735 356.864 125.226 356.741 125.684 356.496C126.143 356.251 126.511 355.883 126.788 355.392C127.076 354.901 127.22 354.304 127.22 353.6C127.22 352.896 127.082 352.299 126.804 351.808C126.527 351.317 126.164 350.955 125.716 350.72C125.268 350.475 124.783 350.352 124.26 350.352C123.727 350.352 123.236 350.475 122.788 350.72C122.351 350.955 121.999 351.317 121.732 351.808C121.466 352.299 121.332 352.896 121.332 353.6C121.332 354.315 121.46 354.917 121.716 355.408C121.983 355.899 122.335 356.267 122.772 356.512C123.21 356.747 123.69 356.864 124.212 356.864ZM138.399 349.232V358H136.943V356.704C136.665 357.152 136.276 357.504 135.775 357.76C135.284 358.005 134.74 358.128 134.143 358.128C133.46 358.128 132.847 357.989 132.303 357.712C131.759 357.424 131.327 356.997 131.007 356.432C130.697 355.867 130.543 355.179 130.543 354.368V349.232H131.983V354.176C131.983 355.04 132.201 355.707 132.639 356.176C133.076 356.635 133.673 356.864 134.431 356.864C135.209 356.864 135.823 356.624 136.271 356.144C136.719 355.664 136.943 354.965 136.943 354.048V349.232H138.399ZM142.313 350.656C142.569 350.155 142.932 349.765 143.401 349.488C143.881 349.211 144.462 349.072 145.145 349.072V350.576H144.761C143.129 350.576 142.313 351.461 142.313 353.232V358H140.857V349.232H142.313V350.656ZM150.547 353.6C150.547 352.693 150.729 351.904 151.091 351.232C151.454 350.549 151.955 350.021 152.595 349.648C153.246 349.275 153.987 349.088 154.819 349.088C155.897 349.088 156.782 349.349 157.475 349.872C158.179 350.395 158.643 351.12 158.867 352.048H157.299C157.15 351.515 156.857 351.093 156.419 350.784C155.993 350.475 155.459 350.32 154.819 350.32C153.987 350.32 153.315 350.608 152.803 351.184C152.291 351.749 152.035 352.555 152.035 353.6C152.035 354.656 152.291 355.472 152.803 356.048C153.315 356.624 153.987 356.912 154.819 356.912C155.459 356.912 155.993 356.763 156.419 356.464C156.846 356.165 157.139 355.739 157.299 355.184H158.867C158.633 356.08 158.163 356.8 157.459 357.344C156.755 357.877 155.875 358.144 154.819 358.144C153.987 358.144 153.246 357.957 152.595 357.584C151.955 357.211 151.454 356.683 151.091 356C150.729 355.317 150.547 354.517 150.547 353.6ZM164.634 358.144C163.813 358.144 163.066 357.957 162.394 357.584C161.733 357.211 161.21 356.683 160.826 356C160.453 355.307 160.266 354.507 160.266 353.6C160.266 352.704 160.458 351.915 160.842 351.232C161.237 350.539 161.77 350.011 162.442 349.648C163.114 349.275 163.866 349.088 164.698 349.088C165.53 349.088 166.282 349.275 166.954 349.648C167.626 350.011 168.154 350.533 168.538 351.216C168.933 351.899 169.13 352.693 169.13 353.6C169.13 354.507 168.927 355.307 168.522 356C168.127 356.683 167.589 357.211 166.906 357.584C166.223 357.957 165.466 358.144 164.634 358.144ZM164.634 356.864C165.157 356.864 165.647 356.741 166.106 356.496C166.565 356.251 166.933 355.883 167.21 355.392C167.498 354.901 167.642 354.304 167.642 353.6C167.642 352.896 167.503 352.299 167.226 351.808C166.949 351.317 166.586 350.955 166.138 350.72C165.69 350.475 165.205 350.352 164.682 350.352C164.149 350.352 163.658 350.475 163.21 350.72C162.773 350.955 162.421 351.317 162.154 351.808C161.887 352.299 161.754 352.896 161.754 353.6C161.754 354.315 161.882 354.917 162.138 355.408C162.405 355.899 162.757 356.267 163.194 356.512C163.631 356.747 164.111 356.864 164.634 356.864ZM178.821 349.232V358H177.365V356.704C177.087 357.152 176.698 357.504 176.197 357.76C175.706 358.005 175.162 358.128 174.565 358.128C173.882 358.128 173.269 357.989 172.725 357.712C172.181 357.424 171.749 356.997 171.429 356.432C171.119 355.867 170.965 355.179 170.965 354.368V349.232H172.405V354.176C172.405 355.04 172.623 355.707 173.061 356.176C173.498 356.635 174.095 356.864 174.853 356.864C175.631 356.864 176.245 356.624 176.693 356.144C177.141 355.664 177.365 354.965 177.365 354.048V349.232H178.821ZM185.551 349.072C186.618 349.072 187.482 349.397 188.143 350.048C188.804 350.688 189.135 351.616 189.135 352.832V358H187.695V353.04C187.695 352.165 187.476 351.499 187.039 351.04C186.602 350.571 186.004 350.336 185.247 350.336C184.479 350.336 183.866 350.576 183.407 351.056C182.959 351.536 182.735 352.235 182.735 353.152V358H181.279V349.232H182.735V350.48C183.023 350.032 183.412 349.685 183.903 349.44C184.404 349.195 184.954 349.072 185.551 349.072ZM193.289 350.432V355.6C193.289 356.027 193.38 356.331 193.561 356.512C193.743 356.683 194.057 356.768 194.505 356.768H195.577V358H194.265C193.455 358 192.847 357.813 192.441 357.44C192.036 357.067 191.833 356.453 191.833 355.6V350.432H190.697V349.232H191.833V347.024H193.289V349.232H195.577V350.432H193.289ZM198.797 350.656C199.053 350.155 199.416 349.765 199.885 349.488C200.365 349.211 200.947 349.072 201.629 349.072V350.576H201.245C199.613 350.576 198.797 351.461 198.797 353.232V358H197.341V349.232H198.797V350.656ZM210.862 349.232L205.582 362.128H204.078L205.806 357.904L202.27 349.232H203.886L206.638 356.336L209.358 349.232H210.862Z" fill="#575757"/>
<rect x="52" y="392" width="140" height="48" rx="24" fill="#0070F0" fill-opacity="0.9"/>
<rect x="52.5" y="392.5" width="139" height="47" rx="23.5" stroke="#0070F0" stroke-opacity="0.9"/>
<path d="M105.952 419.872H101.504L100.768 422H98.416L102.432 410.816H105.04L109.056 422H106.688L105.952 419.872ZM105.344 418.08L103.728 413.408L102.112 418.08H105.344ZM112.797 414.416C113.085 414.011 113.48 413.675 113.981 413.408C114.493 413.131 115.074 412.992 115.725 412.992C116.482 412.992 117.165 413.179 117.773 413.552C118.392 413.925 118.877 414.459 119.229 415.152C119.592 415.835 119.773 416.629 119.773 417.536C119.773 418.443 119.592 419.248 119.229 419.952C118.877 420.645 118.392 421.184 117.773 421.568C117.165 421.952 116.482 422.144 115.725 422.144C115.074 422.144 114.498 422.011 113.997 421.744C113.506 421.477 113.106 421.141 112.797 420.736V426.224H110.557V413.136H112.797V414.416ZM117.485 417.536C117.485 417.003 117.373 416.544 117.149 416.16C116.936 415.765 116.648 415.467 116.285 415.264C115.933 415.061 115.549 414.96 115.133 414.96C114.728 414.96 114.344 415.067 113.981 415.28C113.629 415.483 113.341 415.781 113.117 416.176C112.904 416.571 112.797 417.035 112.797 417.568C112.797 418.101 112.904 418.565 113.117 418.96C113.341 419.355 113.629 419.659 113.981 419.872C114.344 420.075 114.728 420.176 115.133 420.176C115.549 420.176 115.933 420.069 116.285 419.856C116.648 419.643 116.936 419.339 117.149 418.944C117.373 418.549 117.485 418.08 117.485 417.536ZM123.641 414.416C123.929 414.011 124.324 413.675 124.825 413.408C125.337 413.131 125.918 412.992 126.569 412.992C127.326 412.992 128.009 413.179 128.617 413.552C129.236 413.925 129.721 414.459 130.073 415.152C130.436 415.835 130.617 416.629 130.617 417.536C130.617 418.443 130.436 419.248 130.073 419.952C129.721 420.645 129.236 421.184 128.617 421.568C128.009 421.952 127.326 422.144 126.569 422.144C125.918 422.144 125.342 422.011 124.841 421.744C124.35 421.477 123.95 421.141 123.641 420.736V426.224H121.401V413.136H123.641V414.416ZM128.329 417.536C128.329 417.003 128.217 416.544 127.993 416.16C127.78 415.765 127.492 415.467 127.129 415.264C126.777 415.061 126.393 414.96 125.977 414.96C125.572 414.96 125.188 415.067 124.825 415.28C124.473 415.483 124.185 415.781 123.961 416.176C123.748 416.571 123.641 417.035 123.641 417.568C123.641 418.101 123.748 418.565 123.961 418.96C124.185 419.355 124.473 419.659 124.825 419.872C125.188 420.075 125.572 420.176 125.977 420.176C126.393 420.176 126.777 420.069 127.129 419.856C127.492 419.643 127.78 419.339 127.993 418.944C128.217 418.549 128.329 418.08 128.329 417.536ZM134.485 410.16V422H132.245V410.16H134.485ZM145.178 413.136L139.69 426.192H137.306L139.226 421.776L135.674 413.136H138.186L140.474 419.328L142.794 413.136H145.178Z" fill="white"/>
<path d="M458.928 417.616V422H457.104V410.704H460.944C462.245 410.704 463.221 411.013 463.872 411.632C464.533 412.251 464.864 413.099 464.864 414.176C464.864 415.243 464.528 416.085 463.856 416.704C463.184 417.312 462.213 417.616 460.944 417.616H458.928ZM460.752 416.128C462.256 416.128 463.008 415.477 463.008 414.176C463.008 413.536 462.827 413.051 462.464 412.72C462.112 412.379 461.541 412.208 460.752 412.208H458.928V416.128H460.752ZM468.287 414.912C468.586 414.336 469.013 413.883 469.567 413.552C470.122 413.211 470.762 413.04 471.487 413.04V415.024H470.943C470.143 415.024 469.498 415.221 469.007 415.616C468.527 416 468.287 416.64 468.287 417.536V422H466.463V413.184H468.287V414.912ZM472.598 410.624C472.598 410.315 472.705 410.059 472.918 409.856C473.131 409.653 473.414 409.552 473.766 409.552C474.118 409.552 474.401 409.653 474.614 409.856C474.838 410.059 474.95 410.315 474.95 410.624C474.95 410.933 474.838 411.184 474.614 411.376C474.401 411.568 474.118 411.664 473.766 411.664C473.414 411.664 473.131 411.568 472.918 411.376C472.705 411.184 472.598 410.933 472.598 410.624ZM474.678 413.184V422H472.854V413.184H474.678ZM480.501 420.112L482.997 413.184H484.949L481.589 422H479.381L476.021 413.184H477.973L480.501 420.112ZM489.828 413.072C490.628 413.072 491.31 413.269 491.876 413.664C492.441 414.059 492.841 414.581 493.076 415.232V413.184H494.9V422H493.076V419.952C492.841 420.603 492.441 421.125 491.876 421.52C491.31 421.915 490.628 422.112 489.828 422.112C489.06 422.112 488.372 421.931 487.764 421.568C487.166 421.205 486.697 420.683 486.356 420C486.014 419.317 485.844 418.512 485.844 417.584C485.844 416.667 486.014 415.867 486.356 415.184C486.697 414.501 487.166 413.979 487.764 413.616C488.372 413.253 489.06 413.072 489.828 413.072ZM490.388 414.672C489.577 414.672 488.926 414.933 488.436 415.456C487.956 415.968 487.716 416.677 487.716 417.584C487.716 418.491 487.956 419.205 488.436 419.728C488.926 420.24 489.577 420.496 490.388 420.496C490.9 420.496 491.358 420.379 491.764 420.144C492.169 419.899 492.489 419.557 492.724 419.12C492.958 418.683 493.076 418.171 493.076 417.584C493.076 417.008 492.958 416.501 492.724 416.064C492.489 415.616 492.169 415.275 491.764 415.04C491.358 414.795 490.9 414.672 490.388 414.672ZM501.008 413.072C502.15 413.072 503.094 413.376 503.84 413.984C504.587 414.581 505.051 415.397 505.232 416.432H503.296C503.19 415.877 502.928 415.445 502.512 415.136C502.107 414.816 501.595 414.656 500.976 414.656C500.272 414.656 499.686 414.907 499.216 415.408C498.747 415.899 498.512 416.624 498.512 417.584C498.512 418.544 498.747 419.275 499.216 419.776C499.686 420.277 500.272 420.528 500.976 420.528C501.595 420.528 502.107 420.368 502.512 420.048C502.928 419.728 503.19 419.291 503.296 418.736H505.232C505.051 419.771 504.587 420.592 503.84 421.2C503.094 421.808 502.15 422.112 501.008 422.112C500.155 422.112 499.398 421.931 498.736 421.568C498.086 421.205 497.574 420.683 497.2 420C496.827 419.317 496.64 418.512 496.64 417.584C496.64 416.667 496.827 415.867 497.2 415.184C497.574 414.501 498.086 413.979 498.736 413.616C499.398 413.253 500.155 413.072 501.008 413.072ZM508.035 413.184L510.675 419.664L513.123 413.184H515.155L509.827 426.192H507.795L509.699 421.792L505.987 413.184H508.035ZM521.928 417.616V422H520.104V410.704H523.944C525.245 410.704 526.221 411.013 526.872 411.632C527.533 412.251 527.864 413.099 527.864 414.176C527.864 415.243 527.528 416.085 526.856 416.704C526.184 417.312 525.213 417.616 523.944 417.616H521.928ZM523.752 416.128C525.256 416.128 526.008 415.477 526.008 414.176C526.008 413.536 525.827 413.051 525.464 412.72C525.112 412.379 524.541 412.208 523.752 412.208H521.928V416.128H523.752ZM533.495 413.072C534.349 413.072 535.117 413.253 535.799 413.616C536.482 413.979 537.015 414.501 537.399 415.184C537.783 415.867 537.975 416.667 537.975 417.584C537.975 418.512 537.783 419.317 537.399 420C537.015 420.683 536.482 421.205 535.799 421.568C535.117 421.931 534.349 422.112 533.495 422.112C532.642 422.112 531.874 421.931 531.191 421.568C530.519 421.205 529.986 420.683 529.591 420C529.207 419.307 529.015 418.501 529.015 417.584C529.015 416.667 529.207 415.867 529.591 415.184C529.986 414.501 530.519 413.979 531.191 413.616C531.874 413.253 532.642 413.072 533.495 413.072ZM533.495 414.656C533.026 414.656 532.594 414.763 532.199 414.976C531.805 415.189 531.485 415.52 531.239 415.968C531.005 416.405 530.887 416.944 530.887 417.584C530.887 418.235 531.005 418.779 531.239 419.216C531.485 419.653 531.805 419.979 532.199 420.192C532.594 420.405 533.026 420.512 533.495 420.512C533.965 420.512 534.397 420.405 534.791 420.192C535.186 419.979 535.501 419.653 535.735 419.216C535.981 418.779 536.103 418.235 536.103 417.584C536.103 416.944 535.981 416.405 535.735 415.968C535.501 415.52 535.186 415.189 534.791 414.976C534.397 414.763 533.965 414.656 533.495 414.656ZM541.553 410.16V422H539.729V410.16H541.553ZM543.504 410.624C543.504 410.315 543.611 410.059 543.824 409.856C544.038 409.653 544.32 409.552 544.672 409.552C545.024 409.552 545.307 409.653 545.52 409.856C545.744 410.059 545.856 410.315 545.856 410.624C545.856 410.933 545.744 411.184 545.52 411.376C545.307 411.568 545.024 411.664 544.672 411.664C544.32 411.664 544.038 411.568 543.824 411.376C543.611 411.184 543.504 410.933 543.504 410.624ZM545.584 413.184V422H543.76V413.184H545.584ZM551.712 413.072C552.853 413.072 553.797 413.376 554.544 413.984C555.29 414.581 555.754 415.397 555.936 416.432H554C553.893 415.877 553.632 415.445 553.216 415.136C552.81 414.816 552.298 414.656 551.68 414.656C550.976 414.656 550.389 414.907 549.92 415.408C549.45 415.899 549.216 416.624 549.216 417.584C549.216 418.544 549.45 419.275 549.92 419.776C550.389 420.277 550.976 420.528 551.68 420.528C552.298 420.528 552.81 420.368 553.216 420.048C553.632 419.728 553.893 419.291 554 418.736H555.936C555.754 419.771 555.29 420.592 554.544 421.2C553.797 421.808 552.853 422.112 551.712 422.112C550.858 422.112 550.101 421.931 549.44 421.568C548.789 421.205 548.277 420.683 547.904 420C547.53 419.317 547.344 418.512 547.344 417.584C547.344 416.667 547.53 415.867 547.904 415.184C548.277 414.501 548.789 413.979 549.44 413.616C550.101 413.253 550.858 413.072 551.712 413.072ZM558.738 413.184L561.378 419.664L563.826 413.184H565.858L560.53 426.192H558.498L560.402 421.792L556.69 413.184H558.738Z" fill="#1F284F"/>
</g>
<defs>
<filter id="filter0_d_1_2692" x="0" y="0" width="618" height="496" filterUnits="userSpaceOnUse" color-interpolation-filters="sRGB">
<feFlood flood-opacity="0" result="BackgroundImageFix"/>
<feColorMatrix in="SourceAlpha" type="matrix" values="0 0 0 0 0 0 0 0 0 0 0 0 0 0 0 0 0 0 127 0" result="hardAlpha"/>
<feOffset dy="4"/>
<feGaussianBlur stdDeviation="10"/>
<feComposite in2="hardAlpha" operator="out"/>
<feColorMatrix type="matrix" values="0 0 0 0 0 0 0 0 0 0 0 0 0 0 0 0 0 0 0.08 0"/>
<feBlend mode="normal" in2="BackgroundImageFix" result="effect1_dropShadow_1_2692"/>
<feBlend mode="normal" in="SourceGraphic" in2="effect1_dropShadow_1_2692" result="shape"/>
</filter>
</defs>
</svg>
