<svg width="170" height="72" viewBox="0 0 170 72" fill="none" xmlns="http://www.w3.org/2000/svg">
<g clip-path="url(#clip0_1_2793)">
<rect width="88" height="40" transform="translate(41 19)" fill="white"/>
<path d="M64.3244 37.7913C61.191 37.7913 60.9421 35.3585 60.9421 34.6421C60.9421 33.7913 61.1324 32.2092 63.1677 31.4481C65.203 30.6869 65.6422 30.5973 67.0918 30.1346V29.7764C67.0918 29.06 67.0918 28.9257 66.9308 28.463C66.6818 27.6421 65.8912 27.0898 64.793 27.0898C63.7534 27.0898 62.8602 27.6869 62.4502 28.5675L61.8645 28.2092C62.216 26.8958 63.5484 25.5824 65.8326 25.5824C67.414 25.5824 68.5121 26.0451 69.1564 27.06C69.6396 27.8809 69.6982 28.9854 69.6982 30.1048C69.6982 31.1197 69.6396 32.2391 69.6396 33.1495C69.6396 33.7466 69.581 34.3286 69.581 34.657C69.581 35.4779 69.7421 36.1346 70.3863 36.1346C70.6792 36.1346 70.7378 36.0301 70.972 35.8809L71.3234 36.3436C70.7378 37.1645 70.0349 37.8212 68.8782 37.8212C67.985 37.8212 67.3407 37.3585 67.0772 36.6122C66.7111 37.1346 65.7594 37.7913 64.3244 37.7913ZM67.0918 31.5973C65.5544 32.06 64.998 32.3137 64.5587 32.5525C63.8559 32.9107 63.563 33.5675 63.563 34.4182C63.563 35.0749 63.812 36.1346 65.3055 36.1346C65.7887 36.1346 66.4915 36.0301 67.1358 35.5824V31.5824H67.0918V31.5973ZM41.219 37.1645C41.219 35.9854 41.219 34.9854 41.1165 33.7764H41.8193C41.8193 34.5376 42.0096 35.0898 42.361 35.4481C42.8442 36.0003 44.001 36.3585 45.0406 36.3585C47.2223 36.3585 48.2619 35.5078 48.2619 33.6719C48.2619 32.1048 47.3248 31.4481 46.0363 30.5227L45.8459 30.3585L44.4549 29.4033C42.5221 28.0898 41.5264 27.0749 41.5264 25.0003C41.5264 23.9854 41.9218 20.6421 46.7391 20.6421C47.9837 20.6421 49.565 20.8063 50.5168 20.9406C50.5168 21.1048 50.4582 21.851 50.4582 22.5078C50.4582 23.2689 50.4582 23.463 50.5168 24.3734H49.9311C49.9311 23.5525 49.6822 23.06 49.3454 22.7018C48.8915 22.2391 47.8665 21.9854 46.7684 21.9854C44.1913 21.9854 43.8985 23.2988 43.8985 24.3137C43.8985 25.6869 44.6013 26.1794 46.1241 27.1943L47.8665 28.3734C49.3454 29.3884 50.7364 30.3436 50.7364 32.8809C50.7364 37.1346 46.8123 37.5824 45.1724 37.5824C43.6642 37.7913 42.405 37.5675 41.219 37.1645ZM72.407 26.3436C72.9927 26.4033 73.8858 26.3436 74.7497 26.1794C75.4965 26.0152 75.7454 25.9257 76.2872 25.6869L76.5361 25.851V26.7615C77.1218 26.2988 78.2785 25.6421 79.9184 25.6421C82.0123 25.6421 83.3594 26.657 83.7401 28.4331C83.8426 28.8958 83.9011 29.9406 83.9011 30.5675V34.0152C83.9011 35.9406 84.0036 36.5078 84.3551 36.851C84.5454 37.0152 84.9408 37.2092 85.5118 37.2092V37.7615C84.765 37.7018 83.418 37.657 82.6419 37.657C81.6023 37.657 80.4163 37.7167 79.772 37.7615V37.2092C80.3577 37.1495 80.7091 36.9555 80.9288 36.8063C81.2802 36.448 81.3241 35.7913 81.3827 34.3137C81.3827 33.851 81.4412 32.9406 81.4412 32.2839C81.4412 31.4331 81.4412 30.5078 81.3388 29.5973C81.1777 28.0898 80.4016 27.3734 78.8935 27.3734C77.8539 27.3734 77.2096 27.6272 76.7118 27.866V34.0451C76.7118 35.9704 76.8143 36.5376 77.1657 36.8809C77.3561 37.0451 77.81 37.2391 78.2639 37.2391V37.7913C77.3268 37.7316 76.17 37.6869 75.4379 37.6869C73.9005 37.6869 73.4026 37.7466 72.5095 37.7913V37.2092C72.9927 37.2092 73.5051 37.0152 73.7541 36.7167C74.1055 36.3137 74.1494 35.2988 74.1494 33.3286V29.8212C74.1494 28.3436 74.0908 27.7466 73.9005 27.4331C73.7394 27.1794 73.3587 26.9704 72.5534 26.9704V26.3137H72.4509V26.3436H72.407ZM86.771 37.1346C87.2542 37.1346 87.7667 36.9704 88.0156 36.6421C88.367 36.2391 88.411 35.2242 88.411 33.254V27.3585H86.9321V26.7018C87.5764 26.4481 88.1181 26.1495 88.411 25.8809C88.411 24.8212 88.4695 23.4928 88.6013 22.7316C89.0552 20.2988 90.5927 19.0898 93.2136 19.0898C94.3704 19.0898 95.4393 19.4928 96.1421 20.0451L96.2006 20.2988L95.0439 21.9107H94.7511C94.3557 20.9555 93.7554 20.4033 92.7158 20.4033C92.3644 20.4033 91.8812 20.5078 91.559 20.8063C91.0759 21.2988 90.9734 22.0749 90.9734 23.5973V25.866H93.5504V27.3436H90.9734V33.8809C90.9734 35.4481 91.0319 36.2092 91.2223 36.5078C91.5151 37.0003 92.5694 37.06 93.0526 37.06V37.657C92.218 37.5973 90.8709 37.5525 89.9191 37.5525C88.4695 37.5525 87.5324 37.6122 86.7857 37.657L86.771 37.1346ZM100.081 37.8809C96.5667 37.8809 94.4729 35.657 94.4729 31.9107C94.4729 28.9854 96.0103 25.5824 100.33 25.5824C103.844 25.5824 105.938 27.8063 105.938 31.5525C105.938 34.4779 104.386 37.8809 100.081 37.8809ZM100.227 26.9406C99.5244 26.9406 98.9827 27.1346 98.5873 27.4928C97.6502 28.3137 97.1963 29.7167 97.1963 31.7913C97.1963 32.6122 97.3574 36.5525 100.183 36.5525C100.886 36.5525 101.428 36.3585 101.823 36.0003C102.76 35.1794 103.214 33.7764 103.214 31.7018C103.2 30.8958 103.068 26.9406 100.227 26.9406ZM107.124 26.2839C107.929 26.3436 108.764 26.2242 109.657 26.0898C110.36 25.9854 110.814 25.8361 111.048 25.6869L111.238 25.7913V26.8063C111.78 26.254 112.688 25.6869 113.918 25.6869C114.811 25.6869 115.397 25.9406 115.953 26.4033V26.7615L114.957 28.5973H114.474C114.181 28.0451 113.581 27.5376 112.541 27.5376C112.058 27.5376 111.648 27.6421 111.297 27.8958V33.9257C111.297 35.4928 111.355 36.1943 111.546 36.5078C111.839 37.0003 112.834 37.06 113.376 37.0003V37.657C112.571 37.5973 111.194 37.5525 110.243 37.5525C109.144 37.5525 108.017 37.5525 107.109 37.657V37.06C107.753 37.0003 108.105 36.866 108.354 36.5675C108.705 36.1645 108.749 35.1943 108.749 33.1794V29.8958C108.749 28.4182 108.749 27.8212 108.5 27.5078C108.31 27.254 107.914 27.1048 107.153 27.1048V26.3436L107.124 26.2839ZM123.377 19.8063C124.08 19.8063 124.958 19.6421 126.115 19.4481C126.759 19.3436 127.154 19.1943 127.359 19.1495L127.55 19.254C127.447 20.2092 127.447 22.4033 127.447 23.9555V33.5675C127.447 34.9854 127.447 35.8958 127.638 36.1943C127.828 36.4481 128.223 36.657 128.985 36.657V37.254C128.238 37.254 127.403 37.3585 126.51 37.5078C125.924 37.6122 125.471 37.7018 125.222 37.8063L124.929 37.7018V36.6869C124.343 37.1495 123.245 37.8063 121.707 37.8063C118.53 37.8063 116.495 35.5824 116.495 32.0898C116.495 30.9107 116.685 29.866 117.081 28.8958C118.076 26.7615 120.068 25.5525 122.586 25.5525C123.523 25.5525 124.328 25.657 124.812 25.7466V23.254C124.812 21.7764 124.812 21.0301 124.563 20.6719C124.402 20.4182 124.167 20.3137 123.318 20.2689V19.7913H123.377V19.8063ZM122.967 36.1495C123.772 36.1495 124.314 36.0451 124.856 35.6869V27.8063C124.665 27.6122 123.962 26.9854 122.571 26.9854C120.346 26.9854 119.248 28.5525 119.248 31.8063C119.204 33.1645 119.599 36.1495 122.967 36.1495ZM59.8 36.5078C59.4486 36.9704 58.5554 37.8809 56.6665 37.8809C54.8655 37.8809 53.8845 37.2242 53.4452 35.7466C53.2549 35.1943 53.2549 34.0301 53.2549 33.3585C53.2549 31.4928 53.2549 29.9704 53.3135 28.1943V27.3734H51.7614V26.9107C52.3471 26.657 52.801 26.4182 53.211 26.0898C54.1041 25.3734 54.6898 24.5227 55.3487 23.254H55.8319V25.8809H59.7561V27.3585H55.8319V33.5376C55.8319 35.4033 56.1833 36.4182 57.8672 36.4182C58.6725 36.4182 59.2143 36.1645 59.5071 35.9555L59.8 36.5078Z" fill="#8C1515"/>
<path d="M114.84 47.5527C114.649 47.5527 114.386 47.6124 114.254 47.7467C114.093 47.8512 114.093 48.0004 114.093 48.1049C114.093 48.2989 114.152 48.4631 114.283 48.8661L115.382 51.7915C115.543 52.2542 115.674 52.6124 115.733 52.8512L117.08 48.8512C117.241 48.3885 117.27 48.2989 117.27 48.09C117.27 47.9855 117.212 47.8959 117.109 47.7915C116.948 47.687 116.758 47.5974 116.524 47.5974V47.1348C116.685 47.1348 117.007 47.1348 117.168 47.1945C117.329 47.1945 117.622 47.2542 117.871 47.2542C118.354 47.2542 119.057 47.1945 119.35 47.1945V47.6571C119.159 47.7168 118.705 47.5974 118.31 48.7765L115.484 56.4631C115.089 57.5825 114.547 58.9556 112.614 58.9556C111.809 58.9556 111.267 58.7616 110.813 58.3586V58.1646L111.516 57.3139H111.706C111.897 57.7765 112.292 57.9706 112.863 57.9706C113.756 57.9706 114.152 57.1497 114.752 55.5377L114.913 55.0751L112.541 48.7616C112.541 48.7019 112.482 48.5974 112.438 48.5079C112.38 48.3437 112.248 48.0452 112.248 48.0452C112.087 47.7467 111.853 47.6422 111.545 47.6422V47.1795C111.999 47.2392 112.79 47.2392 113.185 47.2392C113.434 47.2392 113.829 47.2392 114.225 47.1795C114.415 47.1795 114.767 47.1198 114.928 47.1198V47.5228H114.869V47.5527H114.84ZM88.5423 47.4482C89.0255 47.5079 89.5819 47.3885 90.1237 47.284C90.5776 47.1795 90.8265 47.1198 91.0168 47.0303L91.1779 47.09V47.7467C91.5293 47.3885 92.0711 47.0303 92.8618 47.0303C93.4475 47.0303 93.7989 47.1945 94.1503 47.493V47.7467L93.5646 48.9258H93.2717C93.0814 48.5676 92.73 48.2691 92.0272 48.2691C91.7343 48.2691 91.4854 48.3736 91.2218 48.5228V52.3288C91.2218 53.3437 91.2804 53.8064 91.3829 54.0004C91.5732 54.2989 92.1882 54.3586 92.5396 54.3586V54.7616C92.0564 54.7019 91.1486 54.7019 90.5483 54.7019C89.8455 54.7019 89.0987 54.7019 88.5569 54.8064V54.4034C88.9523 54.4034 89.2012 54.2392 89.3623 54.1049C89.6112 53.8512 89.6112 53.2542 89.6112 51.9258V49.7915C89.6112 48.881 89.6112 48.478 89.4501 48.284C89.3476 48.1198 89.0548 48.0303 88.6155 48.0303V47.478H88.5423V47.4482ZM55.4801 54.7915C53.3862 54.7915 52.1563 54.1348 51.7024 52.7168C51.4534 52.0004 51.4534 51.1049 51.4534 50.3885V46.3437C51.4534 45.1348 51.3949 44.9258 51.1606 44.7318C51.0581 44.6273 50.8092 44.5377 50.4578 44.478V44.0751C50.941 44.1348 51.8049 44.1795 52.288 44.1795C53.1227 44.1795 53.6351 44.1795 54.1769 44.0751V44.5377C53.8255 44.5377 53.5912 44.6422 53.3716 44.8362C53.1227 45.09 53.1227 45.5527 53.1227 46.8661V50.4482C53.1227 52.5825 53.313 53.9557 55.6558 53.9557C58.0425 53.9557 58.1889 52.5377 58.1889 50.3736V46.4333C58.1889 45.2243 58.1303 45.0153 57.896 44.8213C57.735 44.7168 57.5007 44.6273 57.1932 44.5676V44.1646C57.6471 44.1646 58.2328 44.2243 58.8331 44.2243C59.3749 44.2243 59.9313 44.2243 60.5756 44.1198V44.5825C60.2242 44.5825 59.9899 44.687 59.7702 44.881C59.5213 45.1348 59.5213 45.5974 59.5213 46.9109V49.9556C59.5213 50.9109 59.5213 51.9855 59.2285 52.8362C58.7599 54.1348 57.5593 54.7915 55.4801 54.7915ZM69.6391 54.3288C70.0345 54.2691 70.2834 54.2243 70.4737 54.0303C70.7227 53.7765 70.7227 53.1795 70.7227 51.8512V49.7168C70.7227 48.8064 70.7227 48.3437 70.5616 48.1497C70.4591 47.9855 70.2687 47.8959 69.727 47.8512V47.3885C70.0198 47.4482 70.8252 47.3288 71.4108 47.2243C71.7037 47.1646 71.9965 47.0601 72.2162 46.9706L72.3772 47.1348C72.3187 47.6273 72.3187 48.7019 72.3187 50.1198V52.2989C72.3187 53.3139 72.3772 53.7765 72.4797 53.9706C72.6408 54.1646 72.9336 54.3288 73.3729 54.3288V54.687C72.9776 54.6273 72.2162 54.6273 71.5719 54.6273C70.8252 54.6273 70.0345 54.687 69.6391 54.7318V54.3288ZM71.4694 45.6721C70.8837 45.6721 70.5323 45.3139 70.5323 44.7616C70.5323 44.2094 70.9277 43.8064 71.528 43.8064C72.1137 43.8064 72.4651 44.1646 72.4651 44.7168C72.4504 45.3139 72.0551 45.6721 71.4694 45.6721ZM101.032 54.3288C101.427 54.2691 101.676 54.2243 101.867 54.0303C102.116 53.7765 102.116 53.1795 102.116 51.8512V49.7168C102.116 48.8064 102.116 48.3437 101.955 48.1497C101.852 47.9855 101.662 47.8959 101.12 47.8512V47.3885C101.413 47.4482 102.218 47.3288 102.804 47.2243C103.097 47.1646 103.448 47.0601 103.609 46.9706L103.77 47.1348C103.712 47.6273 103.712 48.7019 103.712 50.1198V52.2989C103.712 53.3139 103.77 53.7765 103.873 53.9706C104.034 54.1646 104.327 54.3288 104.766 54.3288V54.687C104.312 54.6273 103.58 54.6273 102.936 54.6273C102.189 54.6273 101.398 54.687 101.003 54.7318V54.3288H101.032ZM102.862 45.6721C102.277 45.6721 101.925 45.3139 101.925 44.7616C101.925 44.2094 102.321 43.8064 102.921 43.8064C103.507 43.8064 103.858 44.1646 103.858 44.7168C103.858 45.3139 103.448 45.6721 102.862 45.6721ZM95.0142 54.4333C95.0142 53.6721 94.9556 52.8661 94.9117 52.4631H95.3949C95.3949 52.8661 95.4974 53.2243 95.6877 53.4183C95.9806 53.7765 96.332 53.9109 96.9762 53.9109H97.0787C97.8841 53.9109 98.3233 53.5527 98.3233 52.8512C98.3233 52.2989 97.9719 52.0303 97.3862 51.6721L96.3466 51.0153C95.8049 50.6571 95.1606 50.1646 95.1606 49.09C95.1606 48.2392 95.512 47.5825 96.2002 47.2243C96.6541 46.9706 97.3569 46.9706 97.6791 46.9706C98.2648 46.9706 99.1287 47.0751 99.6118 47.1646C99.5533 47.3586 99.5533 47.881 99.5533 48.075C99.5533 48.2392 99.5533 48.9258 99.6118 49.09H99.1287C99.1287 48.7915 99.0262 48.493 98.8358 48.2392C98.6455 47.9855 98.1915 47.8362 97.6498 47.8362C96.903 47.8362 96.493 48.1348 96.493 48.7915C96.493 49.284 96.8884 49.5527 97.2398 49.8064H97.2984L98.294 50.4034C98.9383 50.8064 99.7729 51.3139 99.7729 52.478C99.7729 54.4482 97.9719 54.7467 96.947 54.7467C96.3613 54.7318 95.717 54.687 95.0142 54.4333ZM110.608 53.9407C110.359 54.1945 109.803 54.7915 108.617 54.7915C107.46 54.7915 106.816 54.3885 106.582 53.4183C106.479 53.0601 106.479 52.2989 106.479 51.9109C106.479 50.7019 106.479 49.7318 106.479 48.6273V48.1348H105.483V47.8362C105.879 47.6721 106.128 47.5377 106.42 47.3437C106.962 46.881 107.358 46.3288 107.812 45.5079H108.163V47.1795H110.637V48.09H108.163V52.0303C108.163 53.2094 108.353 53.8959 109.451 53.8959C109.935 53.8959 110.286 53.7318 110.491 53.5974L110.608 53.9407ZM77.0188 47.1497C76.8578 47.1497 76.5356 47.1497 76.316 47.2094C75.9207 47.2094 75.5107 47.2691 75.2178 47.2691C74.6761 47.2691 73.8707 47.2094 73.6365 47.2094V47.6721C73.739 47.6721 74.1197 47.6124 74.3832 48.1348C74.4857 48.3288 74.5443 48.493 74.5736 48.5974C74.6321 48.7019 74.6761 48.7915 74.6761 48.8512L77.0628 54.9258L77.8095 54.7616L80.4451 48.7915C80.4451 48.7318 80.5037 48.687 80.5476 48.5974C80.6062 48.5377 80.6062 48.4333 80.7965 48.1348C80.9576 47.8362 81.2797 47.6721 81.5433 47.6721V47.2094C81.2504 47.2094 80.6062 47.2691 80.0937 47.2691C79.8448 47.2691 79.6105 47.2691 79.347 47.2094C79.1566 47.2094 78.8638 47.1497 78.6441 47.1497V47.5527C78.893 47.5527 79.1273 47.6571 79.2298 47.7467C79.2884 47.8064 79.3909 47.9407 79.3909 48.0452C79.3909 48.2094 79.3323 48.3437 79.2005 48.8064L77.7509 52.3885C77.6924 52.1945 77.5899 51.8959 77.4581 51.478L76.4624 48.7915C76.3014 48.3885 76.2721 48.2392 76.2721 48.0303C76.2721 47.9258 76.2721 47.8362 76.3746 47.7765C76.5356 47.6124 76.7699 47.5228 77.0188 47.5228V47.1198V47.1497ZM60.7952 47.4482C61.1905 47.5079 61.7323 47.4482 62.2741 47.3437C62.728 47.2392 62.9183 47.1795 63.2697 47.0452L63.4308 47.1497V47.7467C63.7822 47.4482 64.5876 47.0303 65.5686 47.0303C66.9157 47.0303 67.7503 47.687 68.0138 48.8064C68.0724 49.1049 68.1163 49.7616 68.1163 50.1795V52.3586C68.1163 53.5676 68.1749 53.9258 68.4092 54.1945C68.5117 54.2989 68.8045 54.3885 69.112 54.3885V54.7467C68.6288 54.7467 67.7649 54.687 67.2817 54.687C66.5789 54.687 65.8321 54.7467 65.4514 54.7915V54.4333C65.8029 54.3736 66.0371 54.2691 66.1982 54.1795C66.3885 53.9855 66.4471 53.5228 66.491 52.6124C66.491 52.3139 66.491 51.7616 66.491 51.2989C66.491 50.7467 66.491 50.1198 66.4325 49.5825C66.33 48.6273 65.8468 48.1646 64.895 48.1646C64.2508 48.1646 63.7969 48.3288 63.504 48.4631V52.4333C63.504 53.6422 63.5626 54.0004 63.7969 54.2691C63.8994 54.3736 64.1922 54.4631 64.4997 54.4631V54.8213C63.8554 54.6571 63.1087 54.6571 62.6108 54.6571C61.6152 54.6571 61.3223 54.6571 60.7806 54.7616V54.4034C61.0734 54.4034 61.4248 54.2989 61.5859 54.1049C61.7762 53.8512 61.8348 53.1945 61.8348 51.9258V49.7915C61.8348 48.881 61.8348 48.478 61.6737 48.284C61.5712 48.1198 61.3223 47.9855 60.8391 48.0303V47.4631H60.7952V47.4482ZM84.9257 54.7915C82.7 54.7915 81.4847 53.478 81.4847 51.09C81.4847 50.687 81.5872 46.9855 84.9549 46.9855C85.9506 46.9855 86.8438 47.3885 87.2391 48.1049C87.693 48.8213 87.7223 49.5228 87.7223 50.1348V50.5974H83.11C83.11 51.0004 83.1686 51.3139 83.2125 51.5527C83.4614 53.0303 84.2521 53.7318 85.6578 53.7318C86.4631 53.7318 86.9463 53.5676 87.4002 53.2691L87.5905 53.6273C87.122 54.2989 86.1263 54.7915 84.9257 54.7915ZM83.1393 49.7318H86.0092C86.0092 48.8213 85.8481 47.8064 84.5596 47.8064C83.4321 47.8661 83.1979 48.9556 83.1393 49.7318Z" fill="#8C1515"/>
</g>
<defs>
<clipPath id="clip0_1_2793">
<rect width="88" height="40" fill="white" transform="translate(41 19)"/>
</clipPath>
</defs>
</svg>
