<svg width="25" height="24" viewBox="0 0 25 24" fill="none" xmlns="http://www.w3.org/2000/svg">
<rect x="1" y="0.5" width="23" height="23" rx="11.5" stroke="#515458"/>
<path d="M16.8604 9.74638C16.8604 9.84783 16.8604 9.94928 16.8604 10.0362C16.8604 13.0362 14.6501 16.5 10.6213 16.5C9.37631 16.5 8.22922 16.1232 7.25 15.4855C7.41787 15.5 7.59972 15.5145 7.76759 15.5145C8.78878 15.5145 9.74002 15.1522 10.4954 14.5435C9.53019 14.529 8.71883 13.8623 8.45304 12.9638C8.59293 12.9928 8.71883 13.0072 8.87271 13.0072C9.06855 13.0072 9.2644 12.9783 9.44625 12.9203C8.43905 12.7174 7.68366 11.8043 7.68366 10.7029C7.68366 10.6884 7.68366 10.6884 7.68366 10.6739C7.97742 10.8478 8.31315 10.9493 8.67687 10.9638C8.08933 10.558 7.69764 9.86232 7.69764 9.06522C7.69764 8.64493 7.80955 8.25362 7.99141 7.92029C9.06855 9.2971 10.6913 10.1957 12.5098 10.2971C12.4678 10.1377 12.4539 9.94928 12.4539 9.77536C12.4539 8.51449 13.4331 7.5 14.6501 7.5C15.2796 7.5 15.8532 7.77536 16.2448 8.21014C16.7484 8.1087 17.2101 7.92029 17.6437 7.65942C17.4759 8.19565 17.1261 8.63043 16.6785 8.92029C17.1261 8.86232 17.5458 8.74638 17.9375 8.55797C17.6577 9.02174 17.294 9.42754 16.8604 9.74638Z" fill="#515458"/>
</svg>
